<svg version="1.2" baseProfile="tiny-ps" xmlns="http://www.w3.org/2000/svg" viewBox="0 0 1086 1086" width="1086" height="1086">
	<title>4669573-ai-svg</title>
	<style>
		tspan { white-space:pre }
		.s0 { fill: #ffffff } 
		.s1 { fill: #263238 } 
		.s2 { fill: #455a64 } 
		.s3 { fill: #ff725e } 
		.s4 { fill: #000000 } 
		.s5 { fill: #e0e0e0 } 
		.s6 { fill: #ffbe9d } 
		.s7 { fill: #b4f8f8 } 
		.s8 { fill: #eb996e } 
	</style>
	<path id="Shape 1" class="s0" d="m0 0h1086v1086h-1086v-1086z" />
	<g id="Blackboard">
		<g id="&lt;Group&gt;">
			<g id="&lt;Group&gt;">
				<g id="&lt;Group&gt;">
					<g id="&lt;Group&gt;">
						<g id="&lt;Group&gt;">
							<path id="&lt;Path&gt;" class="s1" d="m1063.51 743.59h-1202.36v-690.23h1202.36v690.23z" />
						</g>
					</g>
					<g id="&lt;Group&gt;">
						<g id="&lt;Group&gt;">
							<path id="&lt;Compound Path&gt;" fill-rule="evenodd" class="s1" d="m1065.79 745.85h-1206.93v-694.76h1206.93v694.76zm-1202.36-4.53h1197.8v-685.7h-1197.8v685.7z" />
						</g>
					</g>
				</g>
				<g id="&lt;Group&gt;">
					<g id="&lt;Group&gt;">
						<g id="&lt;Group&gt;">
							<path id="&lt;Path&gt;" class="s2" d="m1043.84 719.9h-1155.97v-647.27h1155.97v647.27z" />
						</g>
					</g>
					<g id="&lt;Group&gt;">
						<g id="&lt;Group&gt;">
							<path id="&lt;Compound Path&gt;" fill-rule="evenodd" class="s1" d="m1046.1 722.16h-1160.5v-651.8h1160.5v651.8zm-1155.97-4.53h1151.44v-642.74h-1151.44v642.74z" />
						</g>
					</g>
				</g>
				<g id="&lt;Group&gt;">
					<g id="&lt;Group&gt;">
						<g id="&lt;Group&gt;">
							<path id="&lt;Path&gt;" class="s1" d="m1085.73 743.59h-1247.47v-31.02h1247.47v31.02z" />
						</g>
					</g>
					<g id="&lt;Group&gt;">
						<g id="&lt;Group&gt;">
							<path id="&lt;Compound Path&gt;" fill-rule="evenodd" class="s1" d="m1088 745.85h-1252v-35.55h1252v35.55zm-1247.47-4.53h1242.93v-26.49h-1242.93v26.49z" />
						</g>
					</g>
				</g>
				<g id="&lt;Group&gt;">
					<g id="&lt;Group&gt;">
						<g id="&lt;Group&gt;">
							<g id="&lt;Group&gt;">
								<g id="&lt;Group&gt;">
									<path id="&lt;Path&gt;" class="s0" d="m173.9 194.53c0 0.65-40.15 1.18-89.66 1.18c-49.53 0-89.67-0.53-89.67-1.18c0-0.65 40.14-1.18 89.67-1.18c49.51 0 89.66 0.53 89.66 1.18z" />
								</g>
							</g>
						</g>
					</g>
					<g id="&lt;Group&gt;">
						<g id="&lt;Group&gt;">
							<g id="&lt;Group&gt;">
								<g id="&lt;Group&gt;">
									<path id="&lt;Path&gt;" class="s0" d="m173.9 213.27c0 0.65-40.15 1.18-89.66 1.18c-49.53 0-89.67-0.53-89.67-1.18c0-0.65 40.14-1.18 89.67-1.18c49.51 0 89.66 0.53 89.66 1.18z" />
								</g>
							</g>
						</g>
					</g>
					<g id="&lt;Group&gt;">
						<g id="&lt;Group&gt;">
							<g id="&lt;Group&gt;">
								<g id="&lt;Group&gt;">
									<path id="&lt;Path&gt;" class="s0" d="m54.28 161.21c0 0.65-13.37 1.18-29.86 1.18c-16.49 0-29.86-0.53-29.86-1.18c0-0.65 13.37-1.18 29.86-1.18c16.49 0 29.86 0.53 29.86 1.18z" />
								</g>
							</g>
						</g>
					</g>
				</g>
			</g>
			<g id="&lt;Group&gt;">
				<g id="&lt;Group&gt;">
					<path id="&lt;Path&gt;" class="s0" d="m399.02 490.73c0 0.43-94.71 0.78-211.52 0.78c-116.85 0-211.54-0.35-211.54-0.78c0-0.43 94.69-0.78 211.54-0.78c116.81 0 211.52 0.35 211.52 0.78z" />
				</g>
				<g id="&lt;Group&gt;">
					<path id="&lt;Path&gt;" class="s0" d="m146.62 672.67c-0.43 0-0.78-90.08-0.78-201.17c0-111.13 0.35-201.19 0.78-201.19c0.43 0 0.78 90.06 0.78 201.19c0 111.09-0.35 201.17-0.78 201.17z" />
				</g>
				<g id="&lt;Group&gt;">
					<path id="&lt;Path&gt;" class="s0" d="m292.46 298.5c0.14 0.04-0.46 1.99-1.89 5.59c-1.51 3.55-3.84 8.74-7.02 15.33c-6.34 13.19-15.89 32.08-28.01 55.25c-12.14 23.16-26.76 50.65-43.59 80.87c-4.2 7.56-8.59 15.26-13.11 23.12c-2.33 3.9-4.6 7.87-7.05 11.82c-1.24 1.97-2.49 3.96-3.74 5.95l-2.19 3.01l-1.11 1.51l-1.26 1.33c-6.75 7.04-15.36 12.69-25.25 15.39c-4.92 1.34-10.18 1.91-15.41 1.25c-5.23-0.6-10.34-2.4-14.87-5.05c-9.11-5.37-15.88-13.15-21.97-20.76c-6.15-7.64-11.72-15.55-16.77-23.57c-10.11-16.05-18.29-32.42-25.28-48.29c-7.02-15.87-12.97-31.21-18.47-45.58c-5.49-14.37-10.42-27.83-14.77-40.17c-8.72-24.67-15.04-44.89-19.08-58.96c-2.01-7.04-3.47-12.53-4.38-16.27c-0.9-3.75-1.3-5.73-1.15-5.78c0.16-0.04 0.86 1.86 2.06 5.52c1.21 3.72 2.97 9.1 5.21 16c4.57 13.87 11.36 33.89 20.46 58.37c4.54 12.24 9.64 25.61 15.28 39.89c5.65 14.28 11.71 29.52 18.79 45.22c7.05 15.7 15.21 31.84 25.22 47.59c4.99 7.88 10.49 15.63 16.53 23.12c5.98 7.49 12.5 14.82 20.68 19.63c8.11 4.88 17.84 5.88 26.71 3.36c8.9-2.4 16.91-7.58 23.16-14.07l1.17-1.22l0.97-1.33l1.93-2.65c1.23-1.95 2.46-3.89 3.69-5.81c2.42-3.88 4.72-7.84 7.05-11.69c4.54-7.8 8.97-15.46 13.21-22.98c17.01-30.05 31.93-57.37 44.43-80.31c12.48-22.96 22.47-41.6 29.3-54.51c3.36-6.42 5.98-11.43 7.79-14.9c1.69-3.43 2.58-5.25 2.75-5.19l-0.02-0.03z" />
				</g>
				<g id="&lt;Group&gt;">
					<path id="&lt;Path&gt;" class="s0" d="m145.46 451.75c0 0.43-3.76 0.78-8.4 0.78c-4.64 0-8.4-0.35-8.4-0.78c0-0.43 3.76-0.78 8.4-0.78c4.64 0 8.4 0.35 8.4 0.78z" />
				</g>
				<g id="&lt;Group&gt;">
					<path id="&lt;Path&gt;" class="s0" d="m145.46 408.46c0 0.43-3.76 0.78-8.4 0.78c-4.64 0-8.4-0.35-8.4-0.78c0-0.43 3.76-0.78 8.4-0.78c4.64 0 8.4 0.35 8.4 0.78z" />
				</g>
				<g id="&lt;Group&gt;">
					<path id="&lt;Path&gt;" class="s0" d="m145.46 365.17c0 0.43-3.76 0.78-8.4 0.78c-4.64 0-8.4-0.35-8.4-0.78c0-0.43 3.76-0.78 8.4-0.78c4.64 0 8.4 0.35 8.4 0.78z" />
				</g>
				<g id="&lt;Group&gt;">
					<path id="&lt;Path&gt;" class="s0" d="m145.46 321.89c0 0.43-3.76 0.78-8.4 0.78c-4.64 0-8.4-0.35-8.4-0.78c0-0.43 3.76-0.78 8.4-0.78c4.64 0 8.4 0.35 8.4 0.78z" />
				</g>
				<g id="&lt;Group&gt;">
					<path id="&lt;Path&gt;" class="s0" d="m145.46 605.33c0 0.43-3.76 0.78-8.4 0.78c-4.64 0-8.4-0.35-8.4-0.78c0-0.43 3.76-0.78 8.4-0.78c4.64 0 8.4 0.35 8.4 0.78z" />
				</g>
				<g id="&lt;Group&gt;">
					<path id="&lt;Path&gt;" class="s0" d="m145.46 562.04c0 0.43-3.76 0.78-8.4 0.78c-4.64 0-8.4-0.35-8.4-0.78c0-0.43 3.76-0.78 8.4-0.78c4.64 0 8.4 0.35 8.4 0.78z" />
				</g>
				<g id="&lt;Group&gt;">
					<path id="&lt;Path&gt;" class="s0" d="m145.46 518.75c0 0.43-3.76 0.78-8.4 0.78c-4.64 0-8.4-0.35-8.4-0.78c0-0.43 3.76-0.78 8.4-0.78c4.64 0 8.4 0.35 8.4 0.78z" />
				</g>
				<g id="&lt;Group&gt;">
					<path id="&lt;Path&gt;" class="s0" d="m116.33 494.56c0.43 0 0.78 3.76 0.78 8.4c0 4.64-0.35 8.4-0.78 8.4c-0.43 0-0.78-3.76-0.78-8.4c0-4.64 0.35-8.4 0.78-8.4z" />
				</g>
				<g id="&lt;Group&gt;">
					<path id="&lt;Path&gt;" class="s0" d="m73.04 494.56c0.43 0 0.78 3.76 0.78 8.4c0 4.64-0.35 8.4-0.78 8.4c-0.43 0-0.78-3.76-0.78-8.4c0-4.64 0.35-8.4 0.78-8.4z" />
				</g>
				<g id="&lt;Group&gt;">
					<path id="&lt;Path&gt;" class="s0" d="m29.75 494.56c0.43 0 0.78 3.76 0.78 8.4c0 4.64-0.35 8.4-0.78 8.4c-0.43 0-0.78-3.76-0.78-8.4c0-4.64 0.35-8.4 0.78-8.4z" />
				</g>
				<g id="&lt;Group&gt;">
					<path id="&lt;Path&gt;" class="s0" d="m-13.53 494.56c0.43 0 0.78 3.76 0.78 8.4c0 4.64-0.35 8.4-0.78 8.4c-0.43 0-0.78-3.76-0.78-8.4c0-4.64 0.35-8.4 0.78-8.4z" />
				</g>
				<g id="&lt;Group&gt;">
					<path id="&lt;Path&gt;" class="s0" d="m313.19 494.56c0.43 0 0.78 3.76 0.78 8.4c0 4.64-0.35 8.4-0.78 8.4c-0.43 0-0.78-3.76-0.78-8.4c0-4.64 0.35-8.4 0.78-8.4z" />
				</g>
				<g id="&lt;Group&gt;">
					<path id="&lt;Path&gt;" class="s0" d="m357.86 494.56c0.43 0 0.78 3.76 0.78 8.4c0 4.64-0.35 8.4-0.78 8.4c-0.43 0-0.78-3.76-0.78-8.4c0-4.64 0.35-8.4 0.78-8.4z" />
				</g>
				<g id="&lt;Group&gt;">
					<path id="&lt;Path&gt;" class="s0" d="m269.9 494.56c0.43 0 0.78 3.76 0.78 8.4c0 4.64-0.35 8.4-0.78 8.4c-0.43 0-0.78-3.76-0.78-8.4c0-4.64 0.35-8.4 0.78-8.4z" />
				</g>
				<g id="&lt;Group&gt;">
					<path id="&lt;Path&gt;" class="s0" d="m226.62 494.56c0.43 0 0.78 3.76 0.78 8.4c0 4.64-0.35 8.4-0.78 8.4c-0.43 0-0.78-3.76-0.78-8.4c0-4.64 0.35-8.4 0.78-8.4z" />
				</g>
				<g id="&lt;Group&gt;">
					<path id="&lt;Path&gt;" class="s0" d="m183.33 494.56c0.43 0 0.78 3.76 0.78 8.4c0 4.64-0.35 8.4-0.78 8.4c-0.43 0-0.78-3.76-0.78-8.4c0-4.64 0.35-8.4 0.78-8.4z" />
				</g>
				<g id="&lt;Group&gt;">
					<path id="&lt;Path&gt;" class="s0" d="m159.58 287.33c-0.18 0.12-1.8-2.05-4.27-5.63c-2.47-3.59-5.79-8.6-9.38-14.2l-0.09-0.13l1.34-0.05c-3.15 5.81-6.08 11.02-8.26 14.76c-2.18 3.73-3.63 5.99-3.82 5.89c-0.19-0.1 0.91-2.54 2.85-6.41c1.94-3.87 4.71-9.16 7.86-14.98l0.63-1.16l0.71 1.11l0.09 0.13c3.59 5.59 6.76 10.7 8.99 14.44c2.23 3.74 3.52 6.11 3.34 6.23l0.01 0z" />
				</g>
				<g id="&lt;Group&gt;">
					<path id="&lt;Path&gt;" class="s0" d="m384.91 502.97c-0.12-0.18 2.05-1.8 5.63-4.27c3.59-2.47 8.6-5.79 14.2-9.38l0.13-0.09l0.05 1.34c-5.81-3.15-11.02-6.08-14.76-8.26c-3.73-2.18-5.99-3.63-5.89-3.82c0.1-0.19 2.54 0.91 6.41 2.85c3.87 1.94 9.16 4.71 14.98 7.86l1.16 0.63l-1.11 0.71l-0.13 0.09c-5.59 3.59-10.7 6.76-14.44 8.99c-3.74 2.23-6.11 3.52-6.23 3.34l0 0.01z" />
				</g>
			</g>
			<g id="&lt;Group&gt;">
				<g id="&lt;Group&gt;">
					<g id="&lt;Group&gt;">
						<g id="&lt;Group&gt;">
							<g id="&lt;Group&gt;">
								<g id="&lt;Group&gt;">
									<path id="&lt;Path&gt;" class="s0" d="m904.08 404.6c-0.01-0.01-0.02-0.25-0.03-0.72c-0.01-0.51-0.02-1.18-0.03-2.05c-0.02-1.85-0.04-4.5-0.07-7.92c-0.04-6.96-0.09-17.07-0.16-29.92c-0.07-25.72-0.18-62.36-0.31-106.3l0.6 0.6c-42.71 0.03-93.11 0.06-146.89 0.09h-0.01l0.7-0.7c-0.03 53.79-0.07 104.2-0.09 146.91l-0.6-0.6c43.95 0.13 80.59 0.23 106.31 0.31c12.84 0.07 22.95 0.12 29.91 0.16c3.43 0.03 6.07 0.05 7.92 0.07c0.87 0.01 1.54 0.03 2.05 0.03c0.46 0.01 0.7 0.02 0.72 0.03c0.01 0.01-0.21 0.02-0.65 0.03c-0.49 0.01-1.14 0.02-1.98 0.03c-1.82 0.02-4.43 0.04-7.8 0.07c-6.93 0.04-16.99 0.09-29.78 0.16c-25.81 0.07-62.59 0.18-106.69 0.31h-0.6v-0.61c-0.03-42.71-0.06-93.11-0.09-146.91v-0.7h0.7h0.01c53.78 0.03 104.18 0.07 146.89 0.09h0.61v0.6c-0.13 44.1-0.23 80.88-0.31 106.69c-0.07 12.79-0.12 22.85-0.16 29.78c-0.03 3.38-0.05 5.99-0.07 7.81c-0.01 0.84-0.03 1.49-0.03 1.98c-0.01 0.44-0.02 0.66-0.03 0.65l-0.04 0.03z" />
								</g>
							</g>
						</g>
					</g>
				</g>
				<g id="&lt;Group&gt;">
					<g id="&lt;Group&gt;">
						<g id="&lt;Group&gt;">
							<g id="&lt;Group&gt;">
								<g id="&lt;Group&gt;">
									<path id="&lt;Path&gt;" class="s0" d="m904.08 404.6c0.24-0.19 0.62-0.45 1.12-0.78c0.81-0.52 1.93-1.24 3.37-2.17c3.04-1.91 7.41-4.67 13.01-8.2c11.38-7.09 27.73-17.27 47.83-29.79l-0.25 0.45c-0.05-38.34-0.11-89.13-0.17-144.71l0.7 0.7c-0.13 0-0.27 0-0.41 0c-55.6-0.07-106.41-0.13-144.8-0.17l0.26-0.07c-20.72 11.68-37.57 21.17-49.31 27.78c-5.8 3.23-10.34 5.76-13.49 7.51c-1.51 0.82-2.68 1.46-3.53 1.92c-0.53 0.28-0.94 0.49-1.23 0.61c0.25-0.18 0.64-0.43 1.15-0.75c0.84-0.5 1.99-1.18 3.46-2.05c3.12-1.81 7.61-4.42 13.35-7.76c11.68-6.71 28.45-16.34 49.08-28.19l0.12-0.07h0.14c38.39-0.05 89.21-0.1 144.8-0.17c0.14 0 0.28 0 0.41 0h0.7v0.7c-0.07 55.58-0.13 106.36-0.17 144.71v0.3l-0.25 0.15c-20.21 12.36-36.64 22.4-48.08 29.4c-5.66 3.42-10.08 6.1-13.16 7.95c-1.47 0.87-2.61 1.55-3.45 2.04c-0.52 0.3-0.92 0.52-1.2 0.65l0 0.01z" />
								</g>
							</g>
						</g>
					</g>
				</g>
				<g id="&lt;Group&gt;">
					<g id="&lt;Group&gt;">
						<g id="&lt;Group&gt;">
							<g id="&lt;Group&gt;">
								<g id="&lt;Group&gt;">
									<path id="&lt;Path&gt;" class="s0" d="m969.69 219.4c0.19 0.33-14.34 9.17-32.45 19.75c-18.12 10.58-32.96 18.88-33.16 18.54c-0.19-0.33 14.33-9.17 32.45-19.75c18.11-10.57 32.96-18.87 33.15-18.54h0.01z" />
								</g>
							</g>
						</g>
					</g>
				</g>
				<g id="&lt;Group&gt;">
					<g id="&lt;Group&gt;">
						<g id="&lt;Group&gt;">
							<g id="&lt;Group&gt;">
								<g id="&lt;Group&gt;">
									<g id="&lt;Group&gt;">
										<path id="&lt;Path&gt;" class="s0" d="m764.14 398.56c0.19 0.33-1.21 1.5-3.14 2.6c-1.93 1.1-3.64 1.73-3.83 1.4c-0.19-0.33 1.21-1.5 3.14-2.61c1.92-1.1 3.64-1.73 3.83-1.4v0.01z" />
									</g>
								</g>
							</g>
						</g>
					</g>
					<g id="&lt;Group&gt;">
						<g id="&lt;Group&gt;">
							<g id="&lt;Group&gt;">
								<g id="&lt;Group&gt;">
									<g id="&lt;Group&gt;">
										<path id="&lt;Path&gt;" class="s0" d="m778.08 390.56c0.19 0.33-1.21 1.5-3.14 2.61c-1.93 1.1-3.64 1.73-3.83 1.4c-0.19-0.33 1.21-1.5 3.14-2.61c1.92-1.1 3.64-1.73 3.83-1.4z" />
									</g>
								</g>
							</g>
						</g>
					</g>
					<g id="&lt;Group&gt;">
						<g id="&lt;Group&gt;">
							<g id="&lt;Group&gt;">
								<g id="&lt;Group&gt;">
									<g id="&lt;Group&gt;">
										<path id="&lt;Path&gt;" class="s0" d="m792.02 382.56c0.19 0.33-1.21 1.5-3.14 2.61c-1.93 1.11-3.64 1.73-3.83 1.4c-0.19-0.33 1.21-1.5 3.14-2.61c1.92-1.1 3.64-1.73 3.83-1.4z" />
									</g>
								</g>
							</g>
						</g>
					</g>
					<g id="&lt;Group&gt;">
						<g id="&lt;Group&gt;">
							<g id="&lt;Group&gt;">
								<g id="&lt;Group&gt;">
									<g id="&lt;Group&gt;">
										<path id="&lt;Path&gt;" class="s0" d="m805.96 374.56c0.19 0.33-1.21 1.5-3.14 2.61c-1.92 1.1-3.64 1.73-3.83 1.39c-0.19-0.33 1.21-1.5 3.14-2.61c1.92-1.1 3.64-1.73 3.83-1.4v0.01z" />
									</g>
								</g>
							</g>
						</g>
					</g>
					<g id="&lt;Group&gt;">
						<g id="&lt;Group&gt;">
							<g id="&lt;Group&gt;">
								<g id="&lt;Group&gt;">
									<g id="&lt;Group&gt;">
										<path id="&lt;Path&gt;" class="s0" d="m819.9 366.56c0.19 0.33-1.21 1.5-3.14 2.61c-1.92 1.1-3.64 1.73-3.83 1.4c-0.19-0.33 1.21-1.5 3.14-2.61c1.92-1.1 3.64-1.73 3.83-1.4z" />
									</g>
								</g>
							</g>
						</g>
					</g>
					<g id="&lt;Group&gt;">
						<g id="&lt;Group&gt;">
							<g id="&lt;Group&gt;">
								<g id="&lt;Group&gt;">
									<g id="&lt;Group&gt;">
										<path id="&lt;Path&gt;" class="s0" d="m823.43 352.47c0.39 0 0.68 1.8 0.67 4.02c-0.02 2.22-0.34 4.02-0.73 4.01c-0.38 0-0.68-1.8-0.67-4.02c0.02-2.22 0.34-4.02 0.73-4.01z" />
									</g>
								</g>
							</g>
						</g>
					</g>
					<g id="&lt;Group&gt;">
						<g id="&lt;Group&gt;">
							<g id="&lt;Group&gt;">
								<g id="&lt;Group&gt;">
									<g id="&lt;Group&gt;">
										<path id="&lt;Path&gt;" class="s0" d="m823.56 336.4c0.39 0 0.68 1.8 0.67 4.02c-0.02 2.22-0.34 4.02-0.73 4.01c-0.38 0-0.68-1.8-0.67-4.02c0.02-2.22 0.34-4.02 0.73-4.01z" />
									</g>
								</g>
							</g>
						</g>
					</g>
					<g id="&lt;Group&gt;">
						<g id="&lt;Group&gt;">
							<g id="&lt;Group&gt;">
								<g id="&lt;Group&gt;">
									<g id="&lt;Group&gt;">
										<path id="&lt;Path&gt;" class="s0" d="m823.68 320.33c0.39 0 0.68 1.8 0.67 4.02c-0.02 2.22-0.34 4.02-0.73 4.01c-0.39 0-0.68-1.8-0.67-4.02c0.02-2.22 0.34-4.02 0.73-4.01z" />
									</g>
								</g>
							</g>
						</g>
					</g>
					<g id="&lt;Group&gt;">
						<g id="&lt;Group&gt;">
							<g id="&lt;Group&gt;">
								<g id="&lt;Group&gt;">
									<g id="&lt;Group&gt;">
										<path id="&lt;Path&gt;" class="s0" d="m823.81 304.26c0.39 0 0.68 1.8 0.67 4.02c-0.02 2.22-0.34 4.02-0.73 4.01c-0.38 0-0.68-1.8-0.67-4.02c0.02-2.22 0.34-4.02 0.73-4.01z" />
									</g>
								</g>
							</g>
						</g>
					</g>
					<g id="&lt;Group&gt;">
						<g id="&lt;Group&gt;">
							<g id="&lt;Group&gt;">
								<g id="&lt;Group&gt;">
									<g id="&lt;Group&gt;">
										<path id="&lt;Path&gt;" class="s0" d="m823.93 288.19c0.38 0 0.68 1.8 0.67 4.02c-0.02 2.22-0.34 4.02-0.73 4.01c-0.38 0-0.68-1.8-0.67-4.02c0.02-2.22 0.34-4.01 0.73-4.01z" />
									</g>
								</g>
							</g>
						</g>
					</g>
					<g id="&lt;Group&gt;">
						<g id="&lt;Group&gt;">
							<g id="&lt;Group&gt;">
								<g id="&lt;Group&gt;">
									<g id="&lt;Group&gt;">
										<path id="&lt;Path&gt;" class="s0" d="m824.06 272.11c0.39 0 0.68 1.8 0.67 4.02c-0.02 2.22-0.34 4.02-0.73 4.01c-0.39 0-0.68-1.8-0.67-4.02c0.02-2.22 0.34-4.02 0.73-4.01z" />
									</g>
								</g>
							</g>
						</g>
					</g>
					<g id="&lt;Group&gt;">
						<g id="&lt;Group&gt;">
							<g id="&lt;Group&gt;">
								<g id="&lt;Group&gt;">
									<g id="&lt;Group&gt;">
										<path id="&lt;Path&gt;" class="s0" d="m824.19 256.04c0.39 0 0.68 1.8 0.67 4.02c-0.02 2.22-0.34 4.02-0.73 4.01c-0.39 0-0.68-1.8-0.67-4.02c0.02-2.22 0.34-4.02 0.73-4.01z" />
									</g>
								</g>
							</g>
						</g>
					</g>
					<g id="&lt;Group&gt;">
						<g id="&lt;Group&gt;">
							<g id="&lt;Group&gt;">
								<g id="&lt;Group&gt;">
									<g id="&lt;Group&gt;">
										<path id="&lt;Path&gt;" class="s0" d="m824.31 239.97c0.39 0 0.68 1.8 0.67 4.02c-0.02 2.22-0.34 4.02-0.73 4.01c-0.38 0-0.68-1.8-0.67-4.02c0.02-2.22 0.34-4.02 0.73-4.01z" />
									</g>
								</g>
							</g>
						</g>
					</g>
					<g id="&lt;Group&gt;">
						<g id="&lt;Group&gt;">
							<g id="&lt;Group&gt;">
								<g id="&lt;Group&gt;">
									<g id="&lt;Group&gt;">
										<path id="&lt;Path&gt;" class="s0" d="m824.44 223.9c0.38 0 0.68 1.8 0.67 4.02c-0.02 2.22-0.34 4.02-0.73 4.01c-0.38 0-0.68-1.8-0.67-4.02c0.02-2.22 0.34-4.02 0.73-4.01z" />
									</g>
								</g>
							</g>
						</g>
					</g>
				</g>
				<g id="&lt;Group&gt;">
					<g id="&lt;Group&gt;">
						<g id="&lt;Group&gt;">
							<g id="&lt;Group&gt;">
								<g id="&lt;Group&gt;">
									<g id="&lt;Group&gt;">
										<path id="&lt;Path&gt;" class="s0" d="m961.65 364.11c0-0.39 1.8-0.7 4.02-0.7c2.22 0 4.02 0.31 4.02 0.7c0 0.38-1.8 0.7-4.02 0.7c-2.22 0-4.02-0.31-4.02-0.7z" />
									</g>
								</g>
							</g>
						</g>
					</g>
					<g id="&lt;Group&gt;">
						<g id="&lt;Group&gt;">
							<g id="&lt;Group&gt;">
								<g id="&lt;Group&gt;">
									<g id="&lt;Group&gt;">
										<path id="&lt;Path&gt;" class="s0" d="m945.58 364.11c0-0.39 1.8-0.7 4.02-0.7c2.22 0 4.02 0.31 4.02 0.7c0 0.38-1.8 0.7-4.02 0.7c-2.22 0-4.02-0.31-4.02-0.7z" />
									</g>
								</g>
							</g>
						</g>
					</g>
					<g id="&lt;Group&gt;">
						<g id="&lt;Group&gt;">
							<g id="&lt;Group&gt;">
								<g id="&lt;Group&gt;">
									<g id="&lt;Group&gt;">
										<path id="&lt;Path&gt;" class="s0" d="m929.51 364.11c0-0.39 1.8-0.7 4.02-0.7c2.22 0 4.02 0.31 4.02 0.7c0 0.38-1.8 0.7-4.02 0.7c-2.22 0-4.02-0.31-4.02-0.7z" />
									</g>
								</g>
							</g>
						</g>
					</g>
					<g id="&lt;Group&gt;">
						<g id="&lt;Group&gt;">
							<g id="&lt;Group&gt;">
								<g id="&lt;Group&gt;">
									<g id="&lt;Group&gt;">
										<path id="&lt;Path&gt;" class="s0" d="m913.43 364.11c0-0.39 1.8-0.7 4.02-0.7c2.22 0 4.02 0.31 4.02 0.7c0 0.38-1.8 0.7-4.02 0.7c-2.22 0-4.02-0.31-4.02-0.7z" />
									</g>
								</g>
							</g>
						</g>
					</g>
					<g id="&lt;Group&gt;">
						<g id="&lt;Group&gt;">
							<g id="&lt;Group&gt;">
								<g id="&lt;Group&gt;">
									<g id="&lt;Group&gt;">
										<path id="&lt;Path&gt;" class="s0" d="m897.36 364.11c0-0.39 1.8-0.7 4.02-0.7c2.22 0 4.02 0.31 4.02 0.7c0 0.38-1.8 0.7-4.02 0.7c-2.22 0-4.02-0.31-4.02-0.7z" />
									</g>
								</g>
							</g>
						</g>
					</g>
					<g id="&lt;Group&gt;">
						<g id="&lt;Group&gt;">
							<g id="&lt;Group&gt;">
								<g id="&lt;Group&gt;">
									<g id="&lt;Group&gt;">
										<path id="&lt;Path&gt;" class="s0" d="m881.29 364.11c0-0.39 1.8-0.7 4.02-0.7c2.22 0 4.02 0.31 4.02 0.7c0 0.38-1.8 0.7-4.02 0.7c-2.22 0-4.02-0.31-4.02-0.7z" />
									</g>
								</g>
							</g>
						</g>
					</g>
					<g id="&lt;Group&gt;">
						<g id="&lt;Group&gt;">
							<g id="&lt;Group&gt;">
								<g id="&lt;Group&gt;">
									<g id="&lt;Group&gt;">
										<path id="&lt;Path&gt;" class="s0" d="m865.22 364.11c0-0.39 1.8-0.7 4.02-0.7c2.22 0 4.02 0.31 4.02 0.7c0 0.38-1.8 0.7-4.02 0.7c-2.22 0-4.02-0.31-4.02-0.7z" />
									</g>
								</g>
							</g>
						</g>
					</g>
					<g id="&lt;Group&gt;">
						<g id="&lt;Group&gt;">
							<g id="&lt;Group&gt;">
								<g id="&lt;Group&gt;">
									<g id="&lt;Group&gt;">
										<path id="&lt;Path&gt;" class="s0" d="m849.14 364.11c0-0.39 1.8-0.7 4.02-0.7c2.22 0 4.02 0.31 4.02 0.7c0 0.38-1.8 0.7-4.02 0.7c-2.22 0-4.02-0.31-4.02-0.7z" />
									</g>
								</g>
							</g>
						</g>
					</g>
					<g id="&lt;Group&gt;">
						<g id="&lt;Group&gt;">
							<g id="&lt;Group&gt;">
								<g id="&lt;Group&gt;">
									<g id="&lt;Group&gt;">
										<path id="&lt;Path&gt;" class="s0" d="m833.07 364.11c0-0.39 1.8-0.7 4.02-0.7c2.22 0 4.02 0.31 4.02 0.7c0 0.38-1.8 0.7-4.02 0.7c-2.22 0-4.02-0.31-4.02-0.7z" />
									</g>
								</g>
							</g>
						</g>
					</g>
					<g id="&lt;Group&gt;">
						<g id="&lt;Group&gt;">
							<g id="&lt;Group&gt;">
								<g id="&lt;Group&gt;">
									<g id="&lt;Group&gt;">
										<path id="&lt;Path&gt;" class="s0" d="m823.33 364.11c0-0.39 0.38-0.7 0.85-0.7c0.47 0 0.85 0.31 0.85 0.7c0 0.38-0.38 0.7-0.85 0.7c-0.47 0-0.85-0.31-0.85-0.7z" />
									</g>
								</g>
							</g>
						</g>
					</g>
				</g>
				<g id="&lt;Group&gt;">
					<g id="&lt;Group&gt;">
						<g id="&lt;Group&gt;">
							<g id="&lt;Group&gt;">
								<g id="&lt;Group&gt;">
									<path id="&lt;Path&gt;" class="s0" d="m987.47 315.17c0.02-0.15 1.35 0.29 3.67-0.17c2.24-0.44 5.62-2.06 7.61-5.74c1.97-3.61 2.13-9.16-0.42-13.98c-0.65-1.14-1.61-2.1-2.86-2.31c-1.24-0.23-2.66 0.19-3.76 1.01c-2.25 1.72-3.5 4.82-4.65 7.79c-1.2 3.31-1.88 6.71-2.09 9.97l-1.36-0.03c-0.15-10.64-0.23-19.93-0.23-26.56c0.03-3.12 0.05-5.71 0.06-7.79c0.04-1.82 0.1-2.82 0.19-2.82c0.08 0 0.18 0.99 0.29 2.81c0.09 2.07 0.2 4.67 0.34 7.78c0.24 6.63 0.49 15.91 0.71 26.55l-1.36-0.03c0.19-3.39 0.88-6.93 2.13-10.37c0.57-1.58 1.24-3.08 2.01-4.54c0.78-1.44 1.77-2.86 3.14-3.87c1.38-1 3.12-1.53 4.82-1.22c1.76 0.31 3.03 1.67 3.73 2.98c2.73 5.32 2.4 11.2 0.17 15.09c-2.3 3.96-5.99 5.5-8.39 5.8c-1.23 0.16-2.19 0.06-2.82-0.06c-0.63-0.14-0.94-0.27-0.93-0.31v0.02z" />
								</g>
							</g>
						</g>
					</g>
				</g>
				<g id="&lt;Group&gt;">
					<g id="&lt;Group&gt;">
						<g id="&lt;Group&gt;">
							<g id="&lt;Group&gt;">
								<g id="&lt;Group&gt;">
									<path id="&lt;Path&gt;" class="s0" d="m916.25 202.64c0.03 0.02-0.07 0.2-0.34 0.52c-0.27 0.3-0.73 0.71-1.43 1.07c-0.7 0.36-1.67 0.63-2.82 0.6c-1.14-0.04-2.52-0.46-3.61-1.51c-1.09-1.04-1.82-2.52-2.42-4.09c-0.61-1.57-1.18-3.29-1.7-5.15c-1.03-3.72-1.82-8-2.04-12.66l1.31-0.09c0.44 5.08 1.07 10.87-0.48 16.76c-0.94 3.25-2.35 6.52-5.2 8.54c-1.43 0.96-3.2 1.44-4.9 1.09c-1.73-0.36-3.04-1.61-3.83-2.93c-2.9-5.52-1.78-11.4 0.31-15.28c2.2-3.97 5.4-6.07 7.62-7.07c1.13-0.51 2.06-0.78 2.69-0.91c0.64-0.13 0.98-0.16 0.99-0.12c0.03 0.12-1.31 0.39-3.44 1.52c-2.09 1.11-5.04 3.25-6.99 7.04c-0.96 1.88-1.62 4.15-1.73 6.63c-0.09 2.44 0.27 5.22 1.65 7.52c0.7 1.12 1.73 2.05 3.01 2.3c1.27 0.25 2.71-0.11 3.87-0.91c2.35-1.65 3.76-4.73 4.62-7.78c1.46-5.54 0.91-11.2 0.52-16.28l1.31-0.09c0.17 4.56 0.87 8.76 1.8 12.43c0.47 1.83 0.99 3.54 1.54 5.1c0.54 1.55 1.17 2.92 2.08 3.86c1.87 1.9 4.42 1.63 5.69 1.09c1.37-0.55 1.87-1.27 1.94-1.19l-0.02-0.01z" />
								</g>
							</g>
						</g>
					</g>
				</g>
			</g>
		</g>
	</g>
	<g id="Character">
		<g id="&lt;Group&gt;">
			<g id="&lt;Group&gt;">
				<g id="&lt;Group&gt;">
					<g id="&lt;Group&gt;">
						<g id="&lt;Group&gt;">
							<g id="&lt;Group&gt;">
								<g id="&lt;Group&gt;">
									<g id="&lt;Group&gt;">
										<g id="&lt;Group&gt;">
											<g id="&lt;Group&gt;">
												<g id="&lt;Group&gt;">
													<g id="&lt;Group&gt;">
														<g id="&lt;Group&gt;">
															<g id="&lt;Group&gt;">
																<path id="&lt;Path&gt;" class="s3" d="m649.99 1245.07l16.32 112.81l-140.25 21.03c-0.79-9.01 21.65-26.11 67.34-51.3l-13.43-71.85l70.01-10.69h0.01z" />
															</g>
														</g>
													</g>
												</g>
											</g>
										</g>
									</g>
								</g>
							</g>
							<g id="&lt;Group&gt;" style="opacity: .3">
								<g id="&lt;Group&gt;">
									<g id="&lt;Group&gt;">
										<g id="&lt;Group&gt;">
											<g id="&lt;Group&gt;">
												<g id="&lt;Group&gt;">
													<g id="&lt;Group&gt;">
														<g id="&lt;Group&gt;">
															<g id="&lt;Group&gt;">
																<path id="&lt;Path&gt;" class="s4" d="m649.99 1245.07l16.32 112.81l-140.25 21.03c-0.79-9.01 21.65-26.11 67.34-51.3l-13.43-71.85l70.01-10.69h0.01z" />
															</g>
														</g>
													</g>
												</g>
											</g>
										</g>
									</g>
								</g>
							</g>
							<g id="&lt;Group&gt;">
								<g id="&lt;Group&gt;">
									<g id="&lt;Group&gt;">
										<g id="&lt;Group&gt;">
											<g id="&lt;Group&gt;">
												<g id="&lt;Group&gt;">
													<g id="&lt;Group&gt;">
														<g id="&lt;Group&gt;">
															<g id="&lt;Group&gt;">
																<g id="&lt;Group&gt;">
																	<path id="&lt;Path&gt;" class="s5" d="m635.85 1315.04c2.83 0.34 5.16 3.11 4.94 5.94c-0.22 2.84-3.02 5.23-5.85 4.95c-2.83-0.29-5.73-3.53-5.2-6.32c0.53-2.79 3.97-5.43 6.65-4.47" />
																</g>
															</g>
														</g>
													</g>
												</g>
											</g>
										</g>
									</g>
								</g>
							</g>
							<g id="&lt;Group&gt;">
								<g id="&lt;Group&gt;">
									<g id="&lt;Group&gt;">
										<g id="&lt;Group&gt;">
											<g id="&lt;Group&gt;">
												<g id="&lt;Group&gt;">
													<g id="&lt;Group&gt;">
														<g id="&lt;Group&gt;">
															<g id="&lt;Group&gt;">
																<path id="&lt;Path&gt;" class="s1" d="m526.06 1378.91c-0.91-2.86 0.58-5.51 4.47-7.95l133.69-24.39l2.09 11.31l-140.25 21.03l0 0z" />
															</g>
														</g>
													</g>
												</g>
											</g>
										</g>
									</g>
								</g>
							</g>
							<g id="&lt;Group&gt;">
								<g id="&lt;Group&gt;">
									<g id="&lt;Group&gt;">
										<g id="&lt;Group&gt;">
											<g id="&lt;Group&gt;">
												<g id="&lt;Group&gt;">
													<g id="&lt;Group&gt;">
														<g id="&lt;Group&gt;">
															<g id="&lt;Group&gt;">
																<g id="&lt;Group&gt;">
																	<path id="&lt;Path&gt;" class="s1" d="m599.29 1327.21c4.52 1.97 6.15 5.92 5.54 6.14c-0.59 0.37-2.77-2.34-6.52-3.94c-3.7-1.7-7.17-1.49-7.3-2.18c-0.24-0.61 3.78-2.04 8.27-0.03l0.01 0.01z" />
																</g>
															</g>
														</g>
													</g>
												</g>
											</g>
										</g>
									</g>
								</g>
							</g>
							<g id="&lt;Group&gt;">
								<g id="&lt;Group&gt;">
									<g id="&lt;Group&gt;">
										<g id="&lt;Group&gt;">
											<g id="&lt;Group&gt;">
												<g id="&lt;Group&gt;">
													<g id="&lt;Group&gt;">
														<g id="&lt;Group&gt;">
															<g id="&lt;Group&gt;">
																<g id="&lt;Group&gt;">
																	<path id="&lt;Path&gt;" class="s1" d="m584.67 1337.69c3.49 3.1 3.62 7.18 2.96 7.17c-0.68 0.13-1.73-2.91-4.57-5.38c-2.76-2.55-5.9-3.27-5.84-3.96c-0.08-0.65 3.99-0.97 7.45 2.16v0.01z" />
																</g>
															</g>
														</g>
													</g>
												</g>
											</g>
										</g>
									</g>
								</g>
							</g>
							<g id="&lt;Group&gt;">
								<g id="&lt;Group&gt;">
									<g id="&lt;Group&gt;">
										<g id="&lt;Group&gt;">
											<g id="&lt;Group&gt;">
												<g id="&lt;Group&gt;">
													<g id="&lt;Group&gt;">
														<g id="&lt;Group&gt;">
															<g id="&lt;Group&gt;">
																<g id="&lt;Group&gt;">
																	<path id="&lt;Path&gt;" class="s1" d="m568.25 1348.72c-1.86-2.89-4.24-4.59-3.94-5.21c0.2-0.61 3.65 0.38 5.95 3.89c2.32 3.49 1.88 7.05 1.24 7c-0.69 0.03-1.32-2.82-3.25-5.67v-0.01z" />
																</g>
															</g>
														</g>
													</g>
												</g>
											</g>
										</g>
									</g>
								</g>
							</g>
							<g id="&lt;Group&gt;">
								<g id="&lt;Group&gt;">
									<g id="&lt;Group&gt;">
										<g id="&lt;Group&gt;">
											<g id="&lt;Group&gt;">
												<g id="&lt;Group&gt;">
													<g id="&lt;Group&gt;">
														<g id="&lt;Group&gt;">
															<g id="&lt;Group&gt;">
																<g id="&lt;Group&gt;">
																	<path id="&lt;Path&gt;" class="s1" d="m596.85 1306.97c4.6-0.44 7.92 1.66 7.6 2.21c-0.27 0.64-3.48-0.21-7.38 0.19c-3.91 0.32-6.91 1.73-7.29 1.15c-0.42-0.49 2.47-3.15 7.07-3.55l0 0z" />
																</g>
															</g>
														</g>
													</g>
												</g>
											</g>
										</g>
									</g>
								</g>
							</g>
						</g>
					</g>
					<g id="&lt;Group&gt;">
						<g id="&lt;Group&gt;">
							<g id="&lt;Group&gt;">
								<g id="&lt;Group&gt;">
									<g id="&lt;Group&gt;">
										<g id="&lt;Group&gt;">
											<g id="&lt;Group&gt;">
												<g id="&lt;Group&gt;">
													<g id="&lt;Group&gt;">
														<g id="&lt;Group&gt;">
															<g id="&lt;Group&gt;">
																<path id="&lt;Path&gt;" class="s3" d="m696.58 1274.05l-2.66 113.95l-141.79-2.59c0.72-9.02 25.69-22.15 74.93-39.39l-1.29-73.08l70.82 1.1l-0.01 0.01z" />
															</g>
														</g>
													</g>
												</g>
											</g>
										</g>
									</g>
								</g>
							</g>
							<g id="&lt;Group&gt;">
								<g id="&lt;Group&gt;">
									<g id="&lt;Group&gt;">
										<g id="&lt;Group&gt;">
											<g id="&lt;Group&gt;">
												<g id="&lt;Group&gt;">
													<g id="&lt;Group&gt;">
														<g id="&lt;Group&gt;">
															<g id="&lt;Group&gt;">
																<g id="&lt;Group&gt;">
																	<path id="&lt;Path&gt;" class="s5" d="m671.01 1340.69c2.73 0.8 4.57 3.92 3.88 6.68c-0.69 2.76-3.84 4.66-6.59 3.91c-2.74-0.75-5.07-4.43-4.08-7.1c0.99-2.67 4.82-4.69 7.3-3.3" />
																</g>
															</g>
														</g>
													</g>
												</g>
											</g>
										</g>
									</g>
								</g>
							</g>
							<g id="&lt;Group&gt;">
								<g id="&lt;Group&gt;">
									<g id="&lt;Group&gt;">
										<g id="&lt;Group&gt;">
											<g id="&lt;Group&gt;">
												<g id="&lt;Group&gt;">
													<g id="&lt;Group&gt;">
														<g id="&lt;Group&gt;">
															<g id="&lt;Group&gt;">
																<path id="&lt;Path&gt;" class="s1" d="m552.13 1385.42c-0.42-2.97 1.49-5.34 5.73-7.09l135.88-1.82l0.18 11.5l-141.79-2.59v0z" />
															</g>
														</g>
													</g>
												</g>
											</g>
										</g>
									</g>
								</g>
							</g>
							<g id="&lt;Group&gt;">
								<g id="&lt;Group&gt;">
									<g id="&lt;Group&gt;">
										<g id="&lt;Group&gt;">
											<g id="&lt;Group&gt;">
												<g id="&lt;Group&gt;">
													<g id="&lt;Group&gt;">
														<g id="&lt;Group&gt;">
															<g id="&lt;Group&gt;">
																<g id="&lt;Group&gt;">
																	<path id="&lt;Path&gt;" class="s1" d="m632.93 1346.62c4.12 2.7 5.08 6.86 4.44 6.98c-0.64 0.26-2.34-2.77-5.77-4.97c-3.37-2.29-6.82-2.67-6.83-3.36c-0.14-0.64 4.06-1.39 8.16 1.35z" />
																</g>
															</g>
														</g>
													</g>
												</g>
											</g>
										</g>
									</g>
								</g>
							</g>
							<g id="&lt;Group&gt;">
								<g id="&lt;Group&gt;">
									<g id="&lt;Group&gt;">
										<g id="&lt;Group&gt;">
											<g id="&lt;Group&gt;">
												<g id="&lt;Group&gt;">
													<g id="&lt;Group&gt;">
														<g id="&lt;Group&gt;">
															<g id="&lt;Group&gt;">
																<g id="&lt;Group&gt;">
																	<path id="&lt;Path&gt;" class="s1" d="m616.78 1354.52c2.93 3.64 2.37 7.69 1.73 7.57c-0.69 0.02-1.23-3.16-3.61-6.06c-2.3-2.97-5.28-4.2-5.11-4.87c0.03-0.66 4.1-0.3 6.99 3.37v-0.01z" />
																</g>
															</g>
														</g>
													</g>
												</g>
											</g>
										</g>
									</g>
								</g>
							</g>
							<g id="&lt;Group&gt;">
								<g id="&lt;Group&gt;">
									<g id="&lt;Group&gt;">
										<g id="&lt;Group&gt;">
											<g id="&lt;Group&gt;">
												<g id="&lt;Group&gt;">
													<g id="&lt;Group&gt;">
														<g id="&lt;Group&gt;">
															<g id="&lt;Group&gt;">
																<g id="&lt;Group&gt;">
																	<path id="&lt;Path&gt;" class="s1" d="m598.75 1362.66c-1.35-3.16-3.42-5.23-3.02-5.8c0.3-0.57 3.54 0.98 5.22 4.82c1.71 3.82 0.68 7.27 0.06 7.11c-0.69-0.08-0.83-3-2.26-6.13v0z" />
																</g>
															</g>
														</g>
													</g>
												</g>
											</g>
										</g>
									</g>
								</g>
							</g>
							<g id="&lt;Group&gt;">
								<g id="&lt;Group&gt;">
									<g id="&lt;Group&gt;">
										<g id="&lt;Group&gt;">
											<g id="&lt;Group&gt;">
												<g id="&lt;Group&gt;">
													<g id="&lt;Group&gt;">
														<g id="&lt;Group&gt;">
															<g id="&lt;Group&gt;">
																<g id="&lt;Group&gt;">
																	<path id="&lt;Path&gt;" class="s1" d="m633.89 1326.25c4.61 0.33 7.54 2.95 7.13 3.44c-0.37 0.59-3.39-0.78-7.31-1.04c-3.91-0.34-7.1 0.56-7.38-0.08c-0.33-0.55 2.96-2.7 7.56-2.33v0.01z" />
																</g>
															</g>
														</g>
													</g>
												</g>
											</g>
										</g>
									</g>
								</g>
							</g>
						</g>
					</g>
					<g id="&lt;Group&gt;">
						<g id="&lt;Group&gt;">
							<g id="&lt;Group&gt;">
								<g id="&lt;Group&gt;">
									<g id="&lt;Group&gt;">
										<g id="&lt;Group&gt;">
											<g id="&lt;Group&gt;">
												<path id="&lt;Path&gt;" class="s1" d="m725.78 705.5l-1.88 72.3l-21.36 224.47c4.54 72.89 8.25 129.92 11.13 171.07c2.5 35.74 0.14 84.58-7.08 146.52l-90.23-2.35l-24.2-311.44l-15-194.23l-29.65-98.85l178.27-7.51l0 0.02z" />
											</g>
										</g>
									</g>
								</g>
							</g>
						</g>
						<g id="&lt;Group&gt;">
							<g id="&lt;Group&gt;">
								<g id="&lt;Group&gt;">
									<g id="&lt;Group&gt;">
										<g id="&lt;Group&gt;">
											<g id="&lt;Group&gt;">
												<path id="&lt;Path&gt;" class="s1" d="m502.28 714.86l100.07-4.09l37.53 567.26l-54.25 11.63l-3.83-14.26l-77.52-215.96c-5.06-14.09-7.5-28.98-7.21-43.94l5.4-297.36l-0.19-3.28h0z" />
											</g>
										</g>
									</g>
								</g>
							</g>
						</g>
						<g id="&lt;Group&gt;">
							<g id="&lt;Group&gt;">
								<g id="&lt;Group&gt;">
									<g id="&lt;Group&gt;">
										<g id="&lt;Group&gt;">
											<g id="&lt;Group&gt;">
												<g id="&lt;Group&gt;">
													<path id="&lt;Path&gt;" class="s2" d="m578.5 775.22c0.03 1.02 0.08 2.39 0.14 4.13c0.08 3.73 0.2 9.07 0.36 15.89c0.21 13.8 0.78 33.77 1.59 58.43c1.74 49.32 5.24 117.4 11.21 192.42c5.84 75.06 12.51 142.86 17.22 191.95c2.34 24.47 4.23 44.31 5.55 58.14c0.61 6.79 1.08 12.1 1.42 15.82c0.14 1.74 0.25 3.1 0.33 4.12c0.06 0.93 0.08 1.41 0.05 1.41c-0.03 0-0.1-0.47-0.22-1.39c-0.12-1.01-0.28-2.37-0.49-4.1c-0.41-3.71-0.99-9-1.73-15.78c-1.45-13.81-3.52-33.63-6.08-58.07c-5.02-49.05-11.87-116.85-17.72-191.93c-5.97-75.04-9.28-143.18-10.72-192.53c-0.66-24.68-1.05-44.66-1.06-58.47c-0.02-6.83-0.03-12.17-0.04-15.9c0.01-1.75 0.02-3.12 0.03-4.13c0.02-0.93 0.04-1.41 0.07-1.41c0.03 0 0.06 0.48 0.1 1.41l-0.01-0.01z" />
												</g>
											</g>
										</g>
									</g>
								</g>
							</g>
						</g>
						<g id="&lt;Group&gt;">
							<g id="&lt;Group&gt;">
								<g id="&lt;Group&gt;">
									<g id="&lt;Group&gt;">
										<g id="&lt;Group&gt;">
											<g id="&lt;Group&gt;">
												<path id="&lt;Path&gt;" class="s2" d="m578.43 731.03c2.56 0.07 4.59 2.2 4.52 4.76c-0.07 2.56-2.2 4.59-4.76 4.52c-2.56-0.07-4.59-2.2-4.52-4.76c0.07-2.56 2.2-4.59 4.76-4.52z" />
											</g>
										</g>
									</g>
								</g>
							</g>
						</g>
						<g id="&lt;Group&gt;">
							<g id="&lt;Group&gt;">
								<g id="&lt;Group&gt;">
									<g id="&lt;Group&gt;">
										<g id="&lt;Group&gt;">
											<g id="&lt;Group&gt;">
												<g id="&lt;Group&gt;">
													<path id="&lt;Path&gt;" class="s2" d="m506.07 763.66c3.41-4.08 7.67-10.1 11.19-17.4c3.49-7.31 5.51-14.41 6.56-19.62c1.06-5.21 1.33-8.52 1.61-8.51c0.18 0 0.33 3.36-0.44 8.71c-0.76 5.35-2.64 12.67-6.21 20.14c-3.59 7.46-8.12 13.52-11.81 17.46c-3.69 3.95-6.4 5.94-6.52 5.8c-0.19-0.21 2.22-2.5 5.62-6.58h0z" />
												</g>
											</g>
										</g>
									</g>
								</g>
							</g>
						</g>
					</g>
					<g id="&lt;Group&gt;">
						<g id="&lt;Group&gt;">
							<g id="&lt;Group&gt;">
								<g id="&lt;Group&gt;">
									<g id="&lt;Group&gt;">
										<g id="&lt;Group&gt;">
											<g id="&lt;Group&gt;">
												<path id="&lt;Path&gt;" class="s2" d="m660.89 735.73c2.76 6.98 8.19 16.23 16.98 23.68c8.8 7.45 18.81 11.28 26.15 12.86c7.39 1.62 12.16 1.44 12.15 1.76c0 0.1-1.18 0.25-3.33 0.26c-2.15 0.02-5.26-0.18-9.06-0.86c-7.55-1.3-17.94-5.06-27-12.74c-9.06-7.68-14.48-17.31-17-24.54c-1.29-3.63-2-6.67-2.33-8.79c-0.34-2.12-0.39-3.31-0.29-3.32c0.31-0.06 0.92 4.67 3.74 11.69h-0.01z" />
											</g>
										</g>
									</g>
								</g>
							</g>
						</g>
					</g>
				</g>
				<g id="&lt;Group&gt;">
					<path id="&lt;Path&gt;" class="s2" d="m502.28 714.86c0.43 0.01 0.32 28.57-0.25 63.78c-0.57 35.23-1.38 63.77-1.81 63.76c-0.43-0.01-0.32-28.56 0.25-63.79c0.57-35.22 1.38-63.76 1.81-63.76v0.01z" />
				</g>
				<g id="&lt;Group&gt;">
					<path id="&lt;Path&gt;" class="s2" d="m723.49 770.89c-0.22-0.02-0.07-3.81 0.21-9.92c0.28-6.11 0.64-14.56 0.85-23.89c0.2-9.33 0.22-17.78 0.21-23.9c-0.01-6.12 0-9.91 0.23-9.92c0.21-0.01 0.59 3.77 0.88 9.89c0.29 6.13 0.45 14.6 0.25 23.96c-0.21 9.36-0.75 17.82-1.31 23.93c-0.56 6.11-1.11 9.87-1.31 9.85l-0.01 0z" />
				</g>
			</g>
			<g id="&lt;Group&gt;">
				<path id="&lt;Path&gt;" class="s0" d="m300.01 315.75l-5.91-7.9c-2.06-4.3-2.61-7.41-1.64-9.34c0.97-1.93 3.01-2.33 6.14-1.21l23.46 26.43l-8.21 6.76l-12.69-13.8" />
				<path id="&lt;Path&gt;" class="s6" d="m436.83 430.41l-24.63 35.1c-32.91-36.72-51.12-57.13-54.64-61.24l-17.65-21.08c-9.67-8.29-15.9-13.64-18.71-16.05c-4.21-3.61-8.05-13.81-8.62-15.51c-0.38-1.14-2.42-4.91-6.11-11.33l-1.03-7.79c-0.9-6.05-7.52-12.54-4.27-15.84c3.24-3.31 11.63 3.48 14.67 8.93c2.03 3.63 5.47 8.61 10.32 14.94c1.38-0.98 2.56-2.67 3.54-5.08c0.98-2.41 1.1-6.51 0.36-12.31l-3.82-11.71c-4.37 1.09-8.74 1.65-13.11 1.69c-4.37 0.04-7.73-2.03-10.09-6.22l14.74-7.25c10.16-0.49 16.88-0.27 20.15 0.64c3.27 0.91 5.62 4.96 7.05 12.13l6.44 1.19c2.31 1.37 8.75 15.63 8.95 18.31l7.25 25.09c0.33 4.34 4.34 11.03 8.85 12.87c3.01 1.23 5.42 4.25 7.25 9.06l47.38 38.54l5.72 12.9l0.01 0.02z" />
			</g>
			<g id="&lt;Group&gt;">
				<path id="&lt;Path&gt;" class="s7" d="m385.44 376.65c0.35 1.27 5.21 6 14.58 14.18c23.65 18.1 38.09 30.32 43.32 36.64c5.23 6.32 18.5 15.17 39.82 26.57l30.58-61.45l47.33-30.16c7.03-7.06 20.54-4.03 40.55 9.1l-87.76 205.53l-64.84-24.25l-84.78-121.25l-13.73-33.1l34.94-21.8l-0.01-0.01z" />
				<path id="&lt;Path&gt;" class="s7" d="m653.43 306.79l12.48 17.7c52.8 26.63 80.32 41.73 82.56 45.32c2.24 3.58-4.7 68.4-20.83 194.44l9.68 114.86l-11.55 30.9l-224.53 12.61c-3.51-1.38-12.14-8.86-12.76-22.02c-0.48-10.04 7.54-20.4 7.46-27.03c-0.53-46.57 4.48-153.5 12.06-192.93c6.72-34.93 17.69-69.63 32.91-104.12l20.15-14.11l4-22.44l88.36-33.18h0.01z" />
				<g id="&lt;Group&gt;" style="opacity: .3">
					<path id="&lt;Path&gt;" class="s4" d="m733.98 661.82c-1.56 1.67-4.02 2.09-6.3 2.34c-18.62 2.06-37.77-0.81-54.98-8.24c-7.91-3.41-15.43-7.78-23.61-10.45c-7.56-2.47-15.51-3.44-23.4-4.4c-10.57-1.29-21.15-2.58-31.72-3.86c-4.69-0.57-9.85-1.04-13.76 1.61c-3.91 2.64-5.39 7.56-7.53 11.76c-5.25 10.33-17.11 20-28.65 20.99c-0.01-13.79 1.19-30.28 5.65-43.31c4.6-13.45 14.7-25.86 28.48-29.34c8.51-2.15 17.52-0.73 26 1.52c40.94 10.89 75.53 40.65 117.26 47.92c3.74 0.65 7.7 1.19 10.7 3.52c3 2.33 4.43 7.17 1.84 9.94l0.02 0z" />
				</g>
				<g id="&lt;Group&gt;" style="opacity: .3">
					<path id="&lt;Path&gt;" class="s4" d="m600.74 361.75c-14.46 61.85-21.58 125.42-21.16 188.94l-14.09 1.83c-0.54 1.19 0.54-1.19 0 0c2.92-42.36 4.22-81.15 7.14-123.51c0.87-12.66 1.77-25.48 5.72-37.54c3.95-12.06 11.33-23.49 22.39-29.71v-0.01z" />
				</g>
				<path id="&lt;Path&gt;" class="s3" d="m586.11 388.73l-23.04 266.51l-19.02 16.32l-19.62-24.67l4-97.88c2.89-50.91 6.47-82.96 10.72-96.13c4.25-13.18 13.61-35.34 28.07-66.49l18.88 2.33l0.01 0.01z" />
				<g id="&lt;Group&gt;">
					<path id="&lt;Path&gt;" class="s1" d="m563.07 655.24c-0.43-0.03 3.09-59.66 7.86-133.18c4.77-73.55 8.99-133.12 9.42-133.1c0.43 0.03-3.09 59.65-7.86 133.2c-4.77 73.52-8.99 133.11-9.42 133.08v0z" />
				</g>
				<path id="&lt;Path&gt;" class="s7" d="m748.48 369.81c14.31 7.88 24.03 21.71 29.17 41.47c7.71 29.65 33.2 145.27 35.58 163.05c2.37 17.79-1.78 42.1-9.49 48.62c-7.71 6.52-54.55 36.37-75.3 36.37c-13.83 0-34.68-4.51-62.55-13.54l9.18-46.54l34.98-8.3l27.27-26.68l-30.83-67.59c8.14-80.59 22.14-122.87 41.98-126.85l0.01-0.01z" />
				<g id="&lt;Group&gt;">
					<path id="&lt;Path&gt;" class="s1" d="m788.17 576.36c-0.22 0.17-2.08-2.47-5.95-5.82c-3.82-3.34-9.9-7.24-17.45-9.1c-7.54-1.94-14.72-0.83-19.57 0.62c-4.9 1.46-7.75 2.98-7.87 2.73c-0.05-0.09 0.61-0.56 1.88-1.27c1.27-0.71 3.18-1.63 5.65-2.51c4.87-1.76 12.39-3.12 20.29-1.09c7.86 1.93 14.09 6.15 17.82 9.8c1.89 1.82 3.23 3.47 4.07 4.66c0.84 1.2 1.21 1.91 1.13 1.97l0 0.01z" />
				</g>
				<g id="&lt;Group&gt;">
					<path id="&lt;Path&gt;" class="s1" d="m706.85 653.5c-0.22-0.18 2.24-2.92 4.96-8.08c2.72-5.11 5.47-12.9 5.53-21.77c0.07-8.88-2.56-16.7-5.21-21.86c-2.64-5.21-5.06-7.98-4.83-8.16c0.07-0.06 0.75 0.56 1.83 1.83c1.08 1.26 2.51 3.21 3.98 5.81c2.96 5.14 5.87 13.18 5.8 22.39c-0.07 9.2-3.09 17.2-6.13 22.3c-1.51 2.57-2.97 4.5-4.07 5.75c-1.1 1.25-1.78 1.86-1.85 1.8l-0.01-0.01z" />
				</g>
				<path id="&lt;Path&gt;" class="s3" d="m586.11 349.13l16.06 14.03l-16.6 26.42l-18.75-2.24l-5.38-14.02l17.52-22.79l7.15-1.4h0z" />
				<g id="&lt;Group&gt;">
					<path id="&lt;Path&gt;" class="s1" d="m778.31 541.72c-0.03 0.28-2.82-0.1-7.24 0.28c-2.21 0.17-4.81 0.66-7.62 1.46c-2.79 0.86-5.77 2.09-8.71 3.75c-5.86 3.38-10.25 7.8-13.02 11.26c-2.78 3.48-4.15 5.92-4.38 5.79c-0.14-0.07 0.88-2.71 3.5-6.45c2.61-3.71 7.03-8.43 13.13-11.95c3.05-1.73 6.17-2.96 9.09-3.78c2.94-0.76 5.66-1.14 7.95-1.17c2.28-0.05 4.14 0.08 5.39 0.33c1.26 0.22 1.94 0.39 1.92 0.5l-0.01-0.02z" />
				</g>
				<g id="&lt;Group&gt;">
					<path id="&lt;Path&gt;" class="s1" d="m740.38 373.83c0.1 0.27-2.84 1.27-7.1 3.78c-4.25 2.48-9.7 6.72-14.29 12.68c-4.56 5.98-7.25 12.34-8.55 17.09c-1.31 4.76-1.52 7.86-1.81 7.83c-0.11-0.01-0.13-0.78-0.08-2.19c0.02-1.41 0.28-3.44 0.82-5.91c1.04-4.93 3.66-11.6 8.38-17.77c4.74-6.15 10.49-10.41 14.99-12.69c2.25-1.16 4.14-1.94 5.5-2.32c1.35-0.41 2.1-0.59 2.14-0.49l0-0.01z" />
				</g>
				<g id="&lt;Group&gt;">
					<path id="&lt;Path&gt;" class="s1" d="m662.68 327.9c0.09 0.06-0.83 1.47-2.56 3.96c-1.92 2.69-4.43 6.21-7.45 10.44c-6.35 8.78-15.2 20.84-25.06 34.1c-1.1 1.48-2.19 2.95-3.22 4.32l-0.49 0.66l-0.64-0.53c-11.77-9.76-22.2-18.52-29.65-24.87c-3.55-3.06-6.48-5.6-8.75-7.55c-2.04-1.8-3.12-2.83-3.06-2.9c0.07-0.08 1.28 0.8 3.43 2.46c2.34 1.86 5.38 4.27 9.06 7.18c7.63 6.14 18.18 14.75 29.97 24.49l-1.13 0.13c1.02-1.38 2.11-2.84 3.21-4.33c9.86-13.26 18.85-25.22 25.43-33.83c3.18-4.12 5.83-7.53 7.85-10.15c1.88-2.38 2.96-3.66 3.05-3.59l0.01 0.01z" />
				</g>
				<g id="&lt;Group&gt;">
					<path id="&lt;Path&gt;" class="s1" d="m690.68 461.59c0.05-0.02 0.32 0.44 0.78 1.33c0.53 1.06 1.17 2.36 1.95 3.94c1.73 3.66 4.07 8.6 6.91 14.61c5.78 12.37 13.65 29.5 22.27 48.45c5.61 12.43 10.86 24.08 15.36 34.04l0.19 0.41l-0.3 0.32c-7.84 8.38-15.05 14.61-19.82 19.24c-2.27 2.2-4.12 3.99-5.55 5.38c-1.27 1.26-1.96 1.91-2.02 1.86c-0.05-0.05 0.54-0.8 1.71-2.15c1.18-1.34 2.96-3.27 5.3-5.66c4.63-4.81 11.72-11.2 19.38-19.59l-0.12 0.73c-4.55-9.94-9.87-21.56-15.54-33.96c-8.61-18.96-16.33-36.16-21.85-48.64c-2.66-6.09-4.84-11.1-6.46-14.82c-0.67-1.63-1.23-2.97-1.68-4.06c-0.37-0.94-0.54-1.44-0.49-1.46l-0.02 0.03z" />
				</g>
				<g id="&lt;Group&gt;">
					<path id="&lt;Path&gt;" class="s1" d="m805.72 620.75c0.04 0.03-0.38 0.57-1.22 1.58c-0.4 0.53-0.97 1.11-1.7 1.73c-0.72 0.63-1.49 1.44-2.5 2.17c-3.87 3.14-9.9 7.09-17.6 11.5c-7.7 4.42-17.06 9.32-27.62 14.41c-10.46 5.27-23.47 9.06-37.18 7.91c-5.42-0.46-10.67-1.5-15.55-3.63l0.14 0.05c-13.56-3.71-26.15-7.16-37.15-10.18l-0.59-0.16l0.12-0.59c2.59-12.76 4.75-23.4 6.3-31.06c0.77-3.59 1.39-6.47 1.86-8.64c0.45-1.99 0.72-3.04 0.79-3.02c0.07 0.01-0.07 1.09-0.4 3.1c-0.38 2.18-0.88 5.09-1.51 8.7c-1.42 7.68-3.39 18.36-5.76 31.16l-0.47-0.75c11.02 2.94 23.63 6.31 37.21 9.94l0.05 0.01l0.09 0.04c4.53 1.96 9.75 3.02 15 3.46c13.38 1.11 26.05-2.51 36.44-7.66c10.57-5.01 19.96-9.79 27.7-14.07c7.74-4.27 13.82-8.06 17.77-11.02c3.98-2.93 5.66-5.1 5.79-5l-0.01 0.02z" />
				</g>
				<g id="&lt;Group&gt;">
					<path id="&lt;Path&gt;" class="s1" d="m521.64 412.45c0.05 0.01-0.01 0.49-0.17 1.39c-0.22 1.08-0.48 2.37-0.79 3.92c-0.77 3.64-1.8 8.5-3.04 14.38c-2.53 12.15-5.85 28.97-8.69 47.68c-2.84 18.72-4.59 35.77-5.53 48.14c-0.48 6.18-0.82 11.19-1.02 14.66c-0.11 1.58-0.21 2.89-0.29 3.99c-0.08 0.91-0.15 1.39-0.21 1.39c-0.05 0-0.09-0.48-0.11-1.4c0-1.1 0-2.42 0-4c0.02-3.48 0.18-8.5 0.52-14.71c0.66-12.41 2.24-29.54 5.09-48.3c2.84-18.76 6.34-35.58 9.15-47.68c1.41-6.05 2.62-10.93 3.53-14.28c0.43-1.53 0.78-2.8 1.07-3.86c0.26-0.88 0.43-1.33 0.48-1.32h0.01z" />
				</g>
				<g id="&lt;Group&gt;">
					<path id="&lt;Path&gt;" class="s1" d="m581.81 345.53c0.18 0.13-1.53 2.85-4.43 7.16c-2.9 4.31-6.99 10.19-11.59 16.63c-2.52 3.49-4.91 6.79-7.09 9.81l-1.88 2.6l0.61-3.14c0.93-4.81 1.77-8.87 2.41-11.72c0.64-2.85 1.08-4.48 1.24-4.46c0.15 0.03 0 1.72-0.4 4.61c-0.4 2.89-1.04 6.98-1.85 11.82l-1.27-0.54c2.15-3.05 4.5-6.38 6.97-9.9c4.6-6.44 8.83-12.23 11.96-16.37c3.13-4.14 5.15-6.64 5.33-6.51l-0.01 0.01z" />
				</g>
				<g id="&lt;Group&gt;">
					<path id="&lt;Path&gt;" class="s1" d="m592.77 355.23c0.21 0.33-6.56 5.52-13.79 13.24c-7.24 7.7-13.57 13.61-13.91 13.23c-0.15-0.16 1.27-1.77 3.59-4.35c2.33-2.57 5.51-6.14 9.2-9.97c3.69-3.82 7.29-7.07 10.09-9.16c2.79-2.11 4.71-3.15 4.82-2.98l0-0.01z" />
				</g>
				<g id="&lt;Group&gt;">
					<path id="&lt;Path&gt;" class="s1" d="m475.3 506.32c-0.2 0-0.49-2.99-0.49-7.84c0-4.85 0.35-11.56 1.39-18.89c1.05-7.34 2.58-13.88 3.94-18.54c1.36-4.66 2.47-7.45 2.66-7.39c0.22 0.07-0.51 2.97-1.59 7.66c-1.08 4.7-2.42 11.21-3.46 18.48c-1.03 7.27-1.56 13.9-1.84 18.71c-0.28 4.81-0.38 7.8-0.62 7.8l0.01 0.01z" />
				</g>
				<g id="&lt;Group&gt;">
					<path id="&lt;Path&gt;" class="s1" d="m483.13 495.04c-0.41 0.02-1.24-9.17-1-20.53c0.22-11.37 1.41-20.51 1.82-20.47c0.45 0.04-0.05 9.2-0.26 20.5c-0.24 11.3-0.11 20.47-0.56 20.5v0z" />
				</g>
				<g id="&lt;Group&gt;">
					<path id="&lt;Path&gt;" class="s1" d="m406.01 395.2c0.14 0.17-2.12 2.29-5.82 5.67c-4.12 3.71-9.07 8.17-14.55 13.09c-5.72 5.08-10.97 9.6-14.86 12.76c-3.89 3.17-6.41 4.99-6.54 4.83c-0.14-0.17 2.12-2.29 5.82-5.67c4.12-3.71 9.07-8.17 14.55-13.09c5.72-5.07 10.97-9.59 14.86-12.76c3.89-3.17 6.41-4.99 6.54-4.83z" />
				</g>
			</g>
			<g id="&lt;Group&gt;">
				<path id="&lt;Path&gt;" class="s0" d="m570.29 548.64c12.88 2.58 20.72 7.03 23.52 13.35c-1.19-19.67 33.48-32.46 103.99-38.36l24.97 21.14l-124.02 42.16l-131.65-23.06c0.65-6.56 13.6-13.83 15.36-14.89c45.67-2.81 74.95-2.93 87.83-0.35l0 0.01z" />
				<g id="&lt;Group&gt;">
					<path id="&lt;Path&gt;" class="s3" d="m581.52 566c1.99 9.35 6.76 13.81 14.3 13.36c8.71-0.51 14.07-5.55 16.06-15.11l115.21-22.46l-17.03 49.14l-64.93 21.3h-161.03l-19.25-46.66l-0.31-1.82l116.98 2.25l0 0z" />
					<g id="&lt;Group&gt;">
						<path id="&lt;Path&gt;" class="s1" d="m464.54 563.75c0.44-0.02 1.12-0.02 2.02-0.02c1.43 0.01 3.45 0.03 6.06 0.05c5.43 0.07 13.3 0.17 23.37 0.3c20.42 0.31 49.72 0.76 85.53 1.31l0.47 0.01l0.12 0.48c0.82 3.2 2.31 6.47 4.61 9.05c2.31 2.59 5.76 4.12 9.36 3.75c3.61-0.29 7.15-1.83 9.74-4.57c2.6-2.68 4.44-6.27 5.38-9.99l0.11-0.45l0.43-0.08c34.57-6.77 73.66-14.42 115.19-22.55l1.33-0.26l-0.44 1.28c-2.83 8.17-5.84 16.87-8.89 25.65c-2.74 7.91-5.46 15.75-8.14 23.49l-0.13 0.37l-0.37 0.12c-22.55 7.38-44.32 14.51-64.94 21.26l-0.11 0.04h-0.12c-67-0.13-123.61-0.24-161.03-0.31h-0.29l-0.11-0.27c-11.22-27.49-17.92-44.07-18.9-46.81v-0.01c-0.17-1.12-0.26-1.73-0.26-1.83c0.04 0.14 0.16 0.75 0.36 1.82v-0.01c1.24 2.63 8.18 19.11 19.61 46.51l-0.4-0.27c37.42-0.07 94.03-0.18 161.03-0.31l-0.23 0.04c20.61-6.77 42.38-13.93 64.92-21.33l-0.49 0.48c2.68-7.74 5.4-15.58 8.14-23.49c3.05-8.79 6.06-17.48 8.89-25.65l0.88 1.02c-41.55 8.07-80.64 15.66-115.23 22.37l0.54-0.53c-1.03 4.04-2.95 7.72-5.76 10.64c-2.79 2.95-6.71 4.65-10.6 4.93c-1.95 0.08-3.98-0.04-5.77-0.87c-1.8-0.76-3.36-1.95-4.63-3.33c-2.49-2.84-4-6.2-4.87-9.65l0.59 0.48c-35.63-0.83-64.78-1.5-85.1-1.97c-10.13-0.26-18.06-0.46-23.52-0.6c-2.66-0.08-4.73-0.14-6.19-0.18c-0.94-0.03-1.66-0.07-2.16-0.1l0-0.01z" />
					</g>
				</g>
				<g id="&lt;Group&gt;">
					<path id="&lt;Path&gt;" class="s1" d="m584.78 600.37c-0.41 0.08-2.2-7.81-3.42-17.69c-1.23-9.89-1.42-17.97-1-17.99c0.44-0.03 1.32 7.97 2.55 17.8c1.21 9.83 2.31 17.81 1.87 17.88v0z" />
				</g>
				<g id="&lt;Group&gt;">
					<path id="&lt;Path&gt;" class="s1" d="m612.98 600.79c-0.45-0.02-0.45-8.1-0.89-18.04c-0.42-9.95-1.12-18-0.67-18.05c0.41-0.06 1.81 7.97 2.24 17.99c0.44 10.02-0.26 18.13-0.67 18.11l-0.01-0.01z" />
				</g>
				<g id="&lt;Group&gt;" style="opacity: .3">
					<path id="&lt;Path&gt;" class="s4" d="m565.89 607.4c-2.66-1.38-7.52-5.24-8.95-7.87c-1.43-2.63-0.64-6.66 2.23-7.5c1.6-0.47 3.29 0.15 4.82 0.78c4.17 1.7 8.28 3.54 12.33 5.51c-2.12-2.99-4.26-7.12-2.01-10.02c2.21-2.86 6.69-1.9 10.06-0.57c7.66 3 15.17 6.45 23.05 8.82c7.88 2.37 16.26 3.65 24.36 2.19c3.09-0.56 6.2-1.56 8.56-3.63c2.09-1.83 3.43-4.35 5.13-6.55c3.24-4.18 7.93-7.21 13.07-8.44c1.33-0.32 2.84-0.49 3.96 0.28c1.94 1.33 1.4 4.25 0.98 6.56c-1.32 7.4 1.19 15.38 6.51 20.68l-19.34 4.98l-84.77-5.25l0.01 0.03z" />
				</g>
				<g id="&lt;Group&gt;">
					<path id="&lt;Path&gt;" class="s6" d="m675.03 605.95c2.93 4.64 4.4 10.01 4.4 16.11c0 6.09-3.14 10.91-9.43 14.46l-53.67-6.39l-23.1-8.35l-37.96-25.73l0.98-2.11c4.31-3 11.48-1.55 21.51 4.36l-8.44-10.26c8.62-4.59 19.88-0.49 33.77 12.31l33.49 2.31c6.91 0.94 11.02 0.56 12.33-1.12c1.97-2.53-0.42-7.17 0-9.79c0.42-2.62 2.53-9.47 8.15-12.28c5.62-2.81 10.26 0 10.26 2.67c0 2.67-3.09 5.06-2.67 7.59c0.42 2.53 2.39 3.37 5.62 6.61c2.16 2.16 3.52 5.11 4.08 8.86" />
					<g id="&lt;Group&gt;">
						<path id="&lt;Path&gt;" class="s1" d="m621.9 618.98c-0.02 0.2-3.59 0.07-9.32-0.61c-2.86-0.37-6.28-0.85-10.02-1.77c-1.87-0.48-3.83-1.04-5.78-1.99c-1.91-0.97-3.72-2.18-5.52-3.49c-7.11-5.36-12.55-11.26-16.33-15.61c-3.76-4.39-5.75-7.37-5.59-7.49c0.18-0.14 2.47 2.58 6.41 6.75c3.96 4.13 9.5 9.86 16.44 15.09c1.75 1.27 3.51 2.45 5.28 3.38c1.76 0.88 3.66 1.46 5.46 1.96c3.63 0.98 7 1.57 9.82 2.07c5.66 0.95 9.19 1.47 9.16 1.7l-0.01 0.01z" />
					</g>
				</g>
			</g>
			<g id="&lt;Group&gt;">
				<path id="&lt;Path&gt;" class="s1" d="m587.24 388.65c-0.04 0.43-4.47 0.39-9.9-0.1c-5.43-0.48-9.81-1.22-9.77-1.65c0.04-0.43 4.47-0.39 9.91 0.1c5.43 0.48 9.8 1.22 9.77 1.65h-0.01z" />
			</g>
			<g id="&lt;Group&gt;">
				<g id="&lt;Group&gt;">
					<path id="&lt;Path&gt;" class="s5" d="m724.53 219.01c-0.85 4.32-2.74 8.73-6.42 11.15c-3.68 2.42-9.42 1.99-11.7-1.78c-0.07 7.35-8.95 12.07-16.14 10.53c-7.19-1.53-12.7-7.2-17.4-12.86c-0.66-0.8-1.37-1.64-2.36-1.96c-1.1-0.36-2.3 0.01-3.44-0.12c-3.37-0.36-4.84-4.43-5.15-7.8c-0.87-9.63 2.02-14.62 7.62-22.51l-0.21 1.56c0.62-6.54 3.36-12.88 7.82-17.7c5.8-6.25 14.36-9.83 22.88-9.57c5.08 0.16 10.4 1.82 13.61 5.76c3.21 3.94 3.45 10.46-0.41 13.75c4.6-3.24 12.05-0.7 13.72 4.67c1.67 5.37-3.04 11.68-8.67 11.62c5.85 1.58 7.42 9.3 6.25 15.25l0 0.01z" />
				</g>
				<path id="&lt;Path&gt;" class="s5" d="m669.88 266.19c0.65 10.21-21.37 28.01-31.39 30.07l22.21-80.34c3.98 0.17 7.21 3.69 8.24 7.55c1.03 3.85 0.3 7.94-0.68 11.81c-0.98 3.87-2.21 7.73-2.2 11.72c0.02 6.54 3.4 12.67 3.82 19.2l0-0.01z" />
				<g id="&lt;Group&gt;">
					<g id="&lt;Group&gt;">
						<g id="&lt;Group&gt;">
							<g id="&lt;Group&gt;">
								<g id="&lt;Group&gt;">
									<g id="&lt;Group&gt;">
										<path id="&lt;Path&gt;" class="s6" d="m581.79 344.86l-14.77-5.38l-0.08-15.21c-23.23-2.7-35.44-15.6-36.61-38.68c-0.85-16.73 0.21-51.32 1.52-82.61c1.42-33.62 28.43-60.5 62.06-61.79l3.34-0.13c36.12 0.72 55.68 31.8 53.96 67.89l0.7 98.47l-70.12 37.43v0.01z" />
									</g>
								</g>
								<g id="&lt;Group&gt;">
									<g id="&lt;Group&gt;">
										<g id="&lt;Group&gt;">
											<g id="&lt;Group&gt;">
												<g id="&lt;Group&gt;">
													<g id="&lt;Group&gt;">
														<path id="&lt;Path&gt;" class="s8" d="m566.89 324.26c14.64 0.63 29.53-4.23 44.67-14.57c-6.48 16.89-21.28 24.74-44.4 23.55l-0.26-8.98h-0.01z" />
													</g>
												</g>
											</g>
										</g>
									</g>
								</g>
								<g id="&lt;Group&gt;">
									<g id="&lt;Group&gt;">
										<g id="&lt;Group&gt;">
											<g id="&lt;Group&gt;">
												<g id="&lt;Group&gt;">
													<g id="&lt;Group&gt;">
														<g id="&lt;Group&gt;">
															<g id="&lt;Group&gt;">
																<g id="&lt;Group&gt;">
																	<path id="&lt;Path&gt;" class="s1" d="m545.53 224.87c2.73 0.04 4.95 2.2 4.96 4.81c0.01 2.62-2.2 4.7-4.93 4.66c-2.73-0.04-4.95-2.19-4.96-4.81c-0.01-2.62 2.2-4.7 4.93-4.66z" />
																</g>
															</g>
														</g>
													</g>
												</g>
											</g>
										</g>
									</g>
								</g>
								<g id="&lt;Group&gt;">
									<g id="&lt;Group&gt;">
										<g id="&lt;Group&gt;">
											<g id="&lt;Group&gt;">
												<g id="&lt;Group&gt;">
													<g id="&lt;Group&gt;">
														<g id="&lt;Group&gt;">
															<g id="&lt;Group&gt;">
																<g id="&lt;Group&gt;">
																	<g id="&lt;Group&gt;">
																		<path id="&lt;Path&gt;" class="s1" d="m540.56 212.27c1.56-1.31 4.3-2.64 7.61-2.78c3.32-0.14 6.22 0.95 7.94 2.12c1.75 1.17 2.42 2.31 2.14 2.61c-0.55 0.67-4.56-1.91-9.88-1.65c-5.32 0.19-8.97 3.11-9.6 2.49c-0.31-0.28 0.2-1.47 1.78-2.78l0.01-0.01z" />
																	</g>
																</g>
															</g>
														</g>
													</g>
												</g>
											</g>
										</g>
									</g>
								</g>
								<g id="&lt;Group&gt;">
									<g id="&lt;Group&gt;">
										<g id="&lt;Group&gt;">
											<g id="&lt;Group&gt;">
												<g id="&lt;Group&gt;">
													<g id="&lt;Group&gt;">
														<g id="&lt;Group&gt;">
															<g id="&lt;Group&gt;">
																<g id="&lt;Group&gt;">
																	<path id="&lt;Path&gt;" class="s1" d="m594.15 226.24c2.73 0.04 4.95 2.2 4.96 4.81c0.01 2.62-2.2 4.7-4.93 4.66c-2.73-0.04-4.95-2.19-4.96-4.81c-0.01-2.62 2.2-4.7 4.93-4.66z" />
																</g>
															</g>
														</g>
													</g>
												</g>
											</g>
										</g>
									</g>
								</g>
								<g id="&lt;Group&gt;">
									<g id="&lt;Group&gt;">
										<g id="&lt;Group&gt;">
											<g id="&lt;Group&gt;">
												<g id="&lt;Group&gt;">
													<g id="&lt;Group&gt;">
														<g id="&lt;Group&gt;">
															<g id="&lt;Group&gt;">
																<g id="&lt;Group&gt;">
																	<g id="&lt;Group&gt;">
																		<path id="&lt;Path&gt;" class="s1" d="m594.41 211.78c1.69-1.13 4.56-2.16 7.87-1.94c3.31 0.22 6.08 1.62 7.66 2.97c1.62 1.36 2.15 2.56 1.85 2.83c-0.62 0.61-4.33-2.4-9.64-2.71c-5.31-0.39-9.25 2.12-9.82 1.43c-0.28-0.31 0.36-1.43 2.08-2.57v-0.01z" />
																	</g>
																</g>
															</g>
														</g>
													</g>
												</g>
											</g>
										</g>
									</g>
								</g>
								<g id="&lt;Group&gt;">
									<g id="&lt;Group&gt;">
										<g id="&lt;Group&gt;">
											<g id="&lt;Group&gt;">
												<g id="&lt;Group&gt;">
													<g id="&lt;Group&gt;">
														<g id="&lt;Group&gt;">
															<g id="&lt;Group&gt;">
																<g id="&lt;Group&gt;">
																	<path id="&lt;Path&gt;" class="s1" d="m565.73 259.22c-0.67-0.01-1.44 0-2.32-0.23c-0.88-0.2-1.91-0.9-2.31-1.9c-0.77-2.01 0.05-3.8 0.5-5.36c1.1-3.36 2.25-6.87 3.45-10.56c5.02-14.95 9.57-26.91 10.18-26.71c0.6 0.2-2.97 12.47-7.99 27.42c-1.27 3.67-2.47 7.17-3.62 10.5c-0.6 1.61-1.11 3.09-0.75 4.06c0.26 0.92 1.56 1.14 2.93 1.23c5.39 0.48 8.72 0.92 8.7 1.23c-0.01 0.3-3.36 0.41-8.76 0.32h-0.01z" />
																</g>
															</g>
														</g>
													</g>
												</g>
											</g>
										</g>
									</g>
								</g>
								<g id="&lt;Group&gt;">
									<g id="&lt;Group&gt;">
										<g id="&lt;Group&gt;">
											<g id="&lt;Group&gt;">
												<g id="&lt;Group&gt;">
													<path id="&lt;Path&gt;" class="s5" d="m593.61 191.88c2.24-1.01 5.65-1.74 9.41-1.47c3.77 0.27 7.04 1.48 9.11 2.8c2.09 1.32 3.02 2.65 2.68 3.29c-0.78 1.33-5.89-0.31-12.17-0.69c-6.27-0.51-11.56 0.38-12.14-1.05c-0.25-0.68 0.86-1.86 3.12-2.87l-0.01-0.01z" />
												</g>
											</g>
										</g>
									</g>
								</g>
								<g id="&lt;Group&gt;">
									<g id="&lt;Group&gt;">
										<g id="&lt;Group&gt;">
											<g id="&lt;Group&gt;">
												<g id="&lt;Group&gt;">
													<path id="&lt;Path&gt;" class="s5" d="m541.07 200.56c1.49-1.3 4.07-2.49 7.1-2.71c3.03-0.21 5.75 0.62 7.4 1.7c1.68 1.08 2.31 2.27 1.96 2.9c-0.81 1.3-4.59 0.42-8.99 0.8c-4.41 0.23-8.03 1.62-9.01 0.45c-0.44-0.57 0.03-1.84 1.54-3.14z" />
												</g>
											</g>
										</g>
									</g>
								</g>
							</g>
							<g id="&lt;Group&gt;">
								<g id="&lt;Group&gt;">
									<g id="&lt;Group&gt;">
										<g id="&lt;Group&gt;">
											<g id="&lt;Group&gt;">
												<g id="&lt;Group&gt;">
													<g id="&lt;Group&gt;">
														<g id="&lt;Group&gt;">
															<g id="&lt;Group&gt;">
																<path id="&lt;Path&gt;" class="s1" d="m591.27 265.75c-0.11 2.38-1.27 5.78-4.19 8.41c-2.93 2.62-6.62 3.59-9.18 3.6c-2.6 0.03-4.08-0.67-4.02-1.04c0.01-0.81 6.2-0.4 10.98-4.7c4.79-4.29 4.58-10.07 5.45-10.05c0.39-0.05 1.09 1.36 0.97 3.78h-0.01z" />
															</g>
														</g>
													</g>
												</g>
											</g>
										</g>
									</g>
								</g>
							</g>
						</g>
						<path id="&lt;Path&gt;" class="s5" d="m670.39 227.23l-5.66 9.94l-11.55 20.29c-6.06-1-12.58-10.88-14.29-25.74c-1.93-16.74-3.5-36.17-0.46-52.74c0.18-0.96 0.35-2.01-0.14-2.86c-0.71-1.23-2.39-1.37-3.81-1.47c-12.07-0.85-23.15-9.84-26.46-21.48c-6.42 5.42-16.19 6.48-23.62 2.55c-0.54-0.29-1.09-0.6-1.7-0.66c-1.48-0.14-2.62 1.2-3.55 2.35c-4.71 5.79-11.41 9.93-18.69 11.55c-1.61 0.36-3.28 0.61-4.73 1.4c-1.66 0.91-2.86 2.44-4.13 3.85c-2.14 2.38-4.58 4.48-7.25 6.26c-1.78 1.19-3.82 2.26-5.94 2.01c-3.62-0.43-5.7-4.47-6.06-8.1c-0.88-8.98-0.09-16.14 10.59-21.03c-1.37-3.2-0.58-5.92 2.37-8.15c1.53-1.16 4.93-1 6.71-1.71c2.72-1.07 5.07-2.87 7.54-4.43c7.62-4.82 16.56-7.51 25.57-7.7c1.46-0.03 2.93 0 4.36-0.31c1.43-0.31 2.75-0.94 4.1-1.49c11.66-4.71 25.88-2.28 35.31 6.03c1.39 1.23 2.7 2.58 4.33 3.47c1.77 0.98 3.8 1.34 5.73 1.96c7.89 2.53 13.69 9.11 19.06 15.42c4.5 5.28 9.29 12.07 6.85 18.56c-0.35 0.93-0.85 1.87-0.71 2.85c0.17 1.16 1.16 1.98 2 2.8c4.8 4.69 5.74 12.84 2.13 18.5c2.96 1.1 4.44 5.07 2.91 7.84c-0.45 0.81-1.12 1.56-1.22 2.48c-0.12 1.17 0.7 2.19 1.35 3.18c2.85 4.37 2.45 10.61-0.95 14.57l0.01 0.01z" />
						<g id="&lt;Group&gt;">
							<g id="&lt;Group&gt;">
								<g id="&lt;Group&gt;">
									<path id="&lt;Path&gt;" class="s0" d="m577.74 133.22c-0.67 0.62-1.21 1.71-1.01 2.74c0.11 0.52 0.38 0.86 0.87 1.08c0.49 0.22 1.04 0.14 1.25-0.11l1.31 1.41c-0.72 0.64-1.38 1.42-1.91 2.33c-2.06 3.38-1.51 7.24-0.29 9.51c1.18 2.35 2.61 3.39 2.42 3.64c-0.09 0.2-1.93-0.45-3.63-2.94c-0.82-1.23-1.55-2.93-1.7-4.94c-0.15-2.01 0.32-4.27 1.5-6.27c0.64-1.09 1.46-2.03 2.36-2.79l1.31 1.41c-2.3 1.9-5.05-0.11-5.14-2.05c-0.19-1.91 0.89-3.28 1.87-3.96c2.05-1.29 3.46-1.09 3.49-0.94c0.11 0.27-1.27 0.61-2.7 1.9l0-0.02z" />
								</g>
							</g>
						</g>
						<g id="&lt;Group&gt;">
							<g id="&lt;Group&gt;">
								<g id="&lt;Group&gt;">
									<path id="&lt;Path&gt;" class="s0" d="m541.32 155.75c0.13 0.45 0.44 0.99 0.92 1.33c0.43 0.38 1.07 0.18 1.13-0.06l1.01-4.71l0.61 5.03c0.18 1.52 1.32 3.26 3.16 3.83c0.79 0.26 1.62 0.3 2.36 0.15l1.18-0.23l-0.02 1.14c-0.04 2.79 0.73 4.91 2.09 5.76c1.29 0.92 2.38 0.63 2.45 0.87c0.16 0.15-1.08 1.08-3.06 0.21c-0.93-0.4-1.94-1.32-2.51-2.57c-0.6-1.24-0.83-2.72-0.9-4.2l1.17 0.9c-1.07 0.25-2.26 0.22-3.38-0.15c-2.69-0.84-4.21-3.44-4.26-5.56l1.62 0.32c-1.03 1.62-2.91 1.09-3.56 0.35c-0.74-0.73-0.98-1.58-1.01-2.27c-0.01-1.46 0.95-1.92 1-1.75c0.14 0.14-0.28 0.68 0 1.62l0-0.01z" />
								</g>
							</g>
						</g>
					</g>
					<g id="&lt;Group&gt;">
						<g id="&lt;Group&gt;">
							<g id="&lt;Group&gt;">
								<g id="&lt;Group&gt;">
									<g id="&lt;Group&gt;">
										<g id="&lt;Group&gt;">
											<g id="&lt;Group&gt;">
												<g id="&lt;Group&gt;">
													<g id="&lt;Group&gt;">
														<g id="&lt;Group&gt;">
															<g id="&lt;Group&gt;">
																<g id="&lt;Group&gt;">
																	<g id="&lt;Group&gt;">
																		<g id="&lt;Group&gt;">
																			<g id="&lt;Group&gt;">
																				<g id="&lt;Group&gt;">
																					<g id="&lt;Group&gt;">
																						<g id="&lt;Group&gt;">
																							<g id="&lt;Group&gt;">
																								<g id="&lt;Group&gt;">
																									<path id="&lt;Path&gt;" class="s6" d="m649.36 234.72c0.58-0.28 23.53-7.95 23.68 15.76c0.15 23.71-23.68 18.97-23.73 18.29c-0.03-0.45-0.01-11.8 0.05-34.05l0 0z" />
																								</g>
																							</g>
																						</g>
																					</g>
																				</g>
																			</g>
																		</g>
																	</g>
																</g>
															</g>
														</g>
													</g>
												</g>
											</g>
										</g>
									</g>
								</g>
							</g>
						</g>
						<g id="&lt;Group&gt;">
							<g id="&lt;Group&gt;">
								<g id="&lt;Group&gt;">
									<g id="&lt;Group&gt;">
										<g id="&lt;Group&gt;">
											<g id="&lt;Group&gt;">
												<g id="&lt;Group&gt;">
													<g id="&lt;Group&gt;">
														<g id="&lt;Group&gt;">
															<g id="&lt;Group&gt;">
																<g id="&lt;Group&gt;">
																	<g id="&lt;Group&gt;">
																		<g id="&lt;Group&gt;">
																			<g id="&lt;Group&gt;">
																				<g id="&lt;Group&gt;">
																					<g id="&lt;Group&gt;">
																						<g id="&lt;Group&gt;">
																							<g id="&lt;Group&gt;">
																								<g id="&lt;Group&gt;">
																									<g id="&lt;Group&gt;">
																										<path id="&lt;Path&gt;" class="s8" d="m656.5 259.74c0.1-0.08 0.42 0.29 1.12 0.6c0.68 0.31 1.85 0.51 3.09 0.04c2.5-0.94 4.58-4.93 4.67-9.2c0.05-2.16-0.42-4.21-1.19-5.91c-0.74-1.73-1.86-2.93-3.13-3.15c-1.26-0.28-2.14 0.48-2.43 1.15c-0.31 0.66-0.16 1.14-0.29 1.18c-0.07 0.06-0.51-0.39-0.33-1.37c0.1-0.47 0.37-1.03 0.92-1.49c0.57-0.47 1.4-0.71 2.28-0.62c1.83 0.11 3.49 1.79 4.34 3.65c0.95 1.87 1.53 4.18 1.47 6.6c-0.12 4.78-2.54 9.27-5.96 10.28c-1.67 0.45-3.06-0.05-3.78-0.6c-0.74-0.58-0.87-1.11-0.78-1.15v-0.01z" />
																									</g>
																								</g>
																							</g>
																						</g>
																					</g>
																				</g>
																			</g>
																		</g>
																	</g>
																</g>
															</g>
														</g>
													</g>
												</g>
											</g>
										</g>
									</g>
								</g>
							</g>
						</g>
					</g>
				</g>
				<g id="&lt;Group&gt;">
					<path id="&lt;Path&gt;" class="s3" d="m670.44 190.19c0.3-0.24 1.95 1.13 3.72 4.05c1.78 2.9 3.48 7.45 3.81 12.7c0.31 5.25-0.82 9.98-2.23 13.07c-1.4 3.12-2.87 4.68-3.2 4.48c-0.83-0.42 3.01-7.7 2.31-17.36c-0.49-9.67-5.18-16.43-4.41-16.94h0z" />
				</g>
				<g id="&lt;Group&gt;">
					<path id="&lt;Path&gt;" class="s8" d="m600.96 265.19c-0.45 0.06-1-2.29-2.85-4.43c-1.8-2.19-4.01-3.13-3.88-3.57c0.04-0.42 2.92-0.03 5.07 2.56c2.18 2.57 2.08 5.47 1.66 5.43v0.01z" />
				</g>
				<g id="&lt;Group&gt;">
					<path id="&lt;Path&gt;" class="s8" d="m624.11 222.07c0.33 0.25-1.44 2.54-4.72 3.45c-3.27 0.94-5.97-0.1-5.83-0.48c0.09-0.44 2.57-0.19 5.4-1.02c2.85-0.77 4.83-2.28 5.14-1.95h0.01z" />
				</g>
				<g id="&lt;Group&gt;">
					<path id="&lt;Path&gt;" class="s8" d="m625.58 229.61c-0.25 0.37-2.19-0.56-4.7-1.15c-2.5-0.63-4.65-0.71-4.7-1.15c-0.07-0.41 2.26-1.07 5.07-0.36c2.82 0.68 4.58 2.34 4.32 2.67l0.01-0.01z" />
				</g>
				<g id="&lt;Group&gt;">
					<path id="&lt;Path&gt;" class="s8" d="m537.17 229.3c0.09 0.02 0.22 0.12 0.14 0.37c-0.09 0.26-0.43 0.46-0.72 0.52c-0.61 0.14-1.28 0.04-1.97-0.17c-1.37-0.44-2.28-1.2-2.13-1.59c0.16-0.41 1.33-0.3 2.6 0.1c0.63 0.2 1.18 0.42 1.49 0.56c0.16 0.07 0.2 0.13 0.27 0.19c0.09 0.05 0.21 0 0.32 0.02v0z" />
				</g>
				<g id="&lt;Group&gt;">
					<path id="&lt;Path&gt;" class="s1" d="m657.29 156.24c0.11 0.12-2.07 2.2-6.39 4.33c-4.27 2.13-10.85 4.09-18.25 3.69c-7.4-0.4-13.73-3.07-17.74-5.66c-4.06-2.59-5.99-4.89-5.87-5c0.17-0.2 2.36 1.78 6.44 4.05c4.04 2.28 10.18 4.66 17.26 5.05c7.08 0.39 13.44-1.31 17.71-3.13c4.3-1.81 6.69-3.54 6.84-3.32l0-0.01z" />
				</g>
				<g id="&lt;Group&gt;">
					<path id="&lt;Path&gt;" class="s1" d="m665.38 169.43c0.11 0.16-2.4 2.24-7.02 4.78c-2.3 1.24-5.22 2.63-8.72 3.29c-3.48 0.67-7.44 0.65-11.43-0.11c-8.06-1.54-14.42-5.53-18.68-8.51c-4.27-3.06-6.66-5.25-6.54-5.4c0.14-0.19 2.78 1.69 7.16 4.48c4.38 2.72 10.66 6.42 18.36 7.89c3.83 0.73 7.58 0.79 10.89 0.23c3.32-0.54 6.14-1.75 8.48-2.85c4.66-2.25 7.39-4 7.52-3.8l-0.02 0z" />
				</g>
				<g id="&lt;Group&gt;">
					<path id="&lt;Path&gt;" class="s1" d="m718.98 227.37c-0.27 0.02 0.37-2.51-1.46-5.84c-0.91-1.61-2.53-3.3-4.87-4.06c-2.3-0.78-5.29-0.65-7.71 0.88l-1.19 0.75l0.01-1.42c0.01-1.42-0.4-2.88-1.19-4.19c-1.82-2.9-4.98-4.7-7.91-5.29c-3-0.61-5.85-0.27-8.18 0.15c-4.67 0.95-7.54 1.94-7.62 1.68c-0.05-0.15 2.64-1.5 7.39-2.76c2.38-0.57 5.36-1.07 8.69-0.48c3.29 0.6 6.82 2.5 8.97 5.89c0.94 1.53 1.43 3.33 1.39 5.04l-1.18-0.67c2.92-1.79 6.35-1.84 8.98-0.85c2.69 0.98 4.44 3.03 5.31 4.86c1.75 3.83 0.65 6.42 0.57 6.31v0z" />
				</g>
			</g>
			<g id="&lt;Group&gt;" style="opacity: .3">
				<path id="&lt;Path&gt;" class="s4" d="m500.1 549.08l15.95-115.94c-18.45 35.26-24.2 77.01-15.95 115.94h0z" />
			</g>
			<g id="&lt;Group&gt;" style="opacity: .3">
				<path id="&lt;Path&gt;" class="s4" d="m796.82 572.9c0.06 1.64-0.22 3.47-1.51 4.48c-2.33 1.82-5.58-0.36-7.72-2.4c-6.64-6.31-13.94-12.37-22.71-14.99c-8.77-2.62-19.99 0.43-27.22 4.77c4.87-7.69 16.36-10.75 26.56-11.85c7.13-0.77 14.6-0.21 20.96 3.1c6.36 3.31 11.38 9.73 11.65 16.89h-0.01z" />
			</g>
		</g>
	</g>
	<g id="Triangle">
		<g id="&lt;Group&gt;">
			<g id="&lt;Group&gt;">
				<g id="&lt;Group&gt;">
					<g id="&lt;Group&gt;">
						<g id="&lt;Group&gt;">
							<path id="&lt;Compound Path&gt;" fill-rule="evenodd" class="s3" d="m1039.62 444.5v261.9h-152.36l152.36-261.9zm-26.55 221.72v-108.86l-64.47 108.86h64.47z" />
						</g>
					</g>
				</g>
			</g>
			<g id="&lt;Group&gt;">
				<g id="&lt;Group&gt;">
					<g id="&lt;Group&gt;">
						<g id="&lt;Group&gt;">
							<g id="&lt;Group&gt;">
								<path id="&lt;Path&gt;" class="s1" d="m901.9 681.25c0.27-0.43 4.44 1.68 9.32 4.71c4.88 3.03 8.63 5.83 8.36 6.26c-0.27 0.43-4.44-1.68-9.32-4.71c-4.88-3.03-8.63-5.83-8.36-6.26z" />
							</g>
						</g>
					</g>
				</g>
			</g>
			<g id="&lt;Group&gt;">
				<g id="&lt;Group&gt;">
					<g id="&lt;Group&gt;">
						<g id="&lt;Group&gt;">
							<g id="&lt;Group&gt;">
								<path id="&lt;Path&gt;" class="s1" d="m924.25 642.4c0.27-0.43 4.33 1.66 9.07 4.66c4.74 3 8.37 5.77 8.1 6.2c-0.27 0.43-4.33-1.66-9.07-4.66c-4.74-3-8.36-5.77-8.1-6.2z" />
							</g>
						</g>
					</g>
				</g>
			</g>
			<g id="&lt;Group&gt;">
				<g id="&lt;Group&gt;">
					<g id="&lt;Group&gt;">
						<g id="&lt;Group&gt;">
							<g id="&lt;Group&gt;">
								<path id="&lt;Path&gt;" class="s1" d="m946.6 603.54c0.31-0.39 4.13 2.1 8.53 5.58c4.4 3.48 7.71 6.62 7.4 7.01c-0.31 0.39-4.13-2.1-8.53-5.58c-4.4-3.48-7.71-6.62-7.4-7.01z" />
							</g>
						</g>
					</g>
				</g>
			</g>
			<g id="&lt;Group&gt;">
				<g id="&lt;Group&gt;">
					<g id="&lt;Group&gt;">
						<g id="&lt;Group&gt;">
							<g id="&lt;Group&gt;">
								<path id="&lt;Path&gt;" class="s1" d="m969.83 565.38c0.31-0.4 4.13 2.1 8.53 5.58c4.4 3.48 7.71 6.62 7.4 7.01c-0.31 0.4-4.13-2.1-8.53-5.58c-4.4-3.48-7.71-6.62-7.4-7.01z" />
							</g>
						</g>
					</g>
				</g>
			</g>
			<g id="&lt;Group&gt;">
				<g id="&lt;Group&gt;">
					<g id="&lt;Group&gt;">
						<g id="&lt;Group&gt;">
							<g id="&lt;Group&gt;">
								<path id="&lt;Path&gt;" class="s1" d="m992.67 525.49c0.28-0.41 4.36 1.88 9.11 5.14c4.75 3.25 8.37 6.22 8.08 6.64c-0.28 0.42-4.36-1.88-9.11-5.14c-4.75-3.25-8.36-6.22-8.08-6.64z" />
							</g>
						</g>
					</g>
				</g>
			</g>
			<g id="&lt;Group&gt;">
				<g id="&lt;Group&gt;">
					<g id="&lt;Group&gt;">
						<g id="&lt;Group&gt;">
							<g id="&lt;Group&gt;">
								<path id="&lt;Path&gt;" class="s1" d="m1016.72 484.06c0.28-0.42 4.16 1.64 8.67 4.6c4.52 2.96 7.95 5.7 7.68 6.12c-0.28 0.42-4.16-1.64-8.68-4.6c-4.51-2.96-7.95-5.7-7.67-6.12h0z" />
							</g>
						</g>
					</g>
				</g>
			</g>
			<g id="&lt;Group&gt;">
				<g id="&lt;Group&gt;">
					<g id="&lt;Group&gt;">
						<g id="&lt;Group&gt;">
							<g id="&lt;Group&gt;">
								<path id="&lt;Path&gt;" class="s1" d="m908.95 669.13c0.27-0.43 2.45 0.45 4.88 1.96c2.43 1.51 4.19 3.08 3.92 3.51c-0.27 0.43-2.45-0.45-4.88-1.96c-2.43-1.51-4.18-3.08-3.92-3.5v-0.01z" />
							</g>
						</g>
					</g>
				</g>
			</g>
			<g id="&lt;Group&gt;">
				<g id="&lt;Group&gt;">
					<g id="&lt;Group&gt;">
						<g id="&lt;Group&gt;">
							<g id="&lt;Group&gt;">
								<path id="&lt;Path&gt;" class="s1" d="m916.05 656.39c0.27-0.43 2.45 0.45 4.88 1.96c2.43 1.51 4.19 3.08 3.92 3.5c-0.27 0.43-2.45-0.45-4.88-1.96c-2.43-1.51-4.19-3.08-3.92-3.51v0.01z" />
							</g>
						</g>
					</g>
				</g>
			</g>
			<g id="&lt;Group&gt;">
				<g id="&lt;Group&gt;">
					<g id="&lt;Group&gt;">
						<g id="&lt;Group&gt;">
							<g id="&lt;Group&gt;">
								<path id="&lt;Path&gt;" class="s1" d="m932.71 628.06c0.27-0.43 2.45 0.45 4.88 1.96c2.43 1.51 4.19 3.08 3.92 3.51c-0.27 0.43-2.45-0.45-4.88-1.96c-2.43-1.51-4.18-3.08-3.92-3.5v-0.01z" />
							</g>
						</g>
					</g>
				</g>
			</g>
			<g id="&lt;Group&gt;">
				<g id="&lt;Group&gt;">
					<g id="&lt;Group&gt;">
						<g id="&lt;Group&gt;">
							<g id="&lt;Group&gt;">
								<path id="&lt;Path&gt;" class="s1" d="m939.81 615.32c0.27-0.43 2.45 0.45 4.88 1.96c2.43 1.51 4.19 3.08 3.92 3.51c-0.27 0.43-2.45-0.45-4.88-1.96c-2.43-1.51-4.19-3.08-3.92-3.51z" />
							</g>
						</g>
					</g>
				</g>
			</g>
			<g id="&lt;Group&gt;">
				<g id="&lt;Group&gt;">
					<g id="&lt;Group&gt;">
						<g id="&lt;Group&gt;">
							<g id="&lt;Group&gt;">
								<path id="&lt;Path&gt;" class="s1" d="m955.68 589.72c0.27-0.43 2.45 0.45 4.88 1.96c2.43 1.51 4.19 3.08 3.92 3.51c-0.27 0.43-2.45-0.45-4.88-1.96c-2.43-1.51-4.18-3.08-3.92-3.51z" />
							</g>
						</g>
					</g>
				</g>
			</g>
			<g id="&lt;Group&gt;">
				<g id="&lt;Group&gt;">
					<g id="&lt;Group&gt;">
						<g id="&lt;Group&gt;">
							<g id="&lt;Group&gt;">
								<path id="&lt;Path&gt;" class="s1" d="m962.78 577.57c0.27-0.43 2.45 0.45 4.88 1.96c2.43 1.51 4.19 3.08 3.92 3.51c-0.27 0.43-2.45-0.45-4.88-1.96c-2.43-1.51-4.19-3.08-3.92-3.5v-0.01z" />
							</g>
						</g>
					</g>
				</g>
			</g>
			<g id="&lt;Group&gt;">
				<g id="&lt;Group&gt;">
					<g id="&lt;Group&gt;">
						<g id="&lt;Group&gt;">
							<g id="&lt;Group&gt;">
								<path id="&lt;Path&gt;" class="s1" d="m977.92 551.35c0.27-0.43 2.45 0.45 4.88 1.96c2.43 1.51 4.19 3.08 3.92 3.51c-0.27 0.43-2.45-0.45-4.88-1.96c-2.43-1.51-4.18-3.08-3.92-3.5v-0.01z" />
							</g>
						</g>
					</g>
				</g>
			</g>
			<g id="&lt;Group&gt;">
				<g id="&lt;Group&gt;">
					<g id="&lt;Group&gt;">
						<g id="&lt;Group&gt;">
							<g id="&lt;Group&gt;">
								<path id="&lt;Path&gt;" class="s1" d="m986.22 537.27c0.27-0.43 2.45 0.45 4.88 1.96c2.43 1.51 4.19 3.08 3.92 3.5c-0.27 0.43-2.45-0.45-4.88-1.96c-2.43-1.51-4.19-3.08-3.92-3.5z" />
							</g>
						</g>
					</g>
				</g>
			</g>
			<g id="&lt;Group&gt;">
				<g id="&lt;Group&gt;">
					<g id="&lt;Group&gt;">
						<g id="&lt;Group&gt;">
							<g id="&lt;Group&gt;">
								<path id="&lt;Path&gt;" class="s1" d="m1001.05 511.94c0.27-0.43 2.45 0.45 4.88 1.96c2.43 1.51 4.19 3.08 3.92 3.51c-0.27 0.43-2.45-0.45-4.88-1.96c-2.43-1.51-4.18-3.08-3.92-3.5v-0.01z" />
							</g>
						</g>
					</g>
				</g>
			</g>
			<g id="&lt;Group&gt;">
				<g id="&lt;Group&gt;">
					<g id="&lt;Group&gt;">
						<g id="&lt;Group&gt;">
							<g id="&lt;Group&gt;">
								<path id="&lt;Path&gt;" class="s1" d="m1009.43 497.32c0.27-0.43 2.45 0.45 4.88 1.96c2.43 1.51 4.19 3.08 3.92 3.51c-0.27 0.43-2.45-0.45-4.88-1.96c-2.43-1.51-4.18-3.08-3.92-3.5v-0.01z" />
							</g>
						</g>
					</g>
				</g>
			</g>
		</g>
	</g>
</svg>