<svg width="100" height="62" viewBox="0 0 100 62" fill="none" xmlns="http://www.w3.org/2000/svg">
<g clip-path="url(#clip0_60_11947)">
<path d="M0.409988 17.83C-0.430012 12.97 1.25999 7.60001 5.12999 4.56001C9.00999 1.52001 15.04 1.29001 18.8 4.48001C21.44 6.73001 22.68 10.16 24.25 13.25C25.82 16.34 28.21 19.46 31.63 20C34.59 20.46 37.56 18.84 40.53 19.23C43.42 19.61 45.85 21.98 46.68 24.77C47.51 27.57 46.89 30.68 45.4 33.19C43.9 35.7 41.6 37.65 39.09 39.13C30.99 43.89 20.24 43.74 12.29 38.75C4.32999 33.75 -0.480012 24.14 0.289988 14.78" fill="white"/>
<g opacity="0.7">
<g opacity="0.7">
<path opacity="0.7" d="M0.509994 18.13C-0.330006 13.27 1.35999 7.9 5.22999 4.86C9.10999 1.82 15.14 1.58999 18.9 4.77999C21.54 7.02999 22.78 10.46 24.35 13.55C25.92 16.64 28.31 19.76 31.73 20.3C34.69 20.76 37.66 19.14 40.63 19.53C43.52 19.91 45.95 22.28 46.78 25.07C47.61 27.87 46.99 30.98 45.5 33.49C44 36 41.7 37.95 39.19 39.43C31.09 44.19 20.34 44.04 12.39 39.05C4.42999 34.05 -0.380006 24.44 0.389994 15.08" fill="#7B7EB7"/>
</g>
</g>
<path d="M96.0299 51.79C93.3299 55.02 89.6299 57.33 85.66 58.74C79.6 60.88 72.57 60.89 67.01 57.67C62.03 54.79 57.38 50.06 58.98 43.42C59.48 41.62 60.56 39.98 62.04 38.85C63.98 37.36 66.58 36.75 68.98 37.23C70.82 37.6 72.72 38.55 74.46 37.85C75.79 37.31 76.57 35.95 77.31 34.72C78.66 32.47 80.29 30.3 82.53 28.94C86.13 26.75 90.9899 27.07 94.4799 29.43C97.9699 31.78 100.06 35.96 100.22 40.17C100.39 44.38 98.7399 48.56 96.0299 51.79Z" fill="white"/>
<g opacity="0.7">
<g opacity="0.7">
<path opacity="0.7" d="M96.0299 51.79C93.3299 55.02 89.6299 57.33 85.66 58.74C79.6 60.88 72.57 60.89 67.01 57.67C62.03 54.79 57.38 50.06 58.98 43.42C59.48 41.62 60.56 39.98 62.04 38.85C63.98 37.36 66.58 36.75 68.98 37.23C70.82 37.6 72.72 38.55 74.46 37.85C75.79 37.31 76.57 35.95 77.31 34.72C78.66 32.47 80.29 30.3 82.53 28.94C86.13 26.75 90.9899 27.07 94.4799 29.43C97.9699 31.78 100.06 35.96 100.22 40.17C100.39 44.38 98.7399 48.56 96.0299 51.79Z" fill="#7B7EB7"/>
</g>
</g>
<path d="M86.3599 18.49C84.6799 19.59 82.6499 20.21 80.6499 20.06C78.6499 19.92 76.6799 18.97 75.44 17.39C73.47 14.89 73.6299 11.09 75.3999 8.44C77.1699 5.78 80.2699 4.21 83.4299 3.75C86.8099 3.42 90.0499 6.44 90.5599 9.8C91.0799 13.16 89.1999 16.63 86.3599 18.49Z" fill="#FDFDFD"/>
<g opacity="0.7">
<g opacity="0.7">
<path opacity="0.7" d="M86.3599 18.49C84.6799 19.59 82.6499 20.21 80.6499 20.06C78.6499 19.92 76.6799 18.97 75.44 17.39C73.47 14.89 73.6299 11.09 75.3999 8.44C77.1699 5.78 80.2699 4.21 83.4299 3.75C86.8099 3.42 90.0499 6.44 90.5599 9.8C91.0799 13.16 89.1999 16.63 86.3599 18.49Z" fill="#7B7EB7"/>
</g>
</g>
<path d="M103.23 51.27C102.83 51.27 102.43 51.22 102.05 51.1C98.24 49.97 98.44 47.22 98.6 45.02C98.75 42.97 98.75 41.67 97.06 41.04C94.82 40.2 93.9 41.01 92.5 42.25C90.83 43.72 88.77 45.55 83.75 44.81C81.14 44.42 76.95 43.05 71.8 38.69C68.75 36.1 66.82 33.71 66.74 33.61L67.51 32.99C67.59 33.09 75.27 42.55 83.89 43.82C88.45 44.5 90.25 42.91 91.84 41.5C93.26 40.24 94.61 39.05 97.41 40.11C99.89 41.04 99.73 43.19 99.59 45.09C99.43 47.32 99.3 49.24 102.33 50.15C105.75 51.17 110.25 45.75 112.94 42.52C113.9 41.36 114.56 40.53 115.1 40.09L115.85 40.69C115.52 41.1 114.59 42.09 113.7 43.15C110.97 46.45 106.96 51.27 103.23 51.27Z" fill="#E8505B"/>
<path d="M67.62 33.83C67.19 34.3 66.47 34.34 66 33.91L64.24 32.32L65.79 30.62L67.54 32.21C68.01 32.64 68.05 33.36 67.62 33.83Z" fill="#E8505B"/>
<path d="M67.62 33.83C67.61 33.83 67.69 33.75 67.78 33.57C67.87 33.39 67.95 33.08 67.84 32.73C67.78 32.56 67.68 32.38 67.52 32.24C67.3533 32.0933 67.1766 31.9333 66.99 31.76C66.61 31.42 66.2 31.05 65.76 30.65H65.82C65.58 30.92 65.32 31.21 65.05 31.5C64.78 31.79 64.52 32.08 64.28 32.35L64.27 32.28C64.71 32.68 65.13 33.06 65.5 33.4C65.6867 33.5733 65.86 33.7367 66.02 33.89C66.18 34.03 66.36 34.12 66.54 34.16C66.9 34.23 67.2 34.12 67.37 34.02C67.54 33.92 67.61 33.83 67.62 33.83C67.58 33.8967 67.5033 33.97 67.39 34.05C67.22 34.16 66.91 34.29 66.53 34.22C66.34 34.18 66.14 34.09 65.97 33.94C65.8033 33.7933 65.6267 33.6367 65.44 33.47C65.07 33.13 64.65 32.75 64.21 32.35L64.17 32.32L64.21 32.28C64.45 32.01 64.71 31.73 64.98 31.43C65.24 31.14 65.5 30.86 65.75 30.58L65.78 30.55L65.82 30.58C66.26 30.98 66.67 31.36 67.04 31.7C67.2266 31.8733 67.4033 32.0333 67.57 32.18C67.73 32.34 67.84 32.53 67.9 32.71C68.01 33.09 67.91 33.4 67.81 33.58C67.7433 33.7 67.68 33.7833 67.62 33.83Z" fill="#263238"/>
<path d="M58.75 24.2301L55.72 21.72C55.48 21.53 55.45 21.17 55.65 20.94C55.84 20.7 56.19 20.67 56.43 20.86L59.46 23.3701L58.75 24.2301Z" fill="#E8505B"/>
<path d="M55.9001 27.88L52.88 25.38C52.64 25.18 52.6 24.83 52.8 24.59C53 24.36 53.35 24.32 53.59 24.52L56.6101 27.02L55.9001 27.88Z" fill="#E8505B"/>
<g opacity="0.6">
<path opacity="0.6" d="M58.75 24.2301L55.72 21.72C55.48 21.53 55.45 21.17 55.65 20.94C55.84 20.7 56.19 20.67 56.43 20.86L59.46 23.3701L58.75 24.2301Z" fill="white"/>
</g>
<g opacity="0.6">
<path opacity="0.6" d="M55.9001 27.88L52.88 25.38C52.64 25.18 52.6 24.83 52.8 24.59C53 24.36 53.35 24.32 53.59 24.52L56.6101 27.02L55.9001 27.88Z" fill="white"/>
</g>
<path d="M58.75 24.23C58.75 24.2234 58.7634 24.2 58.79 24.16C58.83 24.1134 58.8767 24.0534 58.93 23.98C59.0567 23.8267 59.2267 23.6167 59.44 23.35V23.39C59.06 23.08 58.58 22.68 58.02 22.23C57.74 22.0034 57.4434 21.76 57.13 21.5C56.97 21.3733 56.81 21.2433 56.65 21.11C56.57 21.0433 56.4867 20.9733 56.4 20.9C56.33 20.84 56.24 20.8 56.14 20.79C55.97 20.77 55.8 20.83 55.69 20.96C55.58 21.09 55.54 21.26 55.58 21.42C55.6 21.49 55.64 21.57 55.69 21.62C55.74 21.68 55.81 21.73 55.87 21.79C55.9967 21.8967 56.1234 22 56.25 22.1C56.73 22.51 57.17 22.88 57.54 23.19C57.91 23.5 58.2 23.75 58.42 23.94C58.52 24.02 58.6 24.09 58.66 24.15C58.72 24.1967 58.75 24.2234 58.75 24.23C58.75 24.23 58.72 24.21 58.66 24.17C58.6 24.1167 58.52 24.0534 58.42 23.98C58.2 23.8 57.9 23.56 57.53 23.26C57.15 22.95 56.7 22.58 56.2 22.18C56.0734 22.0734 55.9434 21.9667 55.81 21.86C55.75 21.81 55.68 21.76 55.62 21.69C55.56 21.62 55.51 21.53 55.49 21.44C55.44 21.26 55.49 21.05 55.62 20.9C55.74 20.75 55.95 20.66 56.15 20.69C56.27 20.7 56.38 20.75 56.47 20.83C56.55 20.8967 56.63 20.9633 56.71 21.03C56.8767 21.1633 57.0367 21.2967 57.19 21.43C57.5034 21.6833 57.7967 21.9267 58.07 22.16C58.62 22.63 59.1 23.03 59.48 23.34L59.5 23.36L59.48 23.38C59.2534 23.6467 59.0734 23.86 58.94 24.02C58.88 24.08 58.8334 24.1334 58.8 24.18C58.7667 24.2134 58.75 24.23 58.75 24.23Z" fill="#263238"/>
<path d="M55.9 27.88C55.9 27.88 55.9167 27.86 55.95 27.82C55.9834 27.7733 56.03 27.7133 56.09 27.64C56.21 27.48 56.3767 27.2667 56.59 27L56.6 27.05C56.22 26.74 55.73 26.34 55.17 25.89C54.89 25.6567 54.5934 25.4133 54.28 25.16C54.1267 25.0267 53.97 24.8933 53.81 24.76C53.7233 24.6934 53.64 24.6267 53.56 24.56C53.48 24.5 53.39 24.46 53.29 24.44C53.12 24.42 52.95 24.49 52.84 24.62C52.74 24.74 52.7 24.92 52.74 25.07C52.76 25.15 52.79 25.22 52.84 25.28C52.89 25.34 52.96 25.39 53.03 25.44C53.1567 25.5467 53.28 25.6533 53.4 25.76C53.89 26.17 54.33 26.53 54.7 26.85C55.06 27.16 55.36 27.41 55.58 27.6C55.6734 27.68 55.7534 27.7466 55.82 27.8C55.8734 27.8533 55.9 27.88 55.9 27.88C55.9 27.8866 55.8734 27.8666 55.82 27.82C55.7534 27.7733 55.6734 27.71 55.58 27.63C55.36 27.46 55.05 27.21 54.68 26.92C54.3 26.61 53.85 26.24 53.35 25.83C53.23 25.73 53.1033 25.6267 52.97 25.52C52.91 25.46 52.84 25.42 52.77 25.34C52.71 25.27 52.67 25.19 52.64 25.1C52.59 24.91 52.64 24.7 52.77 24.55C52.9 24.4 53.1 24.32 53.3 24.35C53.42 24.36 53.53 24.41 53.62 24.48C53.7067 24.5534 53.79 24.6234 53.87 24.69C54.03 24.8233 54.1867 24.9533 54.34 25.08C54.6534 25.34 54.95 25.5867 55.23 25.82C55.78 26.28 56.26 26.68 56.63 27L56.66 27.02L56.64 27.04C56.4134 27.3067 56.23 27.5166 56.09 27.67C56.0367 27.7366 55.99 27.79 55.95 27.83C55.9167 27.87 55.9 27.8866 55.9 27.88Z" fill="#263238"/>
<path d="M65.95 31.59L65.22 32.5C64.18 33.8 62.29 34.04 60.96 33.03C60.58 33.47 59.92 33.53 59.47 33.16C59.05 32.81 58.96 32.2 59.25 31.75L54.72 28.15L59.79 22.08L64.22 25.77C64.61 25.47 65.17 25.46 65.56 25.79C66.02 26.17 66.08 26.84 65.71 27.3L65.63 27.39C66.81 28.48 66.97 30.32 65.95 31.59Z" fill="#E8505B"/>
<path d="M65.63 27.39C65.63 27.39 65.6434 27.4034 65.67 27.43C65.6967 27.45 65.73 27.4834 65.77 27.53C65.8167 27.57 65.87 27.6267 65.93 27.7C65.9634 27.74 65.9967 27.78 66.03 27.82C66.0634 27.8667 66.0967 27.9167 66.13 27.97C66.27 28.18 66.42 28.45 66.52 28.8C66.62 29.15 66.69 29.58 66.63 30.04C66.57 30.5 66.41 31.01 66.08 31.47C65.92 31.7 65.73 31.92 65.54 32.16C65.36 32.39 65.17 32.64 64.93 32.86C64.46 33.31 63.8 33.62 63.08 33.68C62.36 33.75 61.57 33.5501 60.93 33.07L60.99 33.06C60.82 33.27 60.55 33.4101 60.26 33.4401C59.98 33.4701 59.67 33.3901 59.44 33.1901C59.24 33.0301 59.1 32.79 59.05 32.52C59.01 32.26 59.06 31.96 59.21 31.73L59.22 31.79C58.11 30.91 56.93 29.97 55.71 29C55.37 28.7267 55.03 28.4567 54.69 28.19L54.65 28.16L54.68 28.12C56.53 25.91 58.25 23.85 59.76 22.06L59.78 22.02L59.82 22.05C61.58 23.53 63.09 24.79 64.24 25.75H64.2C64.41 25.59 64.67 25.51 64.9 25.52C65.14 25.52 65.35 25.61 65.52 25.73C65.86 25.97 65.97 26.34 65.97 26.62C65.96 26.91 65.85 27.11 65.77 27.22C65.7234 27.28 65.69 27.3234 65.67 27.35C65.6434 27.3767 65.63 27.39 65.63 27.39C65.62 27.39 65.68 27.33 65.76 27.22C65.84 27.1 65.94 26.9 65.94 26.62C65.94 26.35 65.82 25.99 65.49 25.76C65.33 25.65 65.13 25.57 64.9 25.57C64.68 25.57 64.43 25.64 64.24 25.8L64.22 25.81L64.2 25.8C63.04 24.84 61.53 23.58 59.76 22.12L59.82 22.11C58.32 23.91 56.6 25.97 54.76 28.18L54.75 28.11C55.09 28.3767 55.43 28.65 55.77 28.93C56.99 29.89 58.17 30.84 59.28 31.72L59.32 31.74L59.29 31.78C59.15 32 59.1 32.26 59.15 32.51C59.19 32.75 59.32 32.97 59.5 33.12C59.71 33.3 59.99 33.38 60.26 33.35C60.52 33.33 60.76 33.19 60.93 33L60.95 32.97L60.99 33C61.6 33.47 62.37 33.66 63.07 33.6C63.78 33.54 64.42 33.24 64.88 32.81C65.12 32.6 65.3 32.34 65.49 32.11C65.67 31.88 65.87 31.66 66.03 31.43C66.36 30.99 66.51 30.49 66.58 30.03C66.64 29.58 66.58 29.16 66.48 28.82C66.39 28.47 66.24 28.19 66.11 27.99C66.0767 27.9367 66.0434 27.8867 66.01 27.84C65.9767 27.7934 65.9467 27.7534 65.92 27.72C65.86 27.64 65.8067 27.5767 65.76 27.53C65.72 27.49 65.6867 27.4567 65.66 27.43C65.64 27.4034 65.63 27.39 65.63 27.39Z" fill="#263238"/>
<path d="M60.05 28.13L56.92 25.54L57.43 24.93L60.55 27.52L60.05 28.13Z" fill="#E0E0E0"/>
<path d="M65.6301 27.39C65.6301 27.4 65.5701 27.48 65.4601 27.63C65.3501 27.78 65.1801 27.99 64.9701 28.25C64.56 28.77 63.97 29.48 63.32 30.26C62.67 31.03 62.08 31.73 61.64 32.25C61.44 32.49 61.27 32.7 61.13 32.85C61.01 32.99 60.94 33.07 60.94 33.06C60.93 33.06 60.99 32.98 61.1 32.83C61.22 32.68 61.38 32.47 61.59 32.21C62 31.68 62.59 30.97 63.24 30.2C63.89 29.43 64.48 28.73 64.9201 28.21C65.1301 27.96 65.3001 27.76 65.4301 27.6C65.5501 27.46 65.6201 27.39 65.6301 27.39Z" fill="#263238"/>
<path d="M64.22 25.77C64.23 25.78 64.16 25.87 64.04 26.02C63.92 26.18 63.74 26.4 63.52 26.68C63.07 27.22 62.44 27.97 61.74 28.79C61.04 29.6 60.41 30.34 59.94 30.89C59.72 31.15 59.53 31.36 59.39 31.52C59.26 31.67 59.19 31.75 59.18 31.75C59.18 31.74 59.24 31.65 59.36 31.5C59.49 31.34 59.66 31.12 59.89 30.84C60.34 30.3 60.96 29.55 61.66 28.73C62.36 27.92 62.99 27.18 63.46 26.63C63.68 26.37 63.87 26.16 64.01 26C64.14 25.85 64.22 25.77 64.22 25.77Z" fill="#263238"/>
<path fill-rule="evenodd" clip-rule="evenodd" d="M17.36 41.39C16.4867 41.39 15.6233 41.2966 14.77 41.11C13.01 40.72 11.62 40.15 10.56 39.37C9.40999 39.77 8.04999 40.07 6.47 40.11C1.94 40.23 -2.17 38.81 -7.2 34.74C-7.46 34.2 -7.70667 33.6267 -7.94 33.02C-3.09 36.94 2.16 39.23 6.44999 39.11C7.65999 39.08 8.74999 38.88 9.68999 38.6C8.51999 37.38 7.92999 35.79 7.93999 33.85C7.93999 31.73 8.84999 30.77 9.59999 30.34C10.67 29.72 12.14 29.81 13.42 30.56C14.84 31.38 15.68 32.78 15.67 34.29C15.67 35.51 15.07 36.71 14.06 37.49C13.53 37.9 12.73 38.43 11.68 38.92C12.56 39.44 13.66 39.84 14.98 40.13C16.49 40.46 18.04 40.47 19.59 40.17C23.86 39.32 27.42 37.81 30.17 35.67C32.37 33.97 34.06 31.88 35.22 29.44C37.18 25.28 36.88 21.56 36.88 21.52V21.5C36.63 16.57 33.75 11.76 29.54 9.22998C25.89 7.03999 21.21 6.43999 16.37 7.53999C13.36 8.22999 9.25999 9.84999 6.84999 13.69C4.24999 17.84 4.94999 22.98 7.09999 25.37C8.62999 27.08 11.56 26.46 13.92 25.97C14.18 25.91 14.4367 25.8566 14.69 25.81C17.23 25.3 27.51 20.48 27.55 20.47L27.77 21.29C27.6 21.34 17.49 26.27 14.89 26.78C14.6367 26.8333 14.38 26.8867 14.12 26.94C11.51 27.49 8.26999 28.17 6.34999 26.04C4.96999 24.49 4.2 22.26 4.19 19.76C4.17 17.43 4.83999 15.02 5.99999 13.16C8.59999 9.02999 12.95 7.29999 16.15 6.56999C21.24 5.40999 26.18 6.04999 30.05 8.37998C34.54 11.07 37.61 16.19 37.87 21.44C37.89 21.71 38.16 25.54 36.12 29.86C34.9 32.44 33.1 34.66 30.78 36.46C27.9 38.69 24.2 40.27 19.79 41.14C18.9767 41.3067 18.1667 41.39 17.36 41.39ZM11.21 30.92C10.81 30.92 10.42 31.02 10.1 31.2C9.33999 31.64 8.93999 32.55 8.92999 33.86C8.92999 35.72 9.50999 37.17 10.74 38.24C11.96 37.75 12.87 37.14 13.45 36.7C14.21 36.11 14.67 35.2 14.68 34.29C14.68 33.13 14.03 32.06 12.92 31.42C12.36 31.09 11.76 30.92 11.21 30.92Z" fill="#E8505B"/>
<path d="M11.37 39.88C11.36 39.9 11.21 39.84 10.99 39.7C10.77 39.57 10.48 39.36 10.18 39.11C9.88 38.85 9.63 38.61 9.46 38.41C9.29 38.21 9.22 38.07 9.23 38.06C9.24 38.05 9.33 38.18 9.51 38.36C9.69 38.54 9.95 38.78 10.24 39.03C10.54 39.28 10.82 39.5 11.03 39.64C11.24 39.79 11.37 39.87 11.37 39.88Z" fill="#263238"/>
<path d="M12.41 39.3C12.41 39.31 12.23 39.29 11.96 39.19C11.7 39.08 11.35 38.89 11 38.61C10.66 38.34 10.39 38.04 10.22 37.81C10.05 37.58 9.96999 37.43 9.97999 37.42C9.98999 37.41 10.09 37.56 10.28 37.77C10.46 37.98 10.73 38.26 11.07 38.53C11.4 38.8 11.74 39.01 11.99 39.12C12.25 39.24 12.42 39.28 12.41 39.3Z" fill="#263238"/>
<path d="M8.42 35.85C8.41 35.86 8.39 35.8 8.36 35.69C8.32 35.59 8.28 35.43 8.24 35.23C8.16 34.84 8.1 34.29 8.15 33.67C8.19 33.06 8.32 32.52 8.46 32.14C8.52999 31.96 8.58999 31.81 8.63999 31.71C8.68999 31.61 8.71999 31.55 8.71999 31.55C8.73999 31.56 8.63999 31.79 8.53 32.17C8.41 32.54 8.29 33.08 8.24 33.68C8.2 34.28 8.25 34.83 8.31 35.22C8.37 35.61 8.44 35.85 8.42 35.85Z" fill="white"/>
<path d="M5.92999 39.43C5.92999 39.45 5.74999 39.49 5.44999 39.52C5.14999 39.55 4.72999 39.55 4.26999 39.48C3.80999 39.42 3.40999 39.3 3.12999 39.19C2.84999 39.08 2.67999 38.98 2.68999 38.97C2.68999 38.96 2.86999 39.03 3.14999 39.12C3.43999 39.22 3.82999 39.32 4.27999 39.39C4.73999 39.45 5.14999 39.46 5.44999 39.45C5.74999 39.44 5.92999 39.42 5.92999 39.43Z" fill="white"/>
<path d="M33.51 32.81C33.52 32.81 33.41 32.98 33.21 33.24C33.02 33.5 32.73 33.85 32.39 34.2C32.04 34.55 31.7 34.85 31.45 35.05C31.2 35.25 31.03 35.36 31.02 35.35C31.01 35.34 31.16 35.21 31.41 35C31.65 34.78 31.97 34.48 32.32 34.13C32.66 33.78 32.95 33.44 33.16 33.2C33.37 32.95 33.49 32.8 33.51 32.81Z" fill="white"/>
<path d="M4.98 22.62C4.97 22.62 4.94 22.52 4.88 22.35C4.82 22.18 4.74 21.92 4.67 21.61C4.59 21.29 4.52 20.9 4.47 20.47C4.42 20.04 4.4 19.57 4.41 19.07C4.42 18.57 4.48 18.09 4.54 17.66C4.62 17.24 4.71 16.86 4.8 16.54C4.89 16.23 4.98 15.98 5.05 15.81C5.12 15.64 5.16 15.55 5.17 15.55C5.17 15.55 5.14 15.65 5.09 15.82C5.03 15.99 4.95 16.25 4.87 16.56C4.78 16.87 4.7 17.25 4.63 17.68C4.57 18.1 4.52 18.57 4.51 19.07C4.5 19.56 4.52 20.04 4.56 20.46C4.61 20.89 4.67 21.27 4.74 21.59C4.8 21.91 4.86 22.17 4.91 22.34C4.96 22.52 4.99 22.62 4.98 22.62Z" fill="white"/>
<path d="M6.18999 13.64C6.20999 13.65 6.09999 13.89 5.94999 14.17C5.78999 14.46 5.63999 14.67 5.61999 14.66C5.58999 14.65 5.69999 14.41 5.85999 14.13C6.01999 13.84 6.16999 13.63 6.18999 13.64Z" fill="white"/>
<path d="M41.19 22.66C40.82 22.73 40.46 22.49 40.39 22.12L40.35 21.92L37.09 22.72C36.29 22.92 35.49 22.7 34.91 22.21V22.22L32.66 22.78C31.89 22.97 31.11 22.5 30.92 21.73L30.77 21.1L28.6 21.64C27.99 21.79 27.38 21.42 27.24 20.81C27.09 20.21 27.46 19.6 28.06 19.46L30.23 18.92L30.03 18.11C29.84 17.34 30.31 16.57 31.08 16.38L33.3 15.83C33.57 15.09 34.19 14.5 35.02 14.3L38.69 13.39L38.61 12.98C38.54 12.61 38.78 12.25 39.15 12.18C39.53 12.1 39.89 12.35 39.96 12.72L41.74 21.86C41.81 22.23 41.57 22.59 41.19 22.66Z" fill="#E8505B"/>
<path d="M41.74 21.86C41.7467 21.8933 41.75 21.9433 41.75 22.01C41.75 22.11 41.73 22.27 41.6 22.43C41.47 22.59 41.22 22.73 40.92 22.67C40.78 22.64 40.63 22.56 40.52 22.43C40.46 22.36 40.42 22.28 40.39 22.2C40.36 22.11 40.35 22.02 40.33 21.93L40.36 21.94C39.69 22.11 38.89 22.31 37.96 22.54C37.7267 22.6 37.4867 22.66 37.24 22.72C37 22.78 36.73 22.84 36.46 22.83C35.92 22.82 35.34 22.62 34.89 22.24L34.95 22.2C34.95 22.2066 34.95 22.21 34.95 22.21L34.96 22.25L34.92 22.26C34.16 22.45 33.36 22.66 32.5 22.85C32.06 22.91 31.57 22.75 31.25 22.41C31.08 22.24 30.96 22.03 30.9 21.8C30.83 21.57 30.78 21.34 30.72 21.11L30.78 21.15C30.18 21.2966 29.57 21.4466 28.95 21.6C28.79 21.63 28.64 21.68 28.47 21.71C28.3 21.73 28.13 21.71 27.97 21.66C27.64 21.56 27.36 21.3 27.24 20.97C27.11 20.65 27.14 20.26 27.32 19.95C27.49 19.64 27.83 19.43 28.17 19.38C28.8434 19.2133 29.5267 19.0433 30.22 18.87L30.18 18.93C30.14 18.7633 30.1 18.5933 30.06 18.42C30.02 18.24 29.96 18.07 29.95 17.87C29.92 17.49 30.04 17.11 30.28 16.82C30.4 16.68 30.55 16.56 30.71 16.47C30.88 16.38 31.06 16.33 31.23 16.29C31.93 16.1167 32.6167 15.9467 33.29 15.78L33.25 15.81C33.45 15.29 33.82 14.84 34.29 14.55C34.52 14.41 34.78 14.31 35.04 14.25C35.2933 14.1833 35.5467 14.12 35.8 14.06C36.8 13.81 37.76 13.58 38.68 13.35L38.65 13.4C38.63 13.2933 38.61 13.1867 38.59 13.08C38.57 12.97 38.55 12.85 38.57 12.74C38.6 12.51 38.75 12.31 38.95 12.2C39.15 12.1 39.4 12.09 39.6 12.19C39.8 12.28 39.94 12.47 39.99 12.68C40.1433 13.48 40.29 14.2333 40.43 14.94C40.7 16.36 40.94 17.6 41.13 18.63C41.33 19.65 41.48 20.46 41.59 21.01C41.6367 21.2833 41.6733 21.4933 41.7 21.64C41.7133 21.7066 41.7233 21.76 41.73 21.8C41.7367 21.84 41.74 21.86 41.74 21.86C41.7333 21.86 41.7267 21.84 41.72 21.8C41.7133 21.76 41.7033 21.7066 41.69 21.64C41.6567 21.4933 41.6133 21.2833 41.56 21.01C41.45 20.46 41.29 19.66 41.08 18.64C40.88 17.62 40.64 16.38 40.36 14.96C40.22 14.2467 40.07 13.4933 39.91 12.7C39.87 12.51 39.74 12.35 39.56 12.27C39.38 12.18 39.17 12.19 38.99 12.28C38.81 12.37 38.68 12.55 38.65 12.75C38.63 12.85 38.65 12.95 38.67 13.06C38.69 13.1667 38.7133 13.2767 38.74 13.39V13.43L38.7 13.44C37.79 13.66 36.82 13.9 35.82 14.15C35.32 14.29 34.78 14.35 34.34 14.63C33.89 14.91 33.53 15.34 33.34 15.85L33.33 15.87L33.31 15.88C32.6367 16.0467 31.9534 16.2133 31.26 16.38C31.08 16.43 30.91 16.47 30.76 16.55C30.61 16.64 30.47 16.75 30.36 16.88C30.13 17.15 30.02 17.51 30.04 17.87C30.05 18.04 30.11 18.22 30.15 18.4C30.1967 18.5733 30.24 18.7433 30.28 18.91L30.29 18.96L30.24 18.97C29.5534 19.1367 28.8734 19.3033 28.2 19.47C27.86 19.53 27.57 19.72 27.4 20C27.23 20.28 27.21 20.64 27.33 20.94C27.44 21.24 27.69 21.47 28 21.57C28.14 21.62 28.3 21.63 28.46 21.61C28.61 21.59 28.77 21.54 28.93 21.51C29.55 21.3566 30.16 21.2066 30.76 21.06L30.8 21.05L30.81 21.09C30.87 21.32 30.92 21.55 30.98 21.78C31.04 21.99 31.16 22.19 31.31 22.35C31.62 22.67 32.07 22.82 32.49 22.77C33.33 22.58 34.15 22.37 34.9 22.19L34.88 22.23C34.88 22.2233 34.8767 22.22 34.87 22.22L34.85 22.1L34.93 22.18C35.38 22.56 35.93 22.75 36.46 22.76C36.73 22.77 36.98 22.72 37.23 22.66C37.4767 22.6 37.7167 22.54 37.95 22.48C38.87 22.26 39.68 22.06 40.35 21.9L40.37 21.89V21.92C40.39 22.01 40.41 22.1 40.43 22.18C40.45 22.27 40.5 22.34 40.55 22.41C40.65 22.53 40.79 22.61 40.93 22.64C41.21 22.7 41.46 22.57 41.58 22.42C41.71 22.27 41.74 22.11 41.74 22.01C41.75 21.91 41.73 21.86 41.74 21.86Z" fill="#263238"/>
<path d="M40.43 21.9C40.41 21.91 39.98 20.01 39.48 17.67C38.97 15.32 38.59 13.42 38.61 13.41C38.64 13.4 39.07 15.3 39.57 17.65C40.07 19.99 40.46 21.9 40.43 21.9Z" fill="#263238"/>
<path d="M34.91 22.21C34.88 22.21 34.5 20.79 34.06 19.03C33.61 17.26 33.28 15.83 33.3 15.82C33.33 15.81 33.71 17.24 34.15 19C34.6 20.76 34.94 22.2 34.91 22.21Z" fill="#263238"/>
<path d="M30.77 21.1C30.74 21.11 30.59 20.63 30.45 20.02C30.31 19.42 30.21 18.93 30.23 18.92C30.26 18.91 30.41 19.4 30.55 20C30.68 20.61 30.79 21.1 30.77 21.1Z" fill="#263238"/>
<path d="M32.74 16.36C32.74 16.37 32.53 16.4 32.18 16.48C32.01 16.51 31.81 16.56 31.58 16.62C31.36 16.68 31.12 16.76 30.89 16.89C30.66 17.02 30.46 17.19 30.4 17.4C30.34 17.62 30.37 17.83 30.39 18C30.44 18.35 30.49 18.56 30.48 18.56C30.47 18.57 30.39 18.36 30.32 18.01C30.3 17.84 30.25 17.62 30.32 17.38C30.35 17.26 30.42 17.14 30.52 17.05C30.61 16.95 30.72 16.88 30.84 16.81C31.08 16.67 31.33 16.59 31.56 16.53C31.79 16.47 31.99 16.44 32.17 16.41C32.52 16.35 32.74 16.34 32.74 16.36Z" fill="white"/>
<path d="M38 13.93C38 13.94 37.94 13.96 37.81 13.99C37.69 14.02 37.51 14.06 37.29 14.11C36.82 14.21 36.22 14.33 35.56 14.47C35.22 14.55 34.91 14.65 34.65 14.79C34.39 14.93 34.19 15.11 34.05 15.28C33.78 15.64 33.78 15.94 33.76 15.93C33.75 15.93 33.74 15.86 33.77 15.73C33.8 15.61 33.86 15.43 34 15.24C34.13 15.05 34.34 14.86 34.61 14.71C34.87 14.56 35.2 14.46 35.53 14.38C36.21 14.23 36.83 14.12 37.28 14.04C37.5 14 37.68 13.97 37.81 13.95C37.93 13.93 38 13.93 38 13.93Z" fill="white"/>
<path d="M29.85 19.42C29.85 19.43 29.71 19.51 29.46 19.57C29.21 19.64 28.86 19.67 28.49 19.75C28.3 19.79 28.13 19.85 27.98 19.92C27.84 20 27.72 20.09 27.64 20.18C27.47 20.37 27.44 20.53 27.42 20.52C27.42 20.52 27.42 20.35 27.59 20.14C27.67 20.04 27.79 19.93 27.94 19.84C28.09 19.76 28.27 19.69 28.46 19.65C28.85 19.57 29.2 19.55 29.45 19.5C29.7 19.46 29.84 19.41 29.85 19.42Z" fill="white"/>
<path d="M39.8 10.58C39.8 10.59 39.72 10.59 39.62 10.62C39.51 10.65 39.37 10.71 39.27 10.83C39.16 10.96 39.12 11.11 39.11 11.22C39.1 11.32 39.11 11.4 39.1 11.4C39.08 11.4 39.05 11.34 39.04 11.21C39.03 11.09 39.07 10.92 39.19 10.77C39.32 10.63 39.49 10.56 39.61 10.55C39.73 10.54 39.8 10.56 39.8 10.58Z" fill="white"/>
<path d="M68.24 4.92999C68.24 4.92999 68.2267 4.93666 68.2 4.94999C68.1667 4.96999 68.13 4.98999 68.09 5.00999C67.9767 5.06999 67.8267 5.14666 67.64 5.23999C67.25 5.44999 66.69 5.72999 66 6.07999C64.6 6.78999 62.67 7.75999 60.5 8.84999L60.46 8.86999L60.44 8.83999C60.29 8.61999 60.12 8.38999 59.96 8.15999C59.72 7.82999 59.49 7.49999 59.28 7.18999L59.34 7.20999C57.31 8.37999 55.51 9.41999 54.21 10.17C53.57 10.54 53.05 10.83 52.68 11.04C52.5067 11.14 52.37 11.2167 52.27 11.27C52.2233 11.2967 52.1867 11.3167 52.16 11.33C52.1333 11.3433 52.12 11.35 52.12 11.35C52.12 11.3433 52.13 11.3333 52.15 11.32C52.1767 11.3 52.2133 11.2767 52.26 11.25C52.36 11.19 52.4933 11.11 52.66 11.01C53.03 10.79 53.54 10.49 54.18 10.11C55.47 9.34999 57.27 8.30999 59.29 7.11999L59.33 7.09999L59.35 7.13999C59.57 7.43999 59.8 7.76999 60.04 8.09999C60.2 8.33999 60.37 8.56999 60.52 8.77999L60.46 8.76999C62.63 7.67999 64.57 6.71999 65.97 6.01999C66.67 5.67999 67.23 5.40999 67.63 5.20999C67.8167 5.12333 67.9667 5.05333 68.08 4.99999C68.1267 4.97333 68.1633 4.95333 68.19 4.93999C68.2167 4.93333 68.2333 4.92999 68.24 4.92999Z" fill="#263238"/>
<path d="M66.78 12.15C66.78 12.1567 66.7433 12.1667 66.67 12.18C66.59 12.2 66.4833 12.2233 66.35 12.25C66.07 12.31 65.67 12.39 65.18 12.49C64.18 12.68 62.8 12.95 61.26 13.25L61.21 13.26L61.2 13.21C61.18 13.06 61.15 12.89 61.12 12.73C61.1 12.62 61.08 12.51 61.06 12.41L61.12 12.45C59.53 12.72 58.12 13.05 57.11 13.32C56.6 13.45 56.2 13.56 55.92 13.64C55.7867 13.68 55.68 13.71 55.6 13.73C55.52 13.75 55.48 13.76 55.48 13.76C55.48 13.7533 55.5167 13.7367 55.59 13.71C55.67 13.6833 55.7767 13.65 55.91 13.61C56.18 13.52 56.59 13.39 57.09 13.25C58.09 12.97 59.51 12.62 61.1 12.35L61.15 12.34L61.16 12.39C61.17 12.49 61.19 12.6 61.21 12.71C61.24 12.88 61.27 13.04 61.3 13.19L61.24 13.15C62.79 12.87 64.16 12.61 65.17 12.42C65.66 12.34 66.06 12.27 66.35 12.22C66.4767 12.1933 66.5833 12.1733 66.67 12.16C66.7433 12.1533 66.78 12.15 66.78 12.15Z" fill="#263238"/>
<path d="M53.37 5.21C53.39 5.22 52.89 6.32 52.23 7.67C51.58 9.01 51.03 10.09 51.01 10.08C50.98 10.07 51.49 8.97 52.14 7.62C52.8 6.28 53.35 5.2 53.37 5.21Z" fill="#263238"/>
<path d="M59.34 10.6C59.35 10.63 58.08 11.02 56.52 11.48C54.95 11.94 53.67 12.29 53.66 12.26C53.65 12.23 54.92 11.84 56.49 11.38C58.06 10.93 59.33 10.58 59.34 10.6Z" fill="#263238"/>
<path d="M49.55 1.76999C49.56 1.76999 49.59 1.83999 49.64 1.96999C49.6867 2.11666 49.7533 2.31332 49.84 2.55999C50.01 3.06999 50.25 3.77999 50.53 4.61999L50.55 4.67999H50.48C50 4.66999 49.48 4.65999 48.92 4.64999L48.97 4.58999C49.01 4.78999 49.05 4.99999 49.09 5.20999C49.34 6.61999 49.57 7.89999 49.75 8.83999C49.82 9.28999 49.89 9.65999 49.93 9.93999C49.95 10.06 49.9667 10.16 49.98 10.24C49.9867 10.3067 49.99 10.34 49.99 10.34C49.9833 10.34 49.9733 10.3067 49.96 10.24C49.9467 10.16 49.9267 10.06 49.9 9.93999C49.84 9.66998 49.77 9.29999 49.68 8.84999C49.5 7.90999 49.26 6.63999 48.99 5.22999C48.95 5.01999 48.91 4.80999 48.88 4.60999L48.86 4.54999H48.92C49.48 4.56999 50.01 4.57999 50.49 4.58999L50.44 4.64999C50.18 3.80999 49.95 3.08999 49.79 2.56999C49.7167 2.32999 49.6567 2.13332 49.61 1.97999C49.57 1.83999 49.55 1.76999 49.55 1.76999Z" fill="#263238"/>
<path d="M42.65 16.84C42.64 16.81 43.65 16.31 44.91 15.72C46.18 15.13 47.21 14.67 47.22 14.69C47.23 14.72 46.22 15.22 44.96 15.81C43.69 16.4 42.66 16.86 42.65 16.84Z" fill="#263238"/>
<path d="M47.36 18.29C47.34 18.27 47.73 17.77 48.23 17.17C48.73 16.57 49.15 16.1 49.17 16.12C49.19 16.14 48.8 16.64 48.3 17.24C47.81 17.83 47.38 18.31 47.36 18.29Z" fill="#263238"/>
<path d="M49.91 25.16C49.88 25.15 50.05 23.21 50.29 20.81C50.53 18.41 50.75 16.46 50.78 16.47C50.81 16.47 50.63 18.42 50.39 20.82C50.15 23.22 49.93 25.16 49.91 25.16Z" fill="#263238"/>
<path d="M46.44 7.92C46.46 7.91 46.67 8.27999 46.9 8.73999C47.13 9.20999 47.3 9.58999 47.27 9.59999C47.25 9.61999 47.04 9.24999 46.81 8.78999C46.58 8.31999 46.41 7.94 46.44 7.92Z" fill="#263238"/>
</g>
<defs>
<clipPath id="clip0_60_11947">
<rect width="100" height="62" fill="white"/>
</clipPath>
</defs>
</svg>
