<svg width="100" height="100" viewBox="0 0 100 100" fill="none" xmlns="http://www.w3.org/2000/svg">
<path d="M83.8399 48.5933C102.64 59.4467 102.64 77.04 83.8399 87.8933C65.0466 98.74 34.5733 98.74 15.78 87.8933C-3.02 77.04 -3.02 59.4467 15.78 48.5933C34.5733 37.7467 65.0466 37.74 83.8399 48.5933Z" fill="#FAFAFA"/>
<path d="M13.4934 78.0667L5.58668 73.5C5.14001 73.24 5.14001 72.8267 5.58668 72.5667L51.5734 46.02C52.02 45.76 52.74 45.76 53.1867 46.02L61.0934 50.58C61.54 50.84 61.54 51.2534 61.0934 51.5134L15.1067 78.0667C14.66 78.32 13.94 78.32 13.4934 78.0667Z" fill="#E0E0E0"/>
<path d="M36.84 69.9266L30.84 66.4733C30.4666 66.26 30.16 65.7333 30.16 65.3V56.9199L42.0333 50.0599V58.4399C42.0333 58.8733 42.34 59.3999 42.7133 59.6133L49.76 63.5866C49.76 63.8666 49.76 64.1822 49.76 64.5333C49.76 65.0666 49.4067 65.5933 48.7067 66L41.9133 69.9266C40.5133 70.74 38.24 70.74 36.84 69.9266Z" fill="#263238"/>
<path d="M33.0133 66.7866V67.7266L30.84 66.4733C30.4666 66.2599 30.16 65.7333 30.16 65.2999V56.92L32.42 55.6133C32.4667 56.1933 32.52 56.7866 32.5667 57.36L30.98 58.28V64.8266C30.98 65.2599 31.28 65.7866 31.66 65.9999L33.0133 66.7866Z" fill="black"/>
<path d="M30.98 58.28L42.8533 51.42V57.9666C42.8533 58.4 43.1533 58.9266 43.5267 59.14L48.7133 62.1266C50.1133 62.9333 50.1133 64.2466 48.7133 65.0533L41.9133 68.9866C40.5133 69.7933 38.24 69.7933 36.84 68.9866L31.66 65.9999C31.2867 65.7866 30.98 65.2599 30.98 64.8266V58.28Z" fill="#37474F"/>
<path d="M33.0133 66.78L31.66 66C31.2867 65.7866 30.98 65.26 30.98 64.8267V58.28L42.8533 51.42V57.9667C42.8533 58.4 43.1533 58.9266 43.5267 59.14L44.9067 59.9333V59.94L33.0133 66.78Z" fill="#263238"/>
<path d="M49.76 63.5866C49.76 63.8666 49.76 64.1822 49.76 64.5333C49.76 65.0666 49.4067 65.5933 48.7133 66L41.9133 69.9266C41.24 70.32 40.3667 70.5133 39.4933 70.5266V69.5866C40.3667 69.5733 41.24 69.3733 41.9133 68.9866L48.7133 65.0533C49.4067 64.6533 49.76 64.12 49.76 63.5866Z" fill="#455A64"/>
<path d="M11.1267 71.5334V34.2734C11.1267 33.7334 11.5067 33.08 11.9733 32.8067L57.88 6.29999C58.3533 6.03332 59.0867 6.01999 59.52 6.27332C59.96 6.51999 60.3133 7.16666 60.3133 7.70666V44.9667C60.3133 45.5067 59.94 46.16 59.4733 46.4334C53.6333 49.8 19.3933 69.5667 13.56 72.9401C13.0933 73.2067 12.36 73.2201 11.92 72.9667C11.48 72.7134 11.1267 72.0734 11.1267 71.5334Z" fill="#455A64"/>
<path d="M12.7133 72.4467V35.1867C12.7133 34.6467 13.0933 33.9933 13.56 33.72L59.4734 7.21332C59.94 6.94665 60.3134 7.16665 60.3134 7.70665V44.9667C60.3134 45.5067 59.94 46.16 59.4734 46.4333L13.56 72.9333C13.0933 73.2067 12.7133 72.9867 12.7133 72.4467Z" fill="#27DEBF"/>
<path d="M12.7133 72.4467V35.1867C12.7133 34.6467 13.0933 33.9933 13.56 33.72L59.4734 7.21332C59.94 6.94665 60.3134 7.16665 60.3134 7.70665V44.9667C60.3134 45.5067 59.94 46.16 59.4734 46.4333L13.56 72.9333C13.0933 73.2067 12.7133 72.9867 12.7133 72.4467Z" fill="#37474F"/>
<path d="M13.4334 73.9C12.9667 74.1067 12.32 74.1 11.92 73.8733C11.48 73.62 11.1267 72.9733 11.1267 72.4333V69.0533L12.7134 69.9667V73.3534C12.7134 73.84 13.0267 74.0667 13.4334 73.9Z" fill="#263238"/>
<path d="M60.3134 42.48V45.8667C60.3134 46.4067 59.94 47.06 59.4734 47.3333L13.56 73.84C13.0933 74.1067 12.7133 73.8867 12.7133 73.3467V69.9667L60.3134 42.48Z" fill="#37474F"/>
<path opacity="0.2" d="M60.3134 42.48V45.8667C60.3134 46.4067 59.94 47.06 59.4734 47.3333L13.56 73.84C13.0933 74.1067 12.7133 73.8867 12.7133 73.3467V69.96L60.3134 42.48Z" fill="black"/>
<path d="M14.3 65.7267V35.7133C14.3 35.3867 14.5267 34.9933 14.8067 34.8333L58.22 9.76665C58.5 9.60665 58.7267 9.73998 58.7267 10.06V40.0733C58.7267 40.4 58.5 40.7933 58.22 40.9534L14.8067 66.02C14.5267 66.18 14.3 66.0534 14.3 65.7267Z" fill="#27DEBF"/>
<path opacity="0.3" d="M14.3 65.7267V35.7133C14.3 35.3867 14.5267 34.9933 14.8067 34.8333L58.22 9.76665C58.5 9.60665 58.7267 9.73998 58.7267 10.06V40.0733C58.7267 40.4 58.5 40.7933 58.22 40.9534L14.8067 66.02C14.5267 66.18 14.3 66.0534 14.3 65.7267Z" fill="black"/>
<path d="M37.3067 57.76C37.3067 58.2667 36.9533 58.8801 36.5133 59.1334C36.0733 59.3867 35.72 59.1801 35.72 58.6734C35.72 58.1667 36.0733 57.5533 36.5133 57.3C36.9533 57.0466 37.3067 57.2533 37.3067 57.76Z" fill="#455A64"/>
<path d="M12.96 34.3533C12.8067 34.6133 12.7133 34.9133 12.7133 35.1867V69.9667L11.1267 69.0534V34.2733C11.1267 34 11.2267 33.7 11.3733 33.4333L12.96 34.3533Z" fill="#263238"/>
<path d="M67.4466 7.94666C67.56 7.99999 67.6266 8.13999 67.6266 8.33332V39.3267C67.6266 39.7067 67.36 40.16 67.0333 40.3533L21.28 66.7867C21.1533 66.86 21.0333 66.86 20.9333 66.8067C20.7867 66.7267 20.2733 66.4333 20.18 66.38C20.0267 66.3 19.9267 66.0933 19.9267 65.8667V35.0133C19.9267 34.6333 20.1933 34.18 20.52 33.9867L66.28 7.55999C66.4466 7.45999 66.6 7.45999 66.7066 7.52666C66.82 7.59332 67.34 7.88666 67.4466 7.94666Z" fill="#27DEBF"/>
<path d="M21.08 66.7466C20.92 66.7466 20.7867 66.54 20.7867 66.2933V35.4466C20.7867 35.1066 21.0333 34.6733 21.3267 34.5066L67.0867 8.07999C67.16 8.03332 67.2333 8.00665 67.3 8.00665C67.44 8.00665 67.5267 8.13332 67.5267 8.33332V39.3266C67.5267 39.6666 67.28 40.0933 66.9867 40.2666L21.2267 66.7C21.1778 66.7311 21.1289 66.7466 21.08 66.7466Z" fill="#FAFAFA"/>
<path fill-rule="evenodd" clip-rule="evenodd" d="M67.6267 8.33331V39.3267C67.6267 39.7067 67.36 40.16 67.0333 40.3533L21.28 66.7867C21.2067 66.8267 21.1467 66.8467 21.08 66.8467C20.8533 66.8467 20.6867 66.5933 20.6867 66.2933V35.4467C20.6867 35.0667 20.9533 34.6067 21.28 34.42L67.0333 7.99331C67.1267 7.93331 67.22 7.90665 67.3 7.90665C67.4933 7.90665 67.6267 8.06665 67.6267 8.33331ZM67.1333 8.16665L21.38 34.5933C21.1133 34.7467 20.8867 35.1333 20.8867 35.4467V66.2933C20.8867 66.48 20.98 66.6467 21.08 66.6467C21.1111 66.6467 21.1445 66.6356 21.18 66.6133L66.9333 40.18C67.2 40.0267 67.4267 39.6333 67.4267 39.3267V8.33331C67.4267 8.24665 67.4133 8.10665 67.3 8.10665C67.2667 8.10665 67.2133 8.11998 67.1333 8.16665Z" fill="#E0E0E0"/>
<path d="M19.9267 65.8666V36.94L20.6867 37.38V66.2933C20.6956 66.5289 20.7689 66.6955 20.9067 66.7933C20.7 66.6733 20.24 66.4133 20.1733 66.38C20.0267 66.3 19.9267 66.0933 19.9267 65.8666Z" fill="#F0F0F0"/>
<path d="M67.6267 10.2733L20.6867 37.38V35.4467C20.6867 35.0667 20.9533 34.6067 21.28 34.42L67.0333 7.99333C67.36 7.8 67.6267 7.95333 67.6267 8.32666V10.2733Z" fill="#27DEBF"/>
<g opacity="0.4">
<path opacity="0.4" d="M67.0334 7.99332L21.28 34.42C21.1133 34.5133 20.9667 34.6733 20.86 34.86L20.1067 34.42C20.2133 34.24 20.36 34.08 20.52 33.9867L66.28 7.55999C66.4467 7.45999 66.6 7.45999 66.7067 7.52666C66.8134 7.59332 67.3067 7.87332 67.4334 7.93999C67.3267 7.88666 67.1867 7.89999 67.0334 7.99332Z" fill="white"/>
</g>
<path opacity="0.1" d="M19.9267 36.94V35.0133C19.9267 34.82 20 34.6066 20.1067 34.42L20.86 34.8533C20.7533 35.04 20.6867 35.2533 20.6867 35.4467V37.38L19.9267 36.94Z" fill="black"/>
<path d="M67.6267 10.2733V13.7733L20.6867 40.8733V37.38L67.6267 10.2733Z" fill="#EBEBEB"/>
<path d="M22.64 37.12L25.6733 35.38V37.12L22.64 38.8733V37.12Z" fill="#E0E0E0"/>
<path d="M27.9401 34.06V34.7533L26.4267 35.6266V34.94L27.9401 34.06Z" fill="#E0E0E0"/>
<path d="M27.9401 35.1266V35.8133L26.4267 36.6866V36L27.9401 35.1266Z" fill="#E0E0E0"/>
<path d="M30.2134 32.7533V33.44L28.7 34.3133V33.6266L30.2134 32.7533Z" fill="#E0E0E0"/>
<path d="M30.2134 33.8133V34.5L28.7 35.3733V34.6866L30.2134 33.8133Z" fill="#E0E0E0"/>
<path d="M32.48 31.4399V32.1266L30.9667 32.9999V32.3133L32.48 31.4399Z" fill="#E0E0E0"/>
<path d="M32.48 32.5V33.1866L30.9667 34.0666V33.3733L32.48 32.5Z" fill="#E0E0E0"/>
<path d="M39.2934 27.5067V28.1933L37.78 29.0667V28.38L39.2934 27.5067Z" fill="#E0E0E0"/>
<path d="M39.2934 28.5667V29.2533L37.78 30.1333V29.44L39.2934 28.5667Z" fill="#E0E0E0"/>
<path d="M41.5667 26.1933V26.88L40.0533 27.76V27.0666L41.5667 26.1933Z" fill="#E0E0E0"/>
<path d="M41.5667 27.26V27.9466L40.0533 28.82V28.1333L41.5667 27.26Z" fill="#E0E0E0"/>
<path d="M43.84 24.88V25.5733L42.3267 26.4466V25.76L43.84 24.88Z" fill="#E0E0E0"/>
<path d="M43.84 25.9467V26.6333L42.3267 27.5067V26.82L43.84 25.9467Z" fill="#E0E0E0"/>
<path d="M33.24 31.0066L37.0267 28.82V30.5666L33.24 32.7533V31.0066Z" fill="#E0E0E0"/>
<path d="M44.6 24.4466L47.6334 22.7V24.44L44.5934 26.1933L44.6 24.4466Z" fill="#E0E0E0"/>
<path d="M49.9 21.3867V22.0733L48.38 22.9467V22.26L49.9 21.3867Z" fill="#E0E0E0"/>
<path d="M49.9 22.4467V23.1333L48.38 24.0133V23.32L49.9 22.4467Z" fill="#E0E0E0"/>
<path d="M52.1667 20.0733V20.76L50.6533 21.64V20.9466L52.1667 20.0733Z" fill="#E0E0E0"/>
<path d="M52.1667 21.14V21.8267L50.6533 22.7V22.0133L52.1667 21.14Z" fill="#E0E0E0"/>
<path d="M54.44 18.76V19.4533L52.9267 20.3266V19.64L54.44 18.76Z" fill="#E0E0E0"/>
<path d="M54.44 19.8267V20.5133L52.9267 21.3867V20.7L54.44 19.8267Z" fill="#E0E0E0"/>
<path d="M61.2534 14.8266V15.52L59.74 16.3933V15.7L61.2534 14.8266Z" fill="#E0E0E0"/>
<path d="M61.2534 15.8933V16.58L59.74 17.4533V16.7666L61.2534 15.8933Z" fill="#E0E0E0"/>
<path d="M63.5266 13.52V14.2066L62.0134 15.08V14.3933L63.5266 13.52Z" fill="#E0E0E0"/>
<path d="M63.5266 14.58V15.2666L62.0134 16.14V15.4533L63.5266 14.58Z" fill="#E0E0E0"/>
<path d="M65.8001 12.2066V12.8933L64.28 13.7666V13.08L65.8001 12.2066Z" fill="#E0E0E0"/>
<path d="M65.8001 13.2666V13.9533L64.28 14.8266V14.14L65.8001 13.2666Z" fill="#E0E0E0"/>
<path d="M55.2 18.3266L58.98 16.14V17.8866L55.2 20.0733V18.3266Z" fill="#E0E0E0"/>
<path d="M20.6867 40.8733L19.9267 40.44V36.94L20.6867 37.38V40.8733Z" fill="#E0E0E0"/>
<path d="M55.8334 15.3333L65.0334 10.02C65.2134 9.91998 65.3534 10.0067 65.3534 10.2067V10.34C65.3534 10.5467 65.2134 10.7933 65.0334 10.9L55.8334 16.2067C55.66 16.3133 55.5134 16.2267 55.5134 16.02V15.8933C55.5134 15.6867 55.66 15.4333 55.8334 15.3333Z" fill="#F5F5F5"/>
<path d="M65.0333 10.9L63.84 11.5867V10.7133L65.0333 10.02C65.2134 9.91998 65.3534 10.0067 65.3534 10.2067V10.34C65.3534 10.5467 65.2134 10.7933 65.0333 10.9Z" fill="#455A64"/>
<path d="M21.44 41.3067L66.8733 15.0867V16.8267L25.2267 40.8733V63.6067L21.44 65.7867V41.3067Z" fill="#F0F0F0"/>
<path d="M25.2267 40.8733L29.0067 38.6867V40.4333L25.2267 42.62V40.8733Z" fill="#27DEBF"/>
<path d="M25.2267 54.8599L29.0067 52.6733V54.4199L25.2267 56.6066V54.8599Z" fill="#27DEBF"/>
<path d="M25.2267 56.6067L29.0067 54.4267V56.1667L25.2267 58.3533V56.6067Z" fill="#27DEBF"/>
<path opacity="0.8" d="M25.2267 56.6067L29.0067 54.4267V56.1667L25.2267 58.3533V56.6067Z" fill="white"/>
<path d="M47.94 41.7467L51.72 39.56V41.3067L47.94 43.4933V41.7467Z" fill="#27DEBF"/>
<path opacity="0.3" d="M47.94 41.7467L51.72 39.56V41.3067L47.94 43.4933V41.7467Z" fill="black"/>
<path d="M47.94 43.4934L51.72 41.3134V43.0534L47.94 45.24V43.4934Z" fill="#27DEBF"/>
<path opacity="0.4" d="M47.94 43.4934L51.72 41.3134V43.0534L47.94 45.24V43.4934Z" fill="black"/>
<path d="M47.94 45.24L51.72 43.06V44.8067L47.94 46.9934V45.24Z" fill="#27DEBF"/>
<path opacity="0.5" d="M47.94 45.24L51.72 43.06V44.8067L47.94 46.9934V45.24Z" fill="black"/>
<path d="M47.94 46.9933L51.72 44.8067V46.5533L47.94 48.74V46.9933Z" fill="#27DEBF"/>
<path opacity="0.3" d="M47.94 46.9933L51.72 44.8067V46.5533L47.94 48.74V46.9933Z" fill="black"/>
<path d="M44.1534 29.94L47.94 27.76V36.5L44.1534 38.6867V29.94Z" fill="#27DEBF"/>
<path d="M44.1534 40.4333L47.94 38.2534V50.4933L44.1534 52.68V40.4333Z" fill="#27DEBF"/>
<path d="M29.0067 49.18L32.7933 46.9933V48.74L29.0067 50.9267V49.18Z" fill="#27DEBF"/>
<path opacity="0.3" d="M29.0067 49.18L32.7933 46.9933V48.74L29.0067 50.9267V49.18Z" fill="black"/>
<path d="M36.5867 36.06L40.3667 33.88V35.6267L36.5867 37.8133V36.06Z" fill="#27DEBF"/>
<path opacity="0.6" d="M36.5867 36.06L40.3667 33.88V35.6267L36.5867 37.8133V36.06Z" fill="white"/>
<path d="M55.5133 35.6266L59.3 33.44V35.1866L55.5133 37.3733V35.6266Z" fill="#27DEBF"/>
<path opacity="0.8" d="M55.5133 35.6266L59.3 33.44V35.1866L55.5133 37.3733V35.6266Z" fill="white"/>
<path d="M55.5133 39.1266L59.3 36.94V38.6866L55.5133 40.8733V39.1266Z" fill="#27DEBF"/>
<path fill-rule="evenodd" clip-rule="evenodd" d="M66.9667 14.92V39.6133L66.92 39.64L21.3467 65.9533V41.2533L21.3933 41.2267L66.9667 14.92ZM66.78 36.2333L63.1867 38.3133V39.8467L66.78 37.7667V36.2333ZM21.54 44.6467L25.14 42.5733V41.04L21.54 43.1133V44.6467ZM40.4667 42.68V44.2133L44.0667 42.1333V40.6L40.4667 42.68ZM44.0667 40.3867V38.8533L40.4667 40.9333V42.4667L44.0667 40.3867ZM44.2533 42.0267L47.8533 39.9533V38.4133L44.2533 40.4933V42.0267ZM47.8533 38.2V36.6667L44.2533 38.7467V40.28L47.8533 38.2ZM47.8533 36.4467V34.9133L44.2533 36.9933V38.5267L47.8533 36.4467ZM47.8533 34.7V33.1667L44.2533 35.24V36.78L47.8533 34.7ZM44.0733 35.3467L40.4733 37.4267V38.96L44.0733 36.88V35.3467ZM40.4733 39.1733V40.7133L44.0733 38.6333V37.1L40.4733 39.1733ZM40.2867 39.28L36.6867 41.36V42.8933L40.2867 40.8133V39.28ZM36.6867 43.1067V44.64L40.2867 42.56V41.0267L36.6867 43.1067ZM36.6867 44.86V46.3933L40.2867 44.3133V42.78L36.6867 44.86ZM36.6867 46.6067V48.14L40.28 46.0667V44.5333L36.6867 46.6067ZM40.4733 45.9533L44.0733 43.8733V42.34L40.4733 44.42V45.9533ZM40.4733 46.1667V47.7L44.0733 45.62V44.0867L40.4733 46.1667ZM44.26 45.5133L47.86 43.44V41.9067L44.26 43.98V45.5133ZM47.86 41.6867V40.1533L44.26 42.2333V43.7667L47.86 41.6867ZM48.0467 41.58L51.6467 39.5V37.9667L48.0467 40.0467V41.58ZM51.6467 37.7533V36.22L48.0467 38.2933V39.8333L51.6467 37.7533ZM51.6467 36V34.4667L48.0467 36.5467V38.08L51.6467 36ZM51.6467 34.2533V32.7133L48.0467 34.7933V36.3267L51.6467 34.2533ZM51.6467 32.5067V30.9733L48.0467 33.0533V34.5867L51.6467 32.5067ZM51.6467 30.7533V29.22L48.0467 31.3V32.8333L51.6467 30.7533ZM47.8667 31.4067L44.2667 33.48V35.02L47.8667 32.94V31.4067ZM44.08 33.5933L40.48 35.6667V37.2L44.08 35.1267V33.5933ZM40.2933 35.78L36.6933 37.8533V39.3867L40.2933 37.3133V35.78ZM36.6933 39.6067V41.14L40.2933 39.06V37.5267L36.6933 39.6067ZM36.5067 39.7133L32.9067 41.7933V43.3267L36.5067 41.2467V39.7133ZM32.9067 43.54V45.0733L36.5067 43V41.4667L32.9067 43.54ZM32.9067 45.2867V46.82L36.5067 44.74V43.2067L32.9067 45.2867ZM32.9067 47.04V48.5733L36.5067 46.4933V44.96L32.9067 47.04ZM32.9067 48.7867V50.32L36.5067 48.2467V46.7067L32.9067 48.7867ZM32.9067 50.54V52.0733L36.5067 49.9933V48.46L32.9067 50.54ZM36.6933 49.8867L40.2867 47.8133V46.28L36.6933 48.3533V49.8867ZM36.6933 50.1V51.64L40.2867 49.56V48.0267L36.6933 50.1ZM40.48 49.4467L44.08 47.3667V45.8333L40.48 47.9133V49.4467ZM44.2667 47.26L47.8667 45.18V43.6467L44.2667 45.7267V47.26ZM48.0533 45.0733L51.6533 42.9933V41.46L48.0533 43.54V45.0733ZM51.6533 41.2467V39.7133L48.0533 41.7933V43.3267L51.6533 41.2467ZM51.84 41.14L55.44 39.06V37.5267L51.84 39.6V41.14ZM55.44 37.3133V35.78L51.84 37.86V39.3933L55.44 37.3133ZM55.44 35.5667V34.0333L51.84 36.1067V37.64L55.44 35.5667ZM55.44 33.82V32.2867L51.84 34.3667V35.9L55.44 33.82ZM55.44 32.0733V30.5333L51.84 32.6133V34.1467L55.44 32.0733ZM55.44 30.3267V28.7933L51.84 30.8733V32.4067L55.44 30.3267ZM55.44 28.5733V27.04L51.84 29.12V30.6533L55.44 28.5733ZM55.44 26.8267V25.2933L51.84 27.3667V28.9L55.44 26.8267ZM51.66 27.48L48.06 29.56V31.0933L51.66 29.0133V27.48ZM47.8733 29.6667L44.2733 31.7467V33.28L47.8733 31.2V29.6667ZM44.0867 31.8533L40.4867 33.9333V35.4667L44.0867 33.3867V31.8533ZM40.3 34.04L36.7 36.12V37.6533L40.3 35.5733V34.04ZM36.5133 36.2267L32.9133 38.3067V39.84L36.5133 37.76V36.2267ZM32.9133 40.0533V41.5867L36.5133 39.5067V37.9733L32.9133 40.0533ZM32.7267 40.16L29.1267 42.24V43.7733L32.7267 41.7V40.16ZM29.1267 43.9867V45.52L32.7267 43.44V41.9067L29.1267 43.9867ZM29.1267 45.7333V47.2667L32.7267 45.1933V43.6533L29.1267 45.7333ZM29.1267 47.4867V49.02L32.7267 46.94V45.4067L29.1267 47.4867ZM29.1267 49.2333V50.7733L32.7267 48.6933V47.16L29.1267 49.2333ZM29.1267 50.98V52.5133L32.7267 50.4333V48.9L29.1267 50.98ZM29.1267 52.7333V54.2667L32.7267 52.1867V50.6533L29.1267 52.7333ZM29.1267 54.48V56.0133L32.7267 53.94V52.4067L29.1267 54.48ZM32.9067 53.8267L36.5067 51.7467V50.2133L32.9067 52.2933V53.8267ZM32.9067 54.04V55.5733L36.5067 53.4933V51.96L32.9067 54.04ZM36.6933 53.3933L40.2933 51.3133V49.78L36.6933 51.8533V53.3933ZM40.48 51.2133L44.08 49.1333V47.6L40.48 49.68V51.2133ZM44.2667 49.0267L47.8667 46.9467V45.4133L44.2667 47.4933V49.0267ZM48.0533 46.84L51.6533 44.76V43.2267L48.0533 45.3067V46.84ZM51.84 44.6533L55.44 42.5733V41.04L51.84 43.12V44.6533ZM55.44 40.8267V39.2933L51.84 41.3667V42.9L55.44 40.8267ZM55.6267 40.72L59.2267 38.6467V37.1067L55.6267 39.1867V40.72ZM59.2267 36.8933V35.36L55.6267 37.44V38.9733L59.2267 36.8933ZM59.2267 35.14V33.6067L55.6267 35.6867V37.22L59.2267 35.14ZM59.2267 33.3933V31.86L55.6267 33.9333V35.4733L59.2267 33.3933ZM59.2267 31.64V30.1067L55.6267 32.1867V33.72L59.2267 31.64ZM59.2267 29.8933V28.3533L55.6267 30.4333V31.9667L59.2267 29.8933ZM59.2267 28.1467V26.6133L55.6267 28.6933V30.2267L59.2267 28.1467ZM59.2267 26.3933V24.86L55.6267 26.94V28.4733L59.2267 26.3933ZM59.2267 24.6467V23.1133L55.6267 25.1867V26.72L59.2267 24.6467ZM59.2267 22.9V21.3667L55.6267 23.4467V24.98L59.2267 22.9ZM55.4467 23.5533L51.8467 25.6267V27.16L55.4467 25.0867V23.5533ZM51.66 25.7333L48.06 27.8133V29.3467L51.66 27.2733V25.7333ZM47.8733 27.9133L44.2733 29.9933V31.5267L47.8733 29.4467V27.9133ZM44.0867 30.1L40.4867 32.18V33.7133L44.0867 31.6333V30.1ZM40.3 32.2867L36.7 34.3667V35.9L40.3 33.82V32.2867ZM36.5133 34.4733L32.9133 36.5533V38.0867L36.5133 36.0067V34.4733ZM32.7267 36.66L29.1267 38.74V40.2733L32.7267 38.1933V36.66ZM29.1267 40.4867V42.02L32.7267 39.9467V38.4067L29.1267 40.4867ZM28.94 40.6L25.34 42.6733V44.2067L28.94 42.1333V40.6ZM25.34 44.4267V45.96L28.94 43.88V42.3467L25.34 44.4267ZM25.34 46.1733V47.7067L28.94 45.6333V44.1L25.34 46.1733ZM25.34 47.92V49.4533L28.94 47.3733V45.84L25.34 47.92ZM25.34 49.6733V51.2067L28.94 49.1267V47.5933L25.34 49.6733ZM25.34 51.42V52.9533L28.94 50.88V49.34L25.34 51.42ZM25.34 53.1733V54.7067L28.94 52.6267V51.0933L25.34 53.1733ZM25.34 54.92V56.46L28.94 54.38V52.8467L25.34 54.92ZM25.34 56.6667V58.2L28.94 56.12V54.5867L25.34 56.6667ZM25.34 58.42V59.9533L28.94 57.8733V56.34L25.34 58.42ZM29.1267 57.7667L32.7267 55.6867V54.1533L29.1267 56.2333V57.7667ZM29.1267 57.98V59.5133L32.7267 57.44V55.9067L29.1267 57.98ZM32.9067 57.3267L36.5067 55.2467V53.7133L32.9067 55.7933V57.3267ZM36.6933 55.14L40.2933 53.06V51.5267L36.6933 53.6067V55.14ZM40.48 52.9533L44.08 50.8733V49.34L40.48 51.42V52.9533ZM44.2667 50.7667L47.8667 48.6867V47.1533L44.2667 49.2333V50.7667ZM48.0533 48.58L51.6533 46.5V44.9667L48.0533 47.0467V48.58ZM51.84 46.3933L55.44 44.32V42.78L51.84 44.86V46.3933ZM55.6267 44.2067L59.2267 42.1333V40.6L55.6267 42.6733V44.2067ZM59.2267 40.38V38.8467L55.6267 40.9267V42.46L59.2267 40.38ZM59.4133 40.2733L63.0133 38.1933V36.66L59.4133 38.74V40.2733ZM63.0133 36.4467V34.9133L59.4133 36.9867V38.52L63.0133 36.4467ZM63.0133 34.7V33.1667L59.4133 35.2467V36.78L63.0133 34.7ZM63.0133 32.9467V31.4133L59.4133 33.4933V35.0267L63.0133 32.9467ZM63.0133 31.2V29.6667L59.4133 31.74V33.2733L63.0133 31.2ZM63.0133 29.4533V27.92L59.4133 30V31.5333L63.0133 29.4533ZM63.0133 27.7067V26.1667L59.4133 28.2467V29.78L63.0133 27.7067ZM63.0133 25.96V24.4267L59.4133 26.5067V28.04L63.0133 25.96ZM63.0133 24.2067V22.6733L59.4133 24.7533V26.2867L63.0133 24.2067ZM63.0133 22.46V20.9267L59.4133 23V24.5333L63.0133 22.46ZM63.0133 20.7133V19.18L59.4133 21.26V22.7933L63.0133 20.7133ZM63.0133 18.96V17.4267L59.4133 19.5067V21.04L63.0133 18.96ZM59.2267 19.6133L55.6333 21.6933V23.2267L59.2267 21.1467V19.6133ZM55.4467 21.8L51.8467 23.88V25.4133L55.4467 23.3333V21.8ZM51.66 23.9867L48.06 26.06V27.5933L51.66 25.52V23.9867ZM47.8733 26.1667L44.2733 28.2467V29.78L47.8733 27.7V26.1667ZM44.0867 28.3533L40.4867 30.4333V31.9667L44.0867 29.8867V28.3533ZM40.3 30.54L36.7 32.62V34.1533L40.3 32.0733V30.54ZM36.5133 32.7267L32.9133 34.8067V36.34L36.5133 34.26V32.7267ZM32.7267 34.9133L29.1267 36.9867V38.52L32.7267 36.4467V34.9133ZM28.94 37.0933L25.3467 39.1733V40.7067L28.94 38.6267V37.0933ZM25.3467 40.92V42.4533L28.94 40.38V38.8467L25.3467 40.92ZM21.5667 46.3867L25.1667 44.3067V42.7733L21.5667 44.8533V46.3867ZM21.5667 48.1333L25.1667 46.0533V44.52L21.5667 46.6V48.1333ZM21.5667 49.88L25.1667 47.8067V46.2733L21.5667 48.3467V49.88ZM21.5667 51.6333L25.1667 49.5533V48.02L21.5667 50.1V51.6333ZM21.5667 53.38L25.1667 51.3V49.7667L21.5667 51.8467V53.38ZM21.5667 55.1267L25.1667 53.0467V51.5133L21.5667 53.5933V55.1267ZM21.5667 56.8733L25.1667 54.8V53.2667L21.5667 55.34V56.8733ZM21.5667 58.6267L25.1667 56.5467V55.0133L21.5667 57.0933V58.6267ZM21.5667 60.3733L25.1667 58.2933V56.76L21.5667 58.84V60.3733ZM21.5667 62.12L25.1667 60.0467V58.5067L21.5667 60.5867V62.12ZM21.5667 63.8667L25.1667 61.7933V60.26L21.5667 62.3333V63.8667ZM25.3533 61.6867L28.9467 59.6067V58.0733L25.3533 60.1467V61.6867ZM25.3533 61.9067V63.4333L28.9467 61.3533V59.8267L25.3533 61.9067ZM29.14 61.2467L32.74 59.1733V57.64L29.14 59.72V61.2467ZM32.9267 59.06L36.5267 56.9867V55.4533L32.9267 57.5333V59.06ZM36.7133 56.8733L40.3133 54.7933V53.2667L36.7133 55.3467V56.8733ZM40.5 54.6867L44.1 52.6067V51.08L40.5 53.16V54.6867ZM44.2867 52.5L47.8867 50.42V48.8933L44.2867 50.9733V52.5ZM48.0733 50.3133L51.6733 48.2333V46.7067L48.0733 48.7867V50.3133ZM51.86 48.1267L55.46 46.0467V44.52L51.86 46.6V48.1267ZM55.64 45.94L59.24 43.86V42.3333L55.64 44.4133V45.94ZM59.4267 43.7533L63.0267 41.6733V40.1467L59.4267 42.2267V43.7533ZM63.0267 39.9267V38.3933L59.4267 40.4733V42.0067L63.0267 39.9267ZM66.8133 34.46L63.2133 36.5333V38.0733L66.8133 35.9933V34.46ZM66.8133 32.7133L63.2133 34.7867V36.32L66.8133 34.2467V32.7133ZM66.8133 30.96L63.2133 33.04V34.5733L66.8133 32.4933V30.96ZM66.8133 29.2133L63.2133 31.2933V32.8267L66.8133 30.7467V29.2133ZM66.8133 27.4667L63.2133 29.54V31.0733L66.8133 29V27.4667ZM66.8133 25.7133L63.2133 27.7933V29.3267L66.8133 27.2533V25.7133ZM66.8133 23.96L63.2133 26.04V27.5733L66.8133 25.4933V23.96ZM66.8133 22.2133L63.2133 24.2867V25.8267L66.8133 23.7467V22.2133ZM66.8133 20.4667L63.2133 22.54V24.0733L66.8133 22V20.4667ZM66.8133 18.7133L63.2133 20.7933V22.3267L66.8133 20.2467V18.7133ZM66.8133 16.9667L63.2133 19.0467V20.58L66.8133 18.5V16.9667ZM66.8133 15.22L63.2133 17.2933V18.8267L66.8133 16.7533V15.22ZM21.5733 41.34V42.8733L25.1733 40.7933V39.26L21.5733 41.34ZM21.5667 65.6067L25.1667 63.5267V62L21.5667 64.08V65.6067ZM66.8133 39.48V37.9533L63.2133 40.0333V41.56L66.8133 39.48Z" fill="#E0E0E0"/>
<path d="M51.72 25.5733L66.8733 16.8333V25.5733L51.72 34.3133V25.5733Z" fill="#FAFAFA" stroke="#E0E0E0" stroke-width="3"/>
<path d="M52.4867 32.1334L54.5333 26.54L56.8 27.8934L59.0733 25.5734L61.3467 27.0734L63.6133 21.48L65.8867 22.6467" stroke="#455A64" stroke-width="2.3" stroke-linecap="round" stroke-linejoin="round"/>
<path d="M54.76 26.4067C54.76 26.5533 54.66 26.7333 54.5334 26.8066C54.4067 26.88 54.3067 26.82 54.3067 26.6733C54.3067 26.5267 54.4067 26.3467 54.5334 26.2733C54.66 26.2 54.76 26.26 54.76 26.4067Z" fill="#27DEBF"/>
<path d="M57.0333 27.76C57.0333 27.9067 56.9333 28.0867 56.8066 28.16C56.68 28.2333 56.5733 28.1733 56.5733 28.0267C56.5733 27.88 56.68 27.7 56.8066 27.6267C56.9333 27.5533 57.0333 27.6133 57.0333 27.76Z" fill="#27DEBF"/>
<path d="M59.3 25.44C59.3 25.5866 59.2 25.7666 59.0733 25.84C58.9466 25.9133 58.8466 25.8533 58.8466 25.7066C58.8466 25.56 58.9466 25.3867 59.0733 25.3133C59.2 25.24 59.3 25.3 59.3 25.44Z" fill="#27DEBF"/>
<path d="M61.5733 26.94C61.5733 27.0867 61.4733 27.26 61.3467 27.3333C61.22 27.4067 61.1133 27.3467 61.1133 27.2C61.1133 27.0533 61.22 26.88 61.3467 26.8067C61.4733 26.7333 61.5733 26.7933 61.5733 26.94Z" fill="#27DEBF"/>
<path d="M63.84 21.3467C63.84 21.4933 63.74 21.6733 63.6134 21.7467C63.4867 21.82 63.3867 21.76 63.3867 21.6133C63.3867 21.4667 63.4867 21.2867 63.6134 21.22C63.74 21.1467 63.84 21.2067 63.84 21.3467Z" fill="#27DEBF"/>
<path d="M66.1133 22.5133C66.1133 22.66 66.0133 22.84 65.8867 22.9133C65.76 22.9866 65.6534 22.9266 65.6534 22.78C65.6534 22.6333 65.76 22.4533 65.8867 22.38C66.0133 22.3067 66.1133 22.3667 66.1133 22.5133Z" fill="#27DEBF"/>
<path d="M77.2 51.3667L73.1733 53.6933L69.1467 51.3667L73.1733 49.04L77.2 51.3667Z" fill="#455A64"/>
<path d="M77.2 51.3601V60.6134L73.1733 62.9333V53.6934L77.2 51.3601Z" fill="#37474F"/>
<path d="M73.1733 53.6934V62.9333L69.1467 60.6134V51.3601L73.1733 53.6934Z" fill="#263238"/>
<path d="M71.9 58.4333L67.8733 60.76L63.8467 58.4333L67.8733 56.1133L71.9 58.4333Z" fill="#27DEBF"/>
<path opacity="0.3" d="M71.9 58.4333L67.8733 60.76L63.8467 58.4333L67.8733 56.1133L71.9 58.4333Z" fill="white"/>
<path d="M71.9 58.4333V63.6734L67.8734 65.9934V60.76L71.9 58.4333Z" fill="#27DEBF"/>
<path d="M67.8734 60.76V65.9934L63.8467 63.6734V58.4333L67.8734 60.76Z" fill="#27DEBF"/>
<path opacity="0.1" d="M67.8734 60.76V65.9934L63.8467 63.6734V58.4333L67.8734 60.76Z" fill="black"/>
<path d="M66.6 59.32L62.5734 61.6466L58.5467 59.32L62.5734 56.9933L66.6 59.32Z" fill="#27DEBF"/>
<path opacity="0.9" d="M66.6 59.32L62.5734 61.6466L58.5467 59.32L62.5734 56.9933L66.6 59.32Z" fill="white"/>
<path d="M66.6 59.3134V66.7334L62.5734 69.0534V61.6467L66.6 59.3134Z" fill="#27DEBF"/>
<path opacity="0.7" d="M66.6 59.3134V66.7334L62.5734 69.0534V61.6467L66.6 59.3134Z" fill="white"/>
<path d="M62.5734 61.6467V69.0534L58.5467 66.7334V59.3134L62.5734 61.6467Z" fill="#27DEBF"/>
<path opacity="0.6" d="M62.5734 61.6467V69.0534L58.5467 66.7334V59.3134L62.5734 61.6467Z" fill="white"/>
<path d="M61.3001 67.1734L57.2734 69.5L53.2467 67.1734L57.2734 64.8467L61.3001 67.1734Z" fill="#27DEBF"/>
<path opacity="0.3" d="M61.3001 67.1734L57.2734 69.5L53.2467 67.1734L57.2734 64.8467L61.3001 67.1734Z" fill="black"/>
<path d="M61.3001 67.1733V69.7933L57.2733 72.1133V69.5L61.3001 67.1733Z" fill="#27DEBF"/>
<path opacity="0.4" d="M61.3001 67.1733V69.7933L57.2733 72.1133V69.5L61.3001 67.1733Z" fill="black"/>
<path d="M57.2733 69.5V72.1133L53.2467 69.7867V67.1733L57.2733 69.5Z" fill="#27DEBF"/>
<path opacity="0.5" d="M57.2733 69.5V72.1133L53.2467 69.7867V67.1733L57.2733 69.5Z" fill="black"/>
<path d="M35.3333 81.12V82.6467L33.8267 78.5533V77.0267C33.8267 77.0267 33.8267 77.0289 33.8267 77.0333L35.3333 81.12Z" fill="#263238"/>
<path d="M41.5467 78.9667V80.4933L35.3333 82.6467V81.12L41.5467 78.9667Z" fill="#37474F"/>
<path d="M41.5467 78.9666L35.3333 81.1199L33.8267 77.0267C36.8733 76.7333 39.84 77.48 41.5467 78.9666Z" fill="#455A64"/>
<path d="M34.7133 83.0467L33.7867 87.3867C30.0267 87.0133 27.3 85.1133 27.3333 82.9333V82.94V81.4533C27.3333 83.6133 30.0467 85.4933 33.7867 85.86L34.42 82.88L34.7133 83.0467Z" fill="#27DEBF"/>
<path opacity="0.4" d="M34.7133 83.0467L33.7867 87.3867C30.0267 87.0133 27.3 85.1133 27.3333 82.9333V82.94V81.4533C27.3333 83.6133 30.0467 85.4933 33.7867 85.86L34.42 82.88L34.7133 83.0467Z" fill="black"/>
<path d="M35.42 83.0934L40.7467 81.2467L41.9133 80.84C42.2467 81.2 42.5578 81.3911 42.8467 81.4134C42.8467 82.3689 42.8467 82.8934 42.8467 82.9867C42.84 83.3467 42.76 83.7 42.6133 84.0534C42.1067 85.2134 40.8533 86.1934 39.08 86.8067C37.6467 87.3067 36.14 87.5134 34.4933 87.4334V85.9134L35.42 83.0934Z" fill="#27DEBF"/>
<path opacity="0.6" d="M35.42 83.0934L40.7467 81.2467L41.9133 80.84C42.2467 81.2 42.5578 81.3911 42.8467 81.4134C42.8467 82.3689 42.8467 82.8934 42.8467 82.9867C42.84 83.3467 42.76 83.7 42.6133 84.0534C42.1067 85.2134 40.8533 86.1934 39.08 86.8067C37.6467 87.3067 36.14 87.5134 34.4933 87.4334V85.9134L35.42 83.0934Z" fill="white"/>
<path d="M29.86 78.14L34.4867 80.8067V82.3334L29.86 79.66V78.14Z" fill="#27DEBF"/>
<path opacity="0.1" d="M29.86 78.14L34.4867 80.8067V82.3334L29.86 79.66V78.14Z" fill="black"/>
<path d="M29.36 78.4267L34.7133 81.52L33.7867 85.86C29.7333 85.4667 26.8866 83.28 27.3933 80.9C27.5933 79.94 28.24 79.1267 29.36 78.4267Z" fill="#27DEBF"/>
<path opacity="0.3" d="M29.36 78.4267L34.7133 81.52L33.7867 85.86C29.7333 85.4667 26.8866 83.28 27.3933 80.9C27.5933 79.94 28.24 79.1267 29.36 78.4267Z" fill="black"/>
<path d="M35.42 81.5733L40.7467 79.72L41.9133 79.32C42.8333 80.3067 43.08 81.4333 42.6133 82.5267C42.1067 83.6867 40.8533 84.6667 39.08 85.2867C37.6467 85.78 36.14 85.9867 34.4933 85.9134L34.52 85.7867L35.42 81.5733Z" fill="#27DEBF"/>
<path opacity="0.7" d="M35.42 81.5733L40.7467 79.72L41.9133 79.32C42.8333 80.3067 43.08 81.4333 42.6133 82.5267C42.1067 83.6867 40.8533 84.6667 39.08 85.2867C37.6467 85.78 36.14 85.9867 34.4933 85.9134L34.52 85.7867L35.42 81.5733Z" fill="white"/>
<path d="M33.1267 77.1133L34.4867 80.8067L29.86 78.14C30.8333 77.6133 31.84 77.3 33.1267 77.1133Z" fill="#27DEBF"/>
<path d="M33.7867 87.3867V85.86L34.7133 81.52V83.0467L33.7867 87.3867Z" fill="#27DEBF"/>
<path opacity="0.5" d="M33.7867 87.3867V85.86L34.7133 81.52V83.0467L33.7867 87.3867Z" fill="black"/>
<path d="M41.6267 75.3267L40.6133 75.9067L39.6067 75.3267L40.6133 74.74L41.6267 75.3267Z" fill="#27DEBF"/>
<path opacity="0.3" d="M41.6267 75.3267L40.6133 75.9067L39.6067 75.3267L40.6133 74.74L41.6267 75.3267Z" fill="black"/>
<path d="M41.6267 75.32V75.9067L40.6133 76.4867V75.9067L41.6267 75.32Z" fill="#27DEBF"/>
<path opacity="0.4" d="M41.6267 75.32V75.9067L40.6133 76.4867V75.9067L41.6267 75.32Z" fill="black"/>
<path d="M40.6133 75.9067V76.4867L39.6067 75.9067V75.32L40.6133 75.9067Z" fill="#27DEBF"/>
<path opacity="0.5" d="M40.6133 75.9067V76.4867L39.6067 75.9067V75.32L40.6133 75.9067Z" fill="black"/>
<path d="M42.1533 74.2934L45.8933 72.1333C46.1133 72.0067 46.4667 72 46.6733 72.12C46.88 72.24 46.8733 72.44 46.6467 72.5733L42.9133 74.7267C42.6867 74.8534 42.34 74.86 42.1333 74.74C41.92 74.62 41.9333 74.42 42.1533 74.2934Z" fill="#E0E0E0"/>
<path d="M43.8933 76.6333L42.8867 77.22L41.88 76.6333L42.8867 76.0533L43.8933 76.6333Z" fill="#27DEBF"/>
<path opacity="0.9" d="M43.8933 76.6333L42.8867 77.22L41.88 76.6333L42.8867 76.0533L43.8933 76.6333Z" fill="white"/>
<path d="M43.8933 76.6333V77.22L42.8867 77.8V77.22L43.8933 76.6333Z" fill="#27DEBF"/>
<path opacity="0.7" d="M43.8933 76.6333V77.22L42.8867 77.8V77.22L43.8933 76.6333Z" fill="white"/>
<path d="M42.8867 77.22V77.8L41.88 77.22V76.6333L42.8867 77.22Z" fill="#27DEBF"/>
<path opacity="0.6" d="M42.8867 77.22V77.8L41.88 77.22V76.6333L42.8867 77.22Z" fill="white"/>
<path d="M44.4267 75.5999L48.16 73.4467C48.3867 73.3133 48.7333 73.3133 48.9467 73.4333C49.1533 73.5533 49.14 73.7533 48.92 73.88L45.1867 76.0399C44.96 76.1666 44.6133 76.1733 44.4 76.0533C44.1933 75.9333 44.2067 75.7333 44.4267 75.5999Z" fill="#E0E0E0"/>
<path d="M46.1667 77.9467L45.16 78.5267L44.1534 77.9467L45.16 77.3667L46.1667 77.9467Z" fill="#27DEBF"/>
<path opacity="0.3" d="M46.1667 77.9467L45.16 78.5267L44.1534 77.9467L45.16 77.3667L46.1667 77.9467Z" fill="white"/>
<path d="M46.1667 77.9467V78.5333L45.16 79.1133V78.5267L46.1667 77.9467Z" fill="#27DEBF"/>
<path d="M45.16 78.5267V79.1133L44.1534 78.5333V77.9467L45.16 78.5267Z" fill="#27DEBF"/>
<path opacity="0.1" d="M45.16 78.5267V79.1133L44.1534 78.5333V77.9467L45.16 78.5267Z" fill="black"/>
<path d="M46.7 76.9133L50.4334 74.76C50.6601 74.6267 51.0067 74.62 51.2134 74.74C51.4267 74.86 51.4134 75.0667 51.1934 75.1933L47.4534 77.3533C47.2334 77.48 46.88 77.4867 46.6734 77.3667C46.4667 77.2467 46.4734 77.04 46.7 76.9133Z" fill="#E0E0E0"/>
<path d="M48.44 79.26L47.4333 79.84L46.42 79.26L47.4333 78.6733L48.44 79.26Z" fill="#455A64"/>
<path d="M48.44 79.26V79.84L47.4333 80.4267V79.84L48.44 79.26Z" fill="#37474F"/>
<path d="M47.4333 79.84V80.4267L46.42 79.84V79.26L47.4333 79.84Z" fill="#263238"/>
<path d="M48.9734 78.2266L52.7067 76.0667C52.9267 75.94 53.28 75.9333 53.4867 76.0533C53.7 76.1733 53.6867 76.38 53.46 76.5067L49.7267 78.66C49.5067 78.7933 49.1534 78.7999 48.9467 78.6733C48.7334 78.5533 48.7467 78.3533 48.9734 78.2266Z" fill="#E0E0E0"/>
<path opacity="0.5" d="M16.7333 72.18L72.2133 16.6667L83.3067 27.7733L27.8267 83.2867L16.7333 72.18ZM27.8333 16.6667L83.3133 72.18L72.2133 83.28L16.7333 27.7667L27.8333 16.6667Z" fill="#E8505B"/>
</svg>
