<svg version="1.2" baseProfile="tiny-ps" xmlns="http://www.w3.org/2000/svg" viewBox="0 0 1275 1275" width="1275" height="1275">
	<title>50426-ai</title>
	<defs>
		<clipPath clipPathUnits="userSpaceOnUse" id="cp1">
			<path d="m356.21 547.09c0 49.7-40.29 89.99-89.97 89.99c-49.7 0-89.99-40.29-89.99-89.99c0-49.69 40.29-89.98 89.99-89.98c49.69 0 89.97 40.29 89.97 89.98z" />
		</clipPath>
		<clipPath clipPathUnits="userSpaceOnUse" id="cp2">
			<path d="m1025.87 657.06c0 41.1-33.32 74.43-74.42 74.43c-41.11 0-74.43-33.32-74.43-74.43c0-41.09 33.31-74.42 74.43-74.42c41.1 0 74.42 33.33 74.42 74.42z" />
		</clipPath>
	</defs>
	<style>
		tspan { white-space:pre }
		.s0 { fill: #f5f6f6 } 
		.s1 { mix-blend-mode: multiply;fill: #cccdcf } 
		.s2 { fill: #ffffff } 
		.s3 { fill: #0b4b7f } 
		.s4 { fill: #d8d9da } 
		.s5 { fill: #78241c } 
		.s6 { fill: #ffb38f } 
		.s7 { fill: #ff4d44 } 
		.s8 { fill: #e6937b } 
		.s9 { fill: #e23d36 } 
		.s10 { fill: #ff473e } 
		.s11 { fill: #2a161c } 
		.s12 { fill: #1a0b11 } 
		.s13 { fill: #b0b1b3 } 
		.s14 { mix-blend-mode: multiply;fill: #c4c5c7 } 
		.s15 { fill: #472b1e } 
		.s16 { fill: #9c643f } 
		.s17 { fill: #47c8c2 } 
		.s18 { fill: #7f5132 } 
		.s19 { fill: #872c20 } 
		.s20 { opacity: .1;fill: #707176 } 
		.s21 { fill: #e4a27d } 
		.s22 { fill: #d08e69 } 
		.s23 { fill: #43454b } 
		.s24 { fill: #362017 } 
		.s25 { fill: #ececed } 
		.s26 { fill: #2c2e35 } 
		.s27 { fill: #85878b } 
	</style>
	<g id="Capa 1">
		<path id="&lt;Path&gt;" class="s0" d="m1275.59 1275h-1275.59v-1275.59h1275.59v1275.59z" />
		<g id="&lt;Group&gt;">
			<g id="&lt;Group&gt;">
				<g id="&lt;Group&gt;">
					<path id="&lt;Path&gt;" class="s1" d="m526.95 733.86c0 23.16-18.77 41.92-41.93 41.92h-291.19c-23.16 0-41.93-18.77-41.93-41.92v-330.8c0-23.16 18.77-41.93 41.93-41.93h291.19c23.16 0 41.93 18.77 41.93 41.93v330.8z" />
					<path id="&lt;Path&gt;" class="s2" d="m522.76 728.59c0 23.16-18.78 41.94-41.93 41.94h-291.18c-23.16 0-41.94-18.78-41.94-41.94v-330.79c0-23.16 18.78-41.94 41.94-41.94h291.18c23.16 0 41.93 18.78 41.93 41.94v330.79z" />
					<path id="&lt;Path&gt;" class="s3" d="m147.71 418.77v-20.96c0-23.16 18.78-41.94 41.94-41.94h291.18c23.16 0 41.93 18.78 41.93 41.94v20.96h-375.05z" />
					<path id="&lt;Path&gt;" class="s2" d="m442.39 401.07c0 1.89-1.54 3.44-3.43 3.44h-22.85c-1.89 0-3.42-1.55-3.42-3.44v-22.85c0-1.89 1.54-3.41 3.42-3.41h22.85c1.89 0 3.43 1.53 3.43 3.41v22.85z" />
					<path id="&lt;Path&gt;" class="s2" d="m485.49 401.07c0 1.89-1.54 3.44-3.43 3.44h-22.84c-1.89 0-3.43-1.55-3.43-3.44v-22.85c0-1.89 1.54-3.41 3.43-3.41h22.84c1.9 0 3.43 1.53 3.43 3.41v22.85z" />
					<path id="&lt;Path&gt;" class="s2" d="m392.88 389.66c0 8.2-6.64 14.85-14.84 14.85h-192.18c-8.21 0-14.85-6.65-14.85-14.85c0-8.21 6.64-14.85 14.85-14.85h192.18c8.2 0 14.84 6.64 14.84 14.85z" />
					<g id="&lt;Group&gt;">
						<path id="&lt;Path&gt;" class="s4" d="m356.21 547.09c0 49.7-40.29 89.99-89.97 89.99c-49.7 0-89.99-40.29-89.99-89.99c0-49.69 40.29-89.98 89.99-89.98c49.69 0 89.97 40.29 89.97 89.98z" />
						<g id="&lt;Clip Group&gt;" clip-path="url(#cp1)">
							<g id="&lt;Group&gt;">
								<path id="&lt;Path&gt;" class="s5" d="m311.25 598.81c2.84 13.28-90.75 11.83-90.75 0c14.62-25.23 0.48-42.09-1.23-75.34c-1.7-33.25 89.55-24.27 91.46 0c1.89 24.28-12.25 57.66 0.51 75.34z" />
								<path id="&lt;Path&gt;" class="s6" d="m294.05 655.84c-0.49-5.29-2.71-20.27-6.67-44.97l6.7-19.62c6.15-0.08 9.76 3.77 10.83 11.58c1.07 7.8 2.09 25.59 3.06 53.38l0.35 4.75h-13.44c-0.43-2.2-0.72-3.98-0.83-5.12z" />
								<path id="&lt;Path&gt;" class="s6" d="m218.74 660.96l0.39-5.21c0.97-27.78 1.99-45.57 3.06-53.37c1.07-7.8 4.68-11.67 10.83-11.59l6.7 19.62c-3.97 24.7-6.19 39.69-6.68 44.97c-0.11 1.21-0.45 3.15-0.93 5.57h-13.37z" />
								<path id="&lt;Path&gt;" class="s7" d="m227.14 632.59c0.08-4.22 3.03-11.46 8.86-21.73l-3.25-20.39l15.7-7.22h31.21l16.05 7.57l-3.75 20.03c7.18 10.59 10.8 17.84 10.85 21.73c0.05 3.9-2.76 7.95-8.43 12.15l-5.39 16.22h-50.81l-3.62-16.22c-5.04-3.87-7.51-7.92-7.43-12.15z" />
								<path id="&lt;Path&gt;" class="s6" d="m279.66 583.25c3.78 14.79 4.64 24.07 2.6 27.85c-3.44 6.38-31.34 5.85-35.09 0c-2.5-3.9-2.07-13.18 1.29-27.85l4.8-0.25v-23.4h21.45v22.42l4.95 1.23z" />
								<path id="&lt;Path&gt;" class="s8" d="m253.25 576.68v-17.07h21.45v18.92c-1.15 0.48-2.34 0.92-3.59 1.27c-6.63 1.87-12.17-0.45-17.85-3.13z" />
								<path id="&lt;Path&gt;" class="s6" d="m310.89 546.72c-1.96 0.82-4.08 0.53-6.35-0.87c-10.08 0.52-15.12-0.53-15.12-3.16c0-3.95 0-6.16 0-13.19c0-6.27 5.04-9.09 15.12-8.46c2.27-3.19 4.94-3.69 7.99-1.52c7.22 5.15 4.02 24.81-1.64 27.19z" />
								<path id="&lt;Path&gt;" class="s6" d="m219.95 519.53c3.05-2.17 5.71-1.67 7.99 1.52c10.07-0.63 15.11 2.19 15.11 8.46c0 7.02 0 9.23 0 13.19c0 2.63-5.04 3.68-15.11 3.16c-2.27 1.4-4.39 1.69-6.35 0.87c-5.67-2.38-8.86-22.04-1.64-27.19z" />
								<path id="&lt;Path&gt;" class="s6" d="m304.91 541.33c0 17.49-25.33 36.88-38.91 36.88c-14.92 0-38.89-20.63-38.89-37.97c0-20.47 0-20.47 0-36.57c0-51.65 77.8-55.08 77.8 0c0 35.1 0 12.56 0 37.66z" />
								<path id="&lt;Path&gt;" class="s5" d="m230.68 537.37c-3.98-0.92-3.51-6.74-4.11-12.25c-0.73-6.83-3.76-7.76-9.09-2.81c-0.66-8.15-1.23-15.24-1.71-21.25c-0.74-9.03 15.09-45.69 50.04-37.6c36.67-9.31 45.44 30.43 45.44 39v15.94c-3.92 1.09-5.86 3.18-5.82 6.26c0.04 3.09 0.04 7.63 0 13.63c-0.71-3.01-3.18-6.39-2.91-16.8c-24.76-3.71-57.57-22.96-64.34-26.72c-0.82 17.95-8.97 21.9-8.71 26.82c0.35 6.28 0.7 10.85 1.21 15.79z" />
								<path id="&lt;Path&gt;" class="s8" d="m269.78 546.34l-4.51 3.54v-25.61l4.51 22.08z" />
								<path id="&lt;Path&gt;" class="s5" d="m258.52 519.23c-4.59-3.08-8.35-4.14-11.28-3.17c-2.92 0.97-6.21 3.04-9.86 6.2l-0.61-2.26c2.74-3.31 6.09-5.13 10.06-5.44c3.98-0.34 7.88 1.22 11.69 4.67z" />
								<g id="&lt;Group&gt;">
									<path id="&lt;Path&gt;" class="s9" d="m266.18 558.45c1.05 0.05 4.47 0.21 10.28 0.5c-2.02 1.92-3.31 2.98-3.88 3.17c-2.54 0.86-10.1 0.53-12.17 0.39c-1.38-0.09-3.28-1.31-5.7-3.63c6.6-0.34 10.43-0.48 11.48-0.42z" />
									<path id="&lt;Path&gt;" class="s10" d="m248.94 556.18c3.56 1.29 6.06 1.85 7.48 1.7c2.14-0.25 5.72-3.26 6.57-2.88c0.57 0.24 1.56 0.65 2.99 1.25c1.86-0.93 3.07-1.35 3.64-1.25c0.85 0.14 5.29 3.09 6.84 2.88c1.03-0.15 2.75-0.71 5.16-1.7c-2.98 1.97-5.06 3.14-6.25 3.49c-3.29 0.98-6.81-0.05-9.16-0.2c-2.82-0.18-6.9 1.8-10.11 0.1c-2.14-1.12-4.52-2.25-7.15-3.4z" />
								</g>
								<path id="&lt;Path&gt;" class="s5" d="m285.64 514.11c3.98 0.32 7.34 2.14 10.07 5.45l-0.6 2.28c-3.66-3.16-6.96-5.23-9.88-6.21c-2.92-0.98-6.68 0.08-11.27 3.18c3.81-3.46 7.71-5.02 11.68-4.69z" />
								<g id="&lt;Group&gt;">
									<path id="&lt;Path&gt;" class="s11" d="m276.17 526.8c-0.29-0.18-0.77-0.28-1.43-0.28c1.59-2.91 4.52-4.36 8.78-4.36c4.27 0 7.28 1.48 9.05 4.45c-1.83 0.61-2.9 1.01-3.2 1.2c-1.6-1.01-0.83-4.73-5.85-4.73c-5.01 0-5.74 2.72-7.35 3.73z" />
									<path id="&lt;Path&gt;" class="s2" d="m291.36 526.62c-0.69 2.52-3.17 3.78-7.44 3.78c-4.26 0-7.27-1.29-9.03-3.87c1.76-2.46 4.77-3.69 9.03-3.69c4.27 0 6.75 1.26 7.44 3.78z" />
									<g id="&lt;Group&gt;">
										<path id="&lt;Path&gt;" class="s11" d="m281.4 522.88c0.81-0.12 1.66-0.19 2.51-0.19c0.87 0 1.71 0.07 2.52 0.19c1.13 0.82 1.87 2.15 1.87 3.67c0 1.51-0.74 2.84-1.87 3.65c-0.81 0.13-1.65 0.21-2.52 0.21c-0.86 0-1.7-0.08-2.51-0.21c-1.13-0.81-1.87-2.15-1.87-3.65c0-1.52 0.74-2.84 1.87-3.67z" />
									</g>
									<path id="&lt;Path&gt;" class="s12" d="m285.7 526.62c0 0.98-0.8 1.79-1.79 1.79c-0.98 0-1.78-0.8-1.78-1.79c0-0.98 0.8-1.79 1.78-1.79c0.98 0 1.79 0.81 1.79 1.79z" />
									<path id="&lt;Path&gt;" class="s2" d="m283.45 524.93c0 0.44-0.37 0.79-0.81 0.79c-0.45 0-0.8-0.35-0.8-0.79c0-0.45 0.35-0.81 0.8-0.81c0.44 0 0.81 0.35 0.81 0.81z" />
									<path id="&lt;Path&gt;" class="s2" d="m283.96 526.66c0 0.24-0.18 0.42-0.42 0.42c-0.23 0-0.42-0.19-0.42-0.42c0-0.22 0.19-0.42 0.42-0.42c0.24 0 0.42 0.2 0.42 0.42z" />
								</g>
								<g id="&lt;Group&gt;">
									<path id="&lt;Path&gt;" class="s11" d="m248.96 523.08c-5.02 0-4.25 3.73-5.84 4.73c-0.3-0.19-1.37-0.59-3.21-1.2c1.77-2.97 4.78-4.45 9.05-4.45c4.26 0 7.19 1.45 8.79 4.36c-0.67 0-1.14 0.09-1.43 0.28c-1.61-1.01-2.34-3.73-7.36-3.73z" />
									<path id="&lt;Path&gt;" class="s2" d="m248.56 522.84c4.26 0 7.27 1.23 9.04 3.69c-1.76 2.58-4.77 3.87-9.04 3.87c-4.27 0-6.74-1.26-7.43-3.78c0.69-2.52 3.16-3.78 7.43-3.78z" />
									<g id="&lt;Group&gt;">
										<path id="&lt;Path&gt;" class="s11" d="m252.95 526.54c0 1.51-0.74 2.84-1.87 3.65c-0.81 0.13-1.66 0.21-2.52 0.21c-0.87 0-1.7-0.08-2.52-0.21c-1.13-0.81-1.87-2.15-1.87-3.65c0-1.52 0.73-2.84 1.87-3.67c0.81-0.12 1.65-0.19 2.52-0.19c0.86 0 1.71 0.07 2.52 0.19c1.13 0.82 1.87 2.15 1.87 3.67z" />
									</g>
									<path id="&lt;Path&gt;" class="s12" d="m248.56 524.83c1 0 1.78 0.81 1.78 1.79c0 0.98-0.78 1.79-1.78 1.79c-0.99 0-1.78-0.8-1.78-1.79c0-0.98 0.79-1.79 1.78-1.79z" />
									<path id="&lt;Path&gt;" class="s2" d="m249.84 524.12c0.44 0 0.8 0.35 0.8 0.81c0 0.44-0.36 0.79-0.8 0.79c-0.45 0-0.81-0.35-0.81-0.79c0-0.45 0.36-0.81 0.81-0.81z" />
									<path id="&lt;Path&gt;" class="s2" d="m248.95 526.24c0.22 0 0.42 0.2 0.42 0.42c0 0.24-0.2 0.42-0.42 0.42c-0.23 0-0.42-0.19-0.42-0.42c0-0.22 0.19-0.42 0.42-0.42z" />
								</g>
							</g>
						</g>
					</g>
					<path id="&lt;Path&gt;" class="s13" d="m491.89 486.62h-120.82v-22.86h120.82v22.86z" />
					<path id="&lt;Path&gt;" class="s4" d="m491.89 514.38h-120.82v-11.43h120.82v11.43z" />
					<path id="&lt;Path&gt;" class="s4" d="m491.89 537.77h-120.82v-11.42h120.82v11.42z" />
					<path id="&lt;Path&gt;" class="s4" d="m491.89 561.17h-120.82v-11.43h120.82v11.43z" />
					<path id="&lt;Path&gt;" class="s4" d="m491.89 584.57h-120.82v-11.44h120.82v11.44z" />
					<path id="&lt;Path&gt;" class="s4" d="m491.89 607.96h-120.82v-11.42h120.82v11.42z" />
					<path id="&lt;Path&gt;" class="s4" d="m491.89 631.37h-120.82v-11.44h120.82v11.44z" />
					<path id="&lt;Path&gt;" class="s4" d="m491.89 679.27h-299.32v-11.43h299.32v11.43z" />
					<path id="&lt;Path&gt;" class="s4" d="m491.89 707.57h-299.32v-11.42h299.32v11.42z" />
				</g>
			</g>
			<g id="&lt;Group&gt;">
				<path id="&lt;Path&gt;" class="s14" d="m1153.1 545.92v273.61c0 19.15-15.53 34.67-34.69 34.67h-240.84c-12.04 0-22.63-6.14-28.85-15.45c-5.75-6.19-9.3-14.46-9.3-23.58v-256.26v-17.33c0-19.16 15.53-34.69 34.69-34.69h240.84c12.04 0 22.65 6.14 28.86 15.46c5.75 6.19 9.3 14.46 9.3 23.57z" />
				<g id="&lt;Group&gt;">
					<path id="&lt;Path&gt;" class="s1" d="m1167.1 811.53c0 19.15-15.53 34.67-34.69 34.67h-240.84c-19.15 0-34.68-15.52-34.68-34.67v-273.61c0-19.15 15.53-34.68 34.68-34.68h240.84c19.15 0 34.69 15.52 34.69 34.68v273.61z" />
					<path id="&lt;Path&gt;" class="s2" d="m1163.62 807.17c0 19.16-15.53 34.68-34.69 34.68h-240.83c-19.16 0-34.69-15.52-34.69-34.68v-273.59c0-19.16 15.53-34.69 34.69-34.69h240.83c19.16 0 34.69 15.53 34.69 34.69v273.59z" />
					<path id="&lt;Path&gt;" class="s3" d="m853.42 550.92v-17.34c0-19.16 15.53-34.69 34.69-34.69h240.83c19.16 0 34.69 15.53 34.69 34.69v17.34h-310.21z" />
					<path id="&lt;Path&gt;" class="s2" d="m1097.15 536.28c0 1.57-1.27 2.84-2.84 2.84h-18.9c-1.56 0-2.83-1.28-2.83-2.84v-18.9c0-1.56 1.27-2.82 2.83-2.82h18.9c1.57 0 2.84 1.27 2.84 2.82v18.9z" />
					<path id="&lt;Path&gt;" class="s2" d="m1132.8 536.28c0 1.57-1.27 2.84-2.84 2.84h-18.9c-1.56 0-2.83-1.28-2.83-2.84v-18.9c0-1.56 1.27-2.82 2.83-2.82h18.9c1.56 0 2.84 1.27 2.84 2.82v18.9z" />
					<path id="&lt;Path&gt;" class="s2" d="m1056.21 526.84c0 6.78-5.5 12.28-12.28 12.28h-158.95c-6.79 0-12.29-5.5-12.29-12.28c0-6.79 5.5-12.28 12.29-12.28h158.95c6.79 0 12.28 5.49 12.28 12.28z" />
					<g id="&lt;Group&gt;">
						<path id="&lt;Path&gt;" class="s4" d="m1025.87 657.06c0 41.1-33.32 74.43-74.42 74.43c-41.11 0-74.43-33.32-74.43-74.43c0-41.09 33.31-74.42 74.43-74.42c41.1 0 74.42 33.33 74.42 74.42z" />
						<g id="&lt;Clip Group&gt;" clip-path="url(#cp2)">
							<g id="&lt;Group&gt;">
								<path id="&lt;Path&gt;" class="s15" d="m965.87 725.69c2.57 12.04-37.21 3.43-37.21-7.29c13.27-22.9-18.84-24.64-19.82-74.31c-0.6-30.21 82.73-22.09 82.97 0c0.47 43.98-37.53 65.56-25.95 81.6z" />
								<path id="&lt;Path&gt;" class="s16" d="m976.68 764.19c-0.45-4.8-2.46-18.4-6.06-40.8l6.08-17.8c5.58-0.08 8.85 3.42 9.82 10.5c0.97 7.08 1.9 23.22 2.78 48.43l0.32 4.31h-12.19c-0.39-2-0.67-3.62-0.76-4.65z" />
								<path id="&lt;Path&gt;" class="s16" d="m908.34 768.84l0.35-4.73c0.88-25.21 1.81-41.35 2.78-48.42c0.97-7.08 4.24-10.58 9.82-10.51l6.08 17.8c-3.6 22.4-5.62 36-6.05 40.8c-0.1 1.1-0.4 2.87-0.84 5.06h-12.15z" />
								<path id="&lt;Path&gt;" class="s17" d="m915.97 743.09c0.07-3.83 2.75-10.4 8.04-19.71l-2.96-18.5l14.26-6.56h28.31l14.57 6.88l-3.4 18.18c6.52 9.61 9.8 16.17 9.85 19.71c0.04 3.54-2.51 7.21-7.65 11.02l-4.89 14.72h-46.1l-3.28-14.72c-4.57-3.52-6.81-7.2-6.74-11.02z" />
								<path id="&lt;Path&gt;" class="s16" d="m963.62 698.32c3.43 13.42 4.21 21.85 2.35 25.28c-3.12 5.79-28.44 5.31-31.83 0c-2.27-3.54-1.87-11.97 1.18-25.28l4.35-0.22v-21.22h19.46v20.33l4.49 1.11z" />
								<path id="&lt;Path&gt;" class="s18" d="m939.67 692.38v-15.5h19.46v17.16c-1.04 0.44-2.13 0.83-3.26 1.15c-6.02 1.69-11.04-0.41-16.2-2.82z" />
								<path id="&lt;Path&gt;" class="s16" d="m991.95 665.19c-1.78 0.74-3.7 0.47-5.75-0.8c-9.14 0.47-13.71-0.48-13.71-2.86c0-3.57 0-5.6 0-11.96c0-5.68 4.57-8.25 13.71-7.69c2.06-2.88 4.48-3.34 7.25-1.36c6.55 4.67 3.65 22.51-1.49 24.67z" />
								<path id="&lt;Path&gt;" class="s16" d="m909.44 640.51c2.77-1.97 5.18-1.52 7.25 1.36c9.14-0.56 13.7 2 13.7 7.69c0 6.36 0 8.39 0 11.96c0 2.38-4.57 3.33-13.7 2.86c-2.06 1.27-3.98 1.54-5.77 0.8c-5.14-2.16-8.04-20-1.49-24.67z" />
								<path id="&lt;Path&gt;" class="s16" d="m986.52 660.29c0 15.88-22.98 33.47-35.29 33.47c-13.55 0-35.29-18.71-35.29-34.45c0-18.57 0-18.57 0-33.17c0-46.89 70.58-49.98 70.58 0c0 31.84 0 11.38 0 34.15z" />
								<path id="&lt;Path&gt;" class="s15" d="m919.19 656.7c-3.61-0.83-3.19-6.11-3.73-11.11c-0.66-6.19-3.41-7.04-8.25-2.54c-1.03-7.38-1.54-13.81-1.55-19.28c-0.02-10.85 13.69-41.46 45.39-34.12c33.28-8.44 41.24 27.63 41.24 35.38v14.46c-3.56 1-5.33 2.89-5.29 5.7c0.03 2.8 0.03 6.92 0 12.35c-0.65-2.74-2.88-5.81-2.63-15.25c-22.46-3.37-27.88-13.23-34.53-30.04c-6.85 19.52-32 25.67-31.75 30.14c0.32 5.69 0.63 9.84 1.1 14.31z" />
								<path id="&lt;Path&gt;" class="s18" d="m954.66 664.83l-4.09 3.22v-23.24l4.09 20.02z" />
								<path id="&lt;Path&gt;" class="s15" d="m944.44 640.24c-4.16-2.8-7.57-3.76-10.23-2.87c-2.65 0.88-5.63 2.76-8.96 5.64l-0.54-2.08c2.48-3 5.52-4.64 9.12-4.93c3.62-0.29 7.15 1.12 10.61 4.24z" />
								<g id="&lt;Group&gt;">
									<path id="&lt;Path&gt;" class="s19" d="m951.38 675.82c0.95 0.04 4.06 0.19 9.33 0.45c-1.82 1.75-3 2.7-3.52 2.87c-2.31 0.79-9.16 0.49-11.05 0.36c-1.25-0.09-2.97-1.19-5.17-3.3c6-0.3 9.47-0.43 10.41-0.39z" />
									<path id="&lt;Path&gt;" class="s19" d="m935.75 673.77c3.23 1.17 5.49 1.68 6.79 1.54c1.93-0.22 5.19-2.94 5.96-2.62c0.51 0.22 1.41 0.6 2.71 1.15c1.68-0.85 2.78-1.23 3.3-1.15c0.77 0.14 4.8 2.81 6.2 2.62c0.94-0.13 2.5-0.64 4.68-1.54c-2.7 1.79-4.59 2.84-5.68 3.16c-2.98 0.89-6.18-0.03-8.31-0.17c-2.55-0.17-6.26 1.63-9.16 0.09c-1.95-1.02-4.11-2.05-6.5-3.08z" />
								</g>
								<path id="&lt;Path&gt;" class="s15" d="m969.06 635.6c3.61 0.3 6.65 1.94 9.13 4.93l-0.55 2.08c-3.32-2.88-6.3-4.76-8.96-5.64c-2.65-0.88-6.06 0.07-10.23 2.87c3.46-3.13 7-4.54 10.61-4.24z" />
								<g id="&lt;Group&gt;">
									<path id="&lt;Path&gt;" class="s11" d="m960.45 647.12c-0.26-0.17-0.69-0.25-1.29-0.25c1.45-2.64 4.1-3.96 7.97-3.96c3.87 0 6.6 1.34 8.2 4.03c-1.67 0.56-2.63 0.92-2.9 1.08c-1.45-0.91-0.76-4.3-5.3-4.3c-4.55 0-5.21 2.49-6.68 3.39z" />
									<path id="&lt;Path&gt;" class="s2" d="m974.23 646.94c-0.63 2.28-2.88 3.42-6.74 3.42c-3.87 0-6.6-1.17-8.19-3.5c1.59-2.24 4.32-3.35 8.19-3.35c3.87 0 6.12 1.14 6.74 3.42z" />
									<g id="&lt;Group&gt;">
										<path id="&lt;Path&gt;" class="s11" d="m965.21 643.56c0.73-0.11 1.49-0.18 2.28-0.18c0.79 0 1.55 0.07 2.29 0.18c1.03 0.74 1.7 1.94 1.7 3.31c0 1.37-0.67 2.59-1.7 3.32c-0.74 0.11-1.5 0.18-2.29 0.18c-0.79 0-1.55-0.06-2.28-0.18c-1.03-0.73-1.71-1.95-1.71-3.32c0-1.37 0.68-2.58 1.71-3.31z" />
									</g>
									<path id="&lt;Path&gt;" class="s12" d="m969.1 646.94c0 0.89-0.72 1.63-1.62 1.63c-0.9 0-1.62-0.73-1.62-1.63c0-0.89 0.72-1.61 1.62-1.61c0.9 0 1.62 0.73 1.62 1.61z" />
									<path id="&lt;Path&gt;" class="s2" d="m967.06 645.4c0 0.41-0.33 0.73-0.73 0.73c-0.4 0-0.73-0.32-0.73-0.73c0-0.4 0.32-0.72 0.73-0.72c0.4 0 0.73 0.32 0.73 0.72z" />
									<path id="&lt;Path&gt;" class="s2" d="m967.53 646.99c0 0.21-0.18 0.38-0.39 0.38c-0.21 0-0.38-0.18-0.38-0.38c0-0.21 0.17-0.38 0.38-0.38c0.21 0 0.39 0.17 0.39 0.38z" />
								</g>
								<g id="&lt;Group&gt;">
									<path id="&lt;Path&gt;" class="s11" d="m935.76 643.73c-4.55 0-3.84 3.39-5.31 4.3c-0.27-0.16-1.23-0.52-2.89-1.08c1.6-2.69 4.34-4.03 8.2-4.03c3.87 0 6.53 1.32 7.97 3.96c-0.6 0-1.03 0.08-1.3 0.25c-1.46-0.91-2.11-3.39-6.67-3.39z" />
									<path id="&lt;Path&gt;" class="s2" d="m935.41 643.51c3.87 0 6.6 1.12 8.19 3.35c-1.59 2.33-4.32 3.5-8.19 3.5c-3.87 0-6.12-1.14-6.74-3.42c0.63-2.28 2.88-3.42 6.74-3.42z" />
									<g id="&lt;Group&gt;">
										<path id="&lt;Path&gt;" class="s11" d="m939.38 646.87c0 1.37-0.67 2.59-1.69 3.32c-0.74 0.11-1.5 0.18-2.29 0.18c-0.78 0-1.55-0.06-2.28-0.18c-1.04-0.73-1.7-1.95-1.7-3.32c0-1.37 0.66-2.58 1.7-3.31c0.73-0.11 1.5-0.18 2.28-0.18c0.79 0 1.55 0.07 2.29 0.18c1.02 0.74 1.69 1.94 1.69 3.31z" />
									</g>
									<path id="&lt;Path&gt;" class="s12" d="m935.41 645.33c0.89 0 1.62 0.73 1.62 1.61c0 0.89-0.73 1.63-1.62 1.63c-0.9 0-1.61-0.73-1.61-1.63c0-0.89 0.71-1.61 1.61-1.61z" />
									<path id="&lt;Path&gt;" class="s2" d="m936.57 644.68c0.4 0 0.71 0.32 0.71 0.72c0 0.41-0.32 0.73-0.71 0.73c-0.4 0-0.73-0.32-0.73-0.73c0-0.4 0.33-0.72 0.73-0.72z" />
									<path id="&lt;Path&gt;" class="s2" d="m935.75 646.61c0.22 0 0.39 0.17 0.39 0.38c0 0.21-0.16 0.38-0.39 0.38c-0.2 0-0.38-0.18-0.38-0.38c0-0.21 0.18-0.38 0.38-0.38z" />
								</g>
							</g>
						</g>
					</g>
					<path id="&lt;Path&gt;" class="s13" d="m1138.09 607.04h-99.93v-18.9h99.93v18.9z" />
					<path id="&lt;Path&gt;" class="s4" d="m1138.09 630h-99.93v-9.45h99.93v9.45z" />
					<path id="&lt;Path&gt;" class="s4" d="m1138.09 649.34h-28.83h-71.1v-9.45h99.93v9.45z" />
					<path id="&lt;Path&gt;" class="s4" d="m1138.09 668.71h-99.93v-9.46h99.93v9.46z" />
					<path id="&lt;Path&gt;" class="s4" d="m1138.09 688.06h-99.93v-9.46h99.93v9.46z" />
					<path id="&lt;Path&gt;" class="s4" d="m1138.09 707.41h-99.93v-9.45h99.93v9.45z" />
					<path id="&lt;Path&gt;" class="s4" d="m1138.09 726.76h-99.93v-9.45h99.93v9.45z" />
					<path id="&lt;Path&gt;" class="s4" d="m1138.09 766.38h-247.56v-9.45h247.56v9.45z" />
					<path id="&lt;Path&gt;" class="s4" d="m1138.09 789.79h-247.56v-9.45h247.56v9.45z" />
				</g>
			</g>
		</g>
		<g id="&lt;Group&gt;">
			<g id="&lt;Group&gt;">
				<path id="&lt;Path&gt;" class="s20" d="m890.59 1145.85c0 14.61-113.18 26.46-252.8 26.46c-139.62 0-252.8-11.84-252.8-26.46c0-14.61 113.18-26.46 252.8-26.46c139.62 0 252.8 11.84 252.8 26.46z" />
				<path id="&lt;Path&gt;" class="s20" d="m870.58 1145.85c0 13.46-104.22 24.36-232.79 24.36c-128.57 0-232.79-10.91-232.79-24.36c0-13.45 104.22-24.36 232.79-24.36c128.57 0 232.79 10.91 232.79 24.36z" />
				<path id="&lt;Path&gt;" class="s20" d="m987.11 1145.85c0 20.19-156.39 36.56-349.31 36.56c-192.92 0-349.31-16.37-349.31-36.56c0-20.19 156.39-36.55 349.31-36.55c192.92 0 349.31 16.37 349.31 36.55z" />
				<path id="&lt;Path&gt;" class="s20" d="m959.46 1145.85c0 18.59-144.02 33.67-321.67 33.67c-177.65 0-321.67-15.07-321.67-33.67c0-18.59 144.01-33.66 321.67-33.66c177.65 0 321.67 15.07 321.67 33.66z" />
				<path id="&lt;Path&gt;" class="s20" d="m936.07 1145.85c0 17.24-133.54 31.22-298.27 31.22c-164.73 0-298.27-13.97-298.27-31.22c0-17.24 133.54-31.21 298.27-31.21c164.73 0 298.27 13.97 298.27 31.21z" />
				<path id="&lt;Path&gt;" class="s20" d="m910.55 1145.85c0 15.76-122.11 28.54-272.75 28.54c-150.64 0-272.75-12.78-272.75-28.54c0-15.76 122.12-28.54 272.75-28.54c150.64 0 272.75 12.78 272.75 28.54z" />
				<path id="&lt;Path&gt;" class="s20" d="m750.7 1145.85c0 6.53-50.55 11.82-112.91 11.82c-62.36 0-112.91-5.29-112.91-11.82c0-6.52 50.55-11.82 112.91-11.82c62.36 0 112.91 5.29 112.91 11.82z" />
				<path id="&lt;Path&gt;" class="s20" d="m741.77 1145.85c0 6.01-46.55 10.88-103.97 10.88c-57.42 0-103.97-4.87-103.97-10.88c0-6.01 46.55-10.88 103.97-10.88c57.42 0 103.97 4.87 103.97 10.88z" />
				<path id="&lt;Path&gt;" class="s20" d="m734.21 1145.85c0 5.57-43.17 10.09-96.41 10.09c-53.24 0-96.41-4.52-96.41-10.09c0-5.57 43.17-10.09 96.41-10.09c53.24 0 96.41 4.51 96.41 10.09z" />
				<path id="&lt;Path&gt;" class="s20" d="m725.96 1145.85c0 5.1-39.47 9.23-88.16 9.23c-48.69 0-88.16-4.13-88.16-9.23c0-5.09 39.47-9.23 88.16-9.23c48.69 0 88.16 4.13 88.16 9.23z" />
				<path id="&lt;Path&gt;" class="s20" d="m792.64 1145.85c0 8.95-69.32 16.2-154.84 16.2c-85.51 0-154.84-7.25-154.84-16.2c0-8.95 69.33-16.2 154.84-16.2c85.52 0 154.84 7.26 154.84 16.2z" />
				<path id="&lt;Path&gt;" class="s20" d="m780.38 1145.85c0 8.24-63.84 14.92-142.58 14.92c-78.75 0-142.59-6.68-142.59-14.92c0-8.24 63.84-14.92 142.59-14.92c78.75 0 142.58 6.68 142.58 14.92z" />
				<path id="&lt;Path&gt;" class="s20" d="m770.01 1145.85c0 7.64-59.2 13.84-132.22 13.84c-73.02 0-132.22-6.19-132.22-13.84c0-7.64 59.2-13.84 132.22-13.84c73.02 0 132.22 6.2 132.22 13.84z" />
				<path id="&lt;Path&gt;" class="s20" d="m758.7 1145.85c0 6.99-54.13 12.65-120.9 12.65c-66.77 0-120.9-5.66-120.9-12.65c0-6.99 54.13-12.65 120.9-12.65c66.77 0 120.9 5.66 120.9 12.65z" />
				<path id="&lt;Path&gt;" class="s20" d="m851.75 1145.85c0 12.37-95.79 22.39-213.96 22.39c-118.17 0-213.96-10.03-213.96-22.39c0-12.37 95.79-22.39 213.96-22.39c118.17 0 213.96 10.03 213.96 22.39z" />
				<path id="&lt;Path&gt;" class="s20" d="m834.82 1145.85c0 11.39-88.21 20.62-197.02 20.62c-108.81 0-197.02-9.23-197.02-20.62c0-11.38 88.21-20.62 197.02-20.62c108.81 0 197.02 9.23 197.02 20.62z" />
				<path id="&lt;Path&gt;" class="s20" d="m820.49 1145.85c0 10.56-81.8 19.12-182.7 19.12c-100.9 0-182.7-8.56-182.7-19.12c0-10.56 81.8-19.12 182.7-19.12c100.9 0 182.7 8.56 182.7 19.12z" />
				<path id="&lt;Path&gt;" class="s20" d="m804.86 1145.85c0 9.66-74.8 17.48-167.06 17.48c-92.27 0-167.06-7.83-167.06-17.48c0-9.65 74.79-17.48 167.06-17.48c92.27 0 167.06 7.83 167.06 17.48z" />
				<path id="&lt;Path&gt;" class="s20" d="m715.64 1145.85c0 4.5-34.85 8.15-77.85 8.15c-43 0-77.85-3.65-77.85-8.15c0-4.5 34.85-8.15 77.85-8.15c43 0 77.85 3.65 77.85 8.15z" />
				<path id="&lt;Path&gt;" class="s20" d="m708.77 1145.85c0 4.1-31.78 7.43-70.97 7.43c-39.2 0-70.97-3.33-70.97-7.43c0-4.1 31.78-7.43 70.97-7.43c39.2 0 70.97 3.33 70.97 7.43z" />
				<path id="&lt;Path&gt;" class="s20" d="m703.96 1145.85c0 3.83-29.62 6.93-66.16 6.93c-36.54 0-66.16-3.1-66.16-6.93c0-3.82 29.62-6.92 66.16-6.92c36.54 0 66.16 3.1 66.16 6.92z" />
				<path id="&lt;Path&gt;" class="s20" d="m698.72 1145.85c0 3.52-27.28 6.38-60.93 6.38c-33.65 0-60.93-2.86-60.93-6.38c0-3.52 27.28-6.38 60.93-6.38c33.65 0 60.93 2.86 60.93 6.38z" />
				<path id="&lt;Path&gt;" class="s20" d="m694.29 1145.85c0 3.27-25.29 5.92-56.5 5.92c-31.2 0-56.5-2.65-56.5-5.92c0-3.26 25.3-5.91 56.5-5.91c31.2 0 56.5 2.65 56.5 5.91z" />
				<path id="&lt;Path&gt;" class="s20" d="m689.46 1145.85c0 2.99-23.13 5.41-51.66 5.41c-28.53 0-51.66-2.42-51.66-5.41c0-2.99 23.13-5.41 51.66-5.41c28.53 0 51.66 2.42 51.66 5.41z" />
				<path id="&lt;Path&gt;" class="s20" d="m683.42 1145.85c0 2.64-20.43 4.78-45.62 4.78c-25.2 0-45.62-2.14-45.62-4.78c0-2.63 20.43-4.77 45.62-4.77c25.2 0 45.62 2.14 45.62 4.77z" />
				<path id="&lt;Path&gt;" class="s20" d="m679.39 1145.85c0 2.41-18.62 4.35-41.59 4.35c-22.97 0-41.59-1.95-41.59-4.35c0-2.4 18.62-4.35 41.59-4.35c22.97 0 41.59 1.95 41.59 4.35z" />
				<path id="&lt;Path&gt;" class="s20" d="m679.39 1145.85c0 2.41-18.62 4.35-41.59 4.35c-22.97 0-41.59-1.95-41.59-4.35c0-2.4 18.62-4.35 41.59-4.35c22.97 0 41.59 1.95 41.59 4.35z" />
				<path id="&lt;Path&gt;" class="s20" d="m676.1 1145.85c0 2.21-17.15 4.01-38.3 4.01c-21.15 0-38.3-1.8-38.3-4.01c0-2.21 17.15-4.01 38.3-4.01c21.15 0 38.3 1.8 38.3 4.01z" />
				<path id="&lt;Path&gt;" class="s20" d="m673.31 1145.85c0 2.05-15.9 3.72-35.51 3.72c-19.61 0-35.51-1.66-35.51-3.72c0-2.05 15.9-3.71 35.51-3.71c19.61 0 35.51 1.66 35.51 3.71z" />
				<path id="&lt;Path&gt;" class="s20" d="m670.27 1145.85c0 1.88-14.54 3.4-32.48 3.4c-17.94 0-32.48-1.52-32.48-3.4c0-1.88 14.54-3.4 32.48-3.4c17.94 0 32.48 1.52 32.48 3.4z" />
				<path id="&lt;Path&gt;" class="s20" d="m666.47 1145.85c0 1.66-12.84 3-28.68 3c-15.84 0-28.68-1.34-28.68-3c0-1.66 12.84-3 28.68-3c15.84 0 28.68 1.34 28.68 3z" />
				<path id="&lt;Path&gt;" class="s20" d="m663.94 1145.85c0 1.51-11.7 2.74-26.14 2.74c-14.44 0-26.14-1.22-26.14-2.74c0-1.51 11.7-2.73 26.14-2.73c14.44 0 26.14 1.22 26.14 2.73z" />
				<path id="&lt;Path&gt;" class="s20" d="m662.17 1145.85c0 1.41-10.91 2.55-24.37 2.55c-13.46 0-24.37-1.14-24.37-2.55c0-1.41 10.91-2.55 24.37-2.55c13.46 0 24.37 1.14 24.37 2.55z" />
				<path id="&lt;Path&gt;" class="s20" d="m660.24 1145.85c0 1.3-10.05 2.35-22.44 2.35c-12.4 0-22.44-1.05-22.44-2.35c0-1.3 10.05-2.35 22.44-2.35c12.4 0 22.44 1.05 22.44 2.35z" />
				<path id="&lt;Path&gt;" class="s20" d="m658.61 1145.85c0 1.2-9.32 2.18-20.81 2.18c-11.49 0-20.81-0.98-20.81-2.18c0-1.2 9.32-2.18 20.81-2.18c11.49 0 20.81 0.98 20.81 2.18z" />
				<path id="&lt;Path&gt;" class="s20" d="m656.83 1145.85c0 1.1-8.52 1.99-19.03 1.99c-10.51 0-19.03-0.89-19.03-1.99c0-1.1 8.52-1.99 19.03-1.99c10.51 0 19.03 0.89 19.03 1.99z" />
				<path id="&lt;Path&gt;" class="s20" d="m654.6 1145.85c0 0.97-7.52 1.76-16.8 1.76c-9.28 0-16.8-0.79-16.8-1.76c0-0.97 7.52-1.76 16.8-1.76c9.28 0 16.8 0.79 16.8 1.76z" />
				<path id="&lt;Path&gt;" class="s20" d="m653.12 1145.85c0 0.89-6.86 1.61-15.32 1.61c-8.46 0-15.32-0.72-15.32-1.61c0-0.88 6.86-1.6 15.32-1.6c8.46 0 15.32 0.72 15.32 1.6z" />
				<path id="&lt;Path&gt;" class="s20" d="m650.94 1145.85c0 0.76-5.89 1.38-13.15 1.38c-7.26 0-13.15-0.62-13.15-1.38c0-0.76 5.89-1.37 13.15-1.37c7.26 0 13.15 0.62 13.15 1.37z" />
				<path id="&lt;Path&gt;" class="s20" d="m648.62 1145.85c0 0.63-4.85 1.13-10.83 1.13c-5.98 0-10.83-0.51-10.83-1.13c0-0.62 4.85-1.13 10.83-1.13c5.98 0 10.83 0.51 10.83 1.13z" />
				<path id="&lt;Path&gt;" class="s20" d="m645.27 1145.85c0 0.43-3.35 0.78-7.48 0.78c-4.13 0-7.48-0.35-7.48-0.78c0-0.43 3.35-0.78 7.48-0.78c4.13 0 7.48 0.35 7.48 0.78z" />
				<path id="&lt;Path&gt;" class="s20" d="m642.86 1145.85c0 0.3-2.27 0.53-5.07 0.53c-2.8 0-5.07-0.23-5.07-0.53c0-0.29 2.27-0.53 5.07-0.53c2.8 0 5.07 0.24 5.07 0.53z" />
			</g>
			<g id="&lt;Group&gt;">
				<g id="&lt;Group&gt;">
					<path id="&lt;Path&gt;" class="s21" d="m346 997.55l21.42-27.72c3.86 3.23 13.23 9.43 28.11 18.6c18.52-5.55 35.5-4.17 50.92 4.14c8 3.91 18.43 8.73 31.3 14.48c22.8 4.75 27.18 10.66 13.15 17.72c-10.65 1.98-24.11-1.49-40.37-10.39c0.71 0.86 5.29 3.86 13.75 9c14.9 9.26 26.31 18.64 42.51 32.65c2.79 2.42 5.01 8.19 2.95 11.28c-1.45 2.18-5.22 2.9-8.11 2.87c-2-0.02-4.28-1.78-5.96-2.77c-6.47-3.8-11.7-8.47-19.93-14.07c-6.94-4.73-14.47-9.77-20.75-15.33c2.02 1.46 3.91 3.11 5.87 4.64c8.87 6.94 17.42 14.26 26.04 21.51c4.21 3.54 8.06 7.35 12.12 11.03c1.95 1.77 4.13 3.43 5.39 5.8c1.14 2.14 1.94 6.92 0.58 9.13c-3.85 6.29-12.85 1.46-16.52-1.42c-0.12-0.09-18.46-14.49-55.04-43.21c0.04 0.02 0.08 0.04 0.12 0.07c1.9 1.44 3.74 3.01 5.57 4.54c3.9 3.26 7.82 6.49 11.74 9.74c4.71 3.9 9.32 7.88 13.96 11.85c4.2 3.58 8.6 7.3 12.38 11.32c1.41 1.49 2.83 2.89 4.34 4.27c1.49 1.37 3.26 4.29 3.48 6.3c0.2 1.85 0.33 3.93-0.93 5.43c-2.36 2.79-6.9 1.84-9.56 0.15c-3.11-1.98-6.04-4.27-9.02-6.42c-4.13-2.96-8.23-5.95-12.33-8.93c-4.33-3.16-8.68-6.29-13.01-9.43c-3.44-2.5-6.88-4.99-10.33-7.48c-1.41-1.02-2.82-2.04-4.22-3.05c1.24 0.98 2.37 2.14 3.56 3.17c5.37 4.67 10.52 9.6 15.91 14.24c2.58 2.22 4.98 4.68 7.61 6.82c2.93 2.39 6.33 5.38 5.37 9.72c-0.9 4.03-5.89 4.65-8.92 2.82c-3.79-2.29-7.58-4.58-11.38-6.86c-6.45-3.89-12.9-7.78-19.35-11.67c-3.29-1.98-6.57-3.96-9.86-5.95c-14.47-8.73-28.65-21.6-36.17-37.91c-3.7-8.02-12.48-21.57-26.36-40.66z" />
					<path id="&lt;Path&gt;" class="s21" d="m912.44 1010.96c1.51 17.89-4.48 36.08-12.76 50.82c-1.88 3.35-3.77 6.69-5.64 10.03c-3.69 6.57-7.38 13.13-11.07 19.7c-2.18 3.86-4.34 7.72-6.52 11.58c-1.73 3.08-6.38 5.01-9.15 1.95c-2.98-3.3-1.49-7.58-0.12-11.1c1.22-3.16 2.1-6.49 3.25-9.69c2.4-6.7 4.44-13.52 6.81-20.23c0.53-1.48 0.93-3.06 1.53-4.52c-0.72 1.58-1.45 3.16-2.17 4.74c-1.78 3.87-3.53 7.73-5.3 11.6c-2.22 4.88-4.46 9.74-6.67 14.62c-2.1 4.63-4.2 9.24-6.32 13.85c-1.54 3.35-2.95 6.78-4.68 10.03c-1.48 2.79-4.96 5.85-8.39 4.58c-1.84-0.68-2.75-2.55-3.49-4.26c-0.8-1.86-0.7-5.27-0.08-7.2c0.63-1.95 1.18-3.86 1.66-5.86c1.31-5.36 3.31-10.77 5.19-15.96c2.09-5.74 4.13-11.48 6.3-17.19c1.81-4.75 3.62-9.5 5.41-14.26c0.83-2.23 1.65-4.51 2.6-6.7c0.02-0.04 0.04-0.08 0.06-0.12c-17.65 43.03-26.5 64.61-26.56 64.74c-1.78 4.32-7.22 12.96-13.67 9.39c-2.28-1.26-3.93-5.81-4-8.23c-0.07-2.68 1.01-5.2 1.83-7.7c1.71-5.2 3.18-10.42 5.1-15.57c3.92-10.55 7.75-21.14 12.04-31.55c0.95-2.3 1.78-4.67 2.82-6.93c-2.72 7.94-6.78 16.04-10.49 23.57c-4.4 8.94-6.64 15.58-10.4 22.08c-0.97 1.69-2.09 4.35-3.81 5.35c-2.5 1.45-6.13 2.69-8.48 1.51c-3.32-1.68-4.24-7.79-3-11.27c7.19-20.17 12.48-33.97 20.87-49.37c4.83-8.64 7.34-13.51 7.52-14.61c-9.76 15.77-19.75 25.43-29.99 28.96c-15.69 0.78-14.79-6.53 2.7-21.91c8.36-11.34 15.05-20.68 20.08-28.03c9.32-14.84 23.41-24.41 42.26-28.73c8.42-15.32 13.51-25.33 15.27-30.04l46.36 19.44c-12.03 19.52-17.67 33.67-16.92 42.47z" />
					<g id="&lt;Group&gt;">
						<path id="&lt;Path&gt;" class="s22" d="m707.3 604.39c-9 46.9-1.5 71.56 22.5 73.97c-63 49.3-118.5 49.3-166.5 0c21-15.64 27.84-33.79 20.51-54.46l123.49-19.51z" />
						<path id="&lt;Path&gt;" class="s23" d="m912.65 1016.4c-16.31-26.34-43.8-31.51-82.46-15.51l34.61-62l-77.5-89.42l-19.21 158.92h-245.2l-14.59-159l-92 93.65l8.84 43.22c-37.22-3.92-58.38 8.08-63.47 35.99c-17.91-11.58-30.03-40.2-36.37-85.86l104.02-182.26c22.64-37.4 65.77-52.55 102.29-72.86c13.12-7.29 26.2-14.64 39.35-21.87c59.28 51.67 112.57 51.67 159.88 0c21.16 8.61 42.32 17.22 63.46 25.87c38.89 15.93 76.11 41.66 90.64 84.24l65.38 170.88c-5.74 27.28-18.29 52.62-37.65 76.01z" />
						<path id="&lt;Path&gt;" class="s21" d="m764.89 530.29c-7.52 9.17-11.55 19.63-12.09 31.38c-2.18 5.15-4.94 7.16-8.27 6.03c-12.87 39.56-38.47 66.88-68.1 85.14c-20.68 16.26-44.97 15.24-72.85-3.04c-24.64-17.69-50.04-45.95-63.85-82.98c-3.95 2.89-7.26 1.18-9.93-5.14c-0.54-11.75-4.57-22.21-12.09-31.38c-10.52-21.05 7.98-22.3 11.52-22.36c0.14-91.66 50.27-141.54 112.07-141.54c61.81 0 111.94 49.88 112.08 141.54c3.54 0.05 22.03 1.31 11.51 22.36z" />
						<path id="&lt;Path&gt;" class="s24" d="m754.55 508.39c-3.67 7.79-20.58 18.51-18.75 28.61c0 0.56 0 0.56 0 0c-2.27-3.54 0.34-14.52 0-18.86c-0.6-7.51-2.01-14.42-3.75-21.77c-3.64-15.33-8.14-29.08-17.04-42.17c-10.49-15.45-22.41-25.59-42.96-24.56c-12.36 0.62-30.94 3.6-32.98 18.53c-10.54-25.05-55.58-24.68-70.52-3.94c-8.75 12.15-12.34 25.79-14.4 40.33c-1.24 8.75-1.75 17.65-3.43 26.25c-1.02 5.18-1.8 15.85-4.66 19.33c-1.93-10.11-7.54-17.51-16.83-22.21c-13.73-6.94-1.32-74.52 1.63-84.56c14.16-48.24 56.33-76.41 104.7-81.52c24.3-2.57 48.35-8.95 73.2-7.16c-5.4 3.92-10.99 9.21-15.63 14.51c14.12-2.27 27.49-6.71 42.55-5.59c-7.98 5.85-4.31 14.79-8.31 23.55c17.5-1.06 30.46 20.59 39.48 33.04c-8.38-2.22-16.29-6.53-24.6-8.92c36.83 10.58 23.38 93.56 12.3 117.11z" />
						<path id="&lt;Path&gt;" class="s25" d="m656.75 693.83c22.8 0.63 47.49-10.85 74.07-34.44l24.31 9.89c-19.66 36.4-56.09 51.35-108.59 52.1c-0.56 0.01-1.12 0.01-1.68 0.01c-34.61-0.17-68.73-15.57-102.36-46.21l28.44-15.79c32.9 24.16 61.5 35.64 85.8 34.44z" />
					</g>
					<g id="&lt;Group&gt;">
						<path id="&lt;Path&gt;" class="s26" d="m846.68 1084.96c0 9.84-7.98 17.81-17.81 17.81h-376.4c-9.84 0-17.81-7.97-17.81-17.81v-274.53c0-9.84 7.97-17.81 17.81-17.81h376.4c9.83 0 17.81 7.97 17.81 17.81v274.53z" />
						<path id="&lt;Path&gt;" class="s27" d="m841.48 814.2v153.58c0 69.93-7.78 126.62-17.37 126.62h-367.18c-9.6 0-17.37-56.69-17.37-126.62v-153.58h401.93z" />
						<path id="&lt;Path&gt;" class="s27" d="m553.25 1111.58h-56.91v-13.42h56.91v13.42z" />
						<path id="&lt;Path&gt;" class="s27" d="m774.89 1111.58h-56.9v-13.42h56.9v13.42z" />
						<path id="&lt;Path&gt;" class="s26" d="m392.78 1117h497.03c-4.57 14.5-11 24.52-19.28 30.04h-432.75c-27.1-2.76-42.1-12.78-44.99-30.04z" />
					</g>
				</g>
				<g id="&lt;Group&gt;">
					<path id="&lt;Compound Path&gt;" fill-rule="evenodd" class="s26" d="m743.9 541.07c-7.18 21.12-18.62 31.94-45.23 31.94c-26.62 0-40.14-7.19-45.24-31.94c-0.97-4.71-1.04-8.97-0.37-12.81c-3.76-2.7-10.15-5.45-16.56 0.23c0.42 3.43 0.25 7.19-0.6 11.29c-5.1 24.75-18.62 31.94-45.24 31.94c-26.63 0-38.05-10.81-45.24-31.94c-8.11-23.82-0.3-43.98 47.9-40.21c6.88 0.54 13.42 1.78 19.24 3.75l-0.01 0l0.01 0c0 0 0 0 0 0l0.01 0c2.21 0.75 4.31 1.61 6.29 2.58c9.76 3.34 30.09 7.77 55.72-0.5c1.32-0.51 2.69-0.98 4.08-1.4c5.33-1.63 11.2-2.67 17.35-3.15c48.19-3.76 56.01 16.39 47.89 40.22zm-149.64-32.33c-39.89-2.94-46.36 12.79-39.65 31.37c5.95 16.47 15.42 24.91 37.45 24.91c22.03 0 33.22-5.61 37.45-24.91c4.4-20.12-13.27-29.76-35.24-31.37zm100.8 1.29c-21.97 1.62-39.64 11.26-35.24 31.37c4.23 19.31 15.42 24.91 37.45 24.91c22.03 0 31.5-8.44 37.45-24.91c6.71-18.59 0.25-34.31-39.65-31.37z" />
					<path id="&lt;Path&gt;" class="s26" d="m550.94 533.7l-11.67 3l-4.49-30.17h18.6l-2.44 27.17z" />
					<path id="&lt;Path&gt;" class="s26" d="m736.34 506.54h18.6l-4.48 30.17l-11.67-3l-2.45-27.17z" />
				</g>
			</g>
		</g>
	</g>
</svg>