<svg version="1.2" xmlns="http://www.w3.org/2000/svg" viewBox="0 0 400 400" width="400" height="400">
	<title>logo</title>
	<defs>
		<linearGradient id="g1" x1="26.9" y1="277.3" x2="237.1" y2="67.1" gradientUnits="userSpaceOnUse">
			<stop offset="0" stop-color="#ff7a45"/>
			<stop offset="1" stop-color="#0f3ca4"/>
		</linearGradient>
		<radialGradient id="g2" cx="64.2" cy="130.1" r="57.8" gradientUnits="userSpaceOnUse">
			<stop offset="0" stop-color="#b3c7ff"/>
			<stop offset="1" stop-color="#ffffff"/>
		</radialGradient>
		<radialGradient id="g3" cx="323.8" cy="110.4" r="217.7" gradientUnits="userSpaceOnUse">
			<stop offset="0" stop-color="#b3c7ff"/>
			<stop offset="1" stop-color="#ffffff"/>
		</radialGradient>
		<radialGradient id="g4" cx="138.1" cy="135.1" r="19.5" gradientUnits="userSpaceOnUse">
			<stop offset="0" stop-color="#ffffff"/>
			<stop offset="1" stop-color="#ffb699"/>
		</radialGradient>
		<linearGradient id="g5" x1="122" y1="306" x2="382" y2="46" gradientUnits="userSpaceOnUse">
			<stop offset="0" stop-color="#0f3ca4"/>
			<stop offset="1" stop-color="#ff7a45"/>
		</linearGradient>
	</defs>
	<style>
		tspan { white-space:pre } 
		.s0 { fill: url(#g1) } 
		.s1 { fill: url(#g2) } 
		.s2 { fill: url(#g3) } 
		.s3 { fill: url(#g4);stroke: #000000;stroke-width: 2 } 
		.s4 { fill: #0529d3;stroke: #000000;stroke-width: 2 } 
		.s5 { fill: #ff9100;stroke: #000000;stroke-width: 1.5 } 
		.s6 { fill: #ff9100;stroke: #000000;stroke-width: 1.2 } 
		.s7 { fill: #ff9100;stroke: #000000 } 
		.s8 { fill: url(#g5);stroke: #000000 } 
		.s9 { fill: #ffffff;stroke: #000000 } 
		.s10 { fill: #ffffff } 
	</style>
	<g id="base">
		<path id="base_circle copy 2" class="s0" d="m200 354.5c-85.4 0-154.5-69-154.5-154.5c0-85.4 69.1-154.5 154.5-154.5c85.5 0 154.5 69.1 154.5 154.5c0 85.5-69 154.5-154.5 154.5z" />
		<g id="shape">
			<g id="light">
				<path id="Shape 3" class="s1" d="m126.1 143l-118.5 11.4l61.9-64l58.6 29.7" />
				<path id="Shape 4" class="s2" d="m152.4 119.4l162.5-63.4l28.3 86l-193.5 1.7" />
			</g>
			<g id="lighthouse">
				<path id="Shape 2" class="s3" d="m119 155.2v-40.6c0 0 8.6-12.1 20.3-12.1c11.6 0 20.2 12.1 20.2 12.1v40.6z" />
				<path id="Shape 1" class="s4" d="m119 341.1v-27.8v-166.2v-4.1c0 0 12.5-8.1 20.3-8.1c7.8 0 20.2 8.1 20.2 8.1l26.5 211.9z" />
			</g>
			<g id="stripes">
				<path id="Layer 1" class="s5" d="m119 297.1c17.9-12.9 49-22.2 57.6-19.1c0.2 2.1 0.4 1.2 1.6 15.6c-27.8-5.1-59.2 19.7-59.2 19.7" />
				<path id="Layer 1 copy" class="s6" d="m119 249.1c17.9-12.9 43.2-21.7 51.8-18.6c0.2 2.1 0-5.1 1.3 9.3c-29.9-0.5-52.9 22.1-52.9 22.1" />
				<path id="Layer 1 copy 2" class="s7" d="m119 200.1c17.9-12.9 36.2-18.8 45.8-18.1c0.2 2.1 0.1-2.2 1.4 11.6c-28.4 0.7-47.2 20.9-47.2 20.9" />
				<path id="Layer 1 copy 3" class="s7" d="m119.2 165.9c17.9-12.9 27.7-13 41.8-14.9c0.2 2.1-1.8-6.2 0.7 8.2c-32.1 0.3-42.7 18.1-42.7 18.1" />
			</g>
		</g>
		<path id="base_circle" fill-rule="evenodd" class="s8" d="m200 400c-110.6 0-200-89.4-200-200c0-110.6 89.4-200 200-200c110.6 0 200 89.4 200 200c0 110.6-89.4 200-200 200zm150-200c0-83-67.1-150-150-150c-83 0-150 67-150 150c0 82.9 67 150 150 150c82.9 0 150-67.1 150-150z" />
	</g>
	<g id="side design">
		<path id="Shape 1" class="s9" d="m374.9 209.9c-5.6 0-10-4.5-10-10c0-5.6 4.4-10 10-10c5.5 0 10 4.4 10 10c0 5.5-4.5 10-10 10z" />
		<path id="Shape 1 copy" class="s9" d="m24.9 209.9c-5.6 0-10-4.5-10-10c0-5.6 4.4-10 10-10c5.5 0 10 4.4 10 10c0 5.5-4.5 10-10 10z" />
	</g>
	<g id="text_path">
		<path id="JAYA EDUCATIONAL TRUST" fill-rule="evenodd" class="s10" d="m44.7 140.1l-14.7-5.9l1.7-4.2l14.6 5.9q3.1 1.2 3.9 3.5q0.9 2.2-0.5 5.6l-0.3 0.8l-3.2-1.3l0.3-0.6q0.5-1.3 0-2.3q-0.4-0.9-1.8-1.5zm11-19.9l-3.4-0.4l-3.1 6.3l2.3 2.4l-2.1 4.1l-12.6-13.7l2.4-4.8l18.5 2.1zm-14-1.9l5.1 5.3l2.2-4.3zm13.6-11.6h-12.1l2.7-4.1h7.4l-3-6.7l2.7-4.1l4.8 11.1l6.2 4l-2.5 3.8zm20.7-16.1l-3.2-1.2l-4.5 5.4l1.7 2.9l-2.9 3.5l-9.2-16.2l3.4-4.1l17.6 6.2zm-13.3-5l3.8 6.3l3.1-3.7zm26.8-8.6l-11.2-13.4l9.3-7.8l2.2 2.6l-5.9 4.9l2.1 2.5l5.5-4.6l2.2 2.6l-5.5 4.6l2.6 3.1l6-5.1l2.2 2.6zm14.7-11.8l-9.4-14.7l4-2.6q3.3-2.1 5.3-2.7q1.9-0.6 3.8-0.2q1.7 0.3 3.1 1.3q1.3 1 2.3 2.6q1.1 1.7 1.5 3.3q0.3 1.7-0.1 3.3q-0.5 1.9-1.8 3.5q-1.4 1.5-4.7 3.6zm-2.4-15.1l-1.4 0.9l5.8 8.9l1.3-0.8q2.4-1.5 2.9-3.5q0.4-1.9-1-4.1q-1.4-2.2-3.3-2.6q-2-0.3-4.3 1.2zm18.7-2.9l-4.5-9.5l4.1-1.9l4.5 9.5q0.9 1.9 1.9 2.5q1 0.5 2.5-0.1q1.5-0.7 1.7-1.9q0.3-1.1-0.6-3.1l-4.5-9.5l4.1-1.9l4.4 9.5q1.6 3.4 0.7 5.8q-0.9 2.5-4.4 4.1q-3.5 1.6-5.9 0.7q-2.5-0.9-4-4.2zm35.2-11.1l1 3.5q-1 1-2.1 1.7q-1.2 0.7-2.6 1.1q-4.2 1.3-7.4-0.2q-3.1-1.6-4.4-5.6q-1.3-4 0.5-7.1q1.7-3.1 5.8-4.4q1.4-0.4 2.8-0.5q1.4-0.1 2.8 0.1l1.1 3.5q-1.5-0.4-2.8-0.5q-1.3 0-2.6 0.4q-2.3 0.8-3.1 2.6q-0.9 1.9 0 4.5q0.8 2.6 2.6 3.7q1.7 1 4 0.3q1.3-0.4 2.4-1.1q1-0.8 2-2zm18.7 0.8l-1.7-2.9l-6.9 1.3l-0.5 3.3l-4.5 0.9l3.1-18.4l5.3-1l9.7 16zm-7.1-12.3l-1.1 7.3l4.8-0.9zm11.5-2.6l-0.3-3.4l16.1-1.2l0.2 3.4l-5.7 0.5l1 14l-4.5 0.3l-1-14zm21.1 13l0.3-17.5l4.5 0.1l-0.3 17.5zm21.1-16.6q4.2 0.5 6.3 3.2q2.1 2.6 1.6 6.9q-0.5 4.2-3.1 6.3q-2.7 2.1-6.9 1.7q-4.1-0.5-6.3-3.2q-2.1-2.7-1.6-6.9q0.5-4.2 3.2-6.3q2.6-2.2 6.8-1.7zm-0.4 3.3q-2-0.3-3.3 1.1q-1.3 1.4-1.6 4.1q-0.4 2.8 0.6 4.4q1 1.7 3 1.9q2.1 0.2 3.4-1.1q1.3-1.4 1.6-4.2q0.3-2.7-0.6-4.4q-1-1.6-3.1-1.8zm13.4 16.7l4.4-16.9l4.9 1.2l3.1 13.2l3-11.6l4.2 1.1l-4.4 16.9l-4.9-1.2l-3.1-13.3l-3.1 11.7zm32.8 10.7l0.1-3.4l-6.5-2.7l-2.2 2.6l-4.2-1.8l12.6-13.7l5 2l-0.7 18.7zm1.5-14.2l-4.9 5.6l4.4 1.8zm7 18.1l8.5-15.3l3.9 2.2l-6.8 12.3l6.9 3.9l-1.7 2.9zm30.7 2.4l2.1-2.7l12.6 10.1l-2.2 2.7l-4.5-3.7l-8.8 11l-3.5-2.8l8.8-11zm15.9 23.8l-0.9-1l-4.8 4.7l-3.1-3.3l12.5-12.2l4.8 4.9q2.4 2.5 2.7 4.5q0.3 1.9-1.5 3.7q-1.2 1.2-2.6 1.4q-1.4 0.2-2.9-0.7q0.5 0.8 0.4 1.9q0 1-0.5 2.6l-1.9 5.2l-3.3-3.4l1.6-4.6q0.5-1.3 0.4-2.2q-0.2-0.8-0.9-1.5zm1.3-3.1l1.3 1.3q1 1 1.8 1.1q0.8 0.1 1.7-0.8q0.9-0.8 0.8-1.6q-0.1-0.8-1.1-1.8l-1.3-1.4zm10.7 14.9l8.4-6.3l2.7 3.7l-8.4 6.2q-1.7 1.3-2.1 2.5q-0.3 1.1 0.7 2.4q1 1.3 2.1 1.3q1.2 0 2.9-1.3l8.4-6.3l2.7 3.6l-8.4 6.3q-2.9 2.2-5.5 1.8q-2.6-0.4-4.9-3.4q-2.3-3.1-1.9-5.7q0.3-2.5 3.3-4.8zm27.3 24.4l-3.2 1.9q-0.2-1.6-0.6-3q-0.3-1.3-0.9-2.4q-0.8-1.4-1.6-1.8q-0.8-0.5-1.6 0q-0.6 0.3-0.7 1q-0.1 0.6 0.4 2l0.6 1.8q0.9 2.8 0.5 4.5q-0.5 1.7-2.4 2.8q-2.5 1.4-4.6 0.6q-2.1-0.8-3.8-3.9q-0.8-1.4-1.4-3q-0.5-1.7-0.8-3.4l3.3-1.9q0.1 1.9 0.4 3.5q0.4 1.6 1.1 2.8q0.8 1.3 1.6 1.8q0.8 0.4 1.6-0.1q0.7-0.4 0.8-1.1q0.1-0.6-0.3-2.2l-0.6-1.7q-0.8-2.6-0.3-4.2q0.5-1.7 2.3-2.7q2.3-1.3 4.3-0.5q2.1 0.7 3.6 3.5q0.8 1.3 1.3 2.7q0.6 1.4 1 3zm0.7 7.5l3.1-1.3l6.3 14.9l-3.2 1.3l-2.2-5.3l-13 5.4l-1.8-4.1l13-5.5z" />
		<path id="JAYA ENGINEERING COLLEGE" fill-rule="evenodd" class="s10" d="m22.9 237.6l15.4-3.5l1 4.4l-15.4 3.5q-3.2 0.7-5.2-0.7q-1.9-1.4-2.7-4.9l-0.2-0.9l3.3-0.7l0.2 0.7q0.3 1.3 1.2 1.9q0.9 0.5 2.4 0.2zm5.1 24.5l2.7-2l-2.2-6.7l-3.3-0.1l-1.4-4.3l18.6 0.8l1.7 5.1l-14.7 11.5zm11.3-8.5l-7.3-0.1l1.4 4.5zm0.8 18.5l6.4-10.3l2.1 4.5l-4.1 6.2l7.4 1l2 4.5l-12-1.8l-6.7 3l-1.8-4.1zm6.5 27.5l2.1-2.6l-3.7-6l-3.3 0.7l-2.3-3.9l18.3-3.6l2.8 4.6l-11.6 14.7zm9.1-11l-7.2 1.6l2.5 4.1zm5.4 30.3l12.9-11.8l8.2 9l-2.5 2.3l-5.2-5.6l-2.4 2.2l4.9 5.3l-2.6 2.3l-4.8-5.3l-3 2.7l5.4 5.8l-2.6 2.3zm15.5 16.1l11.3-13.4l3.8 3.3l-2.9 13.3l7.8-9.2l3.2 2.7l-11.2 13.4l-3.9-3.2l2.9-13.3l-7.8 9.2zm38.9 16.3l-4.4 7.1q-1.9-0.2-3.7-0.8q-1.7-0.6-3.4-1.6q-3.7-2.4-4.5-5.8q-0.9-3.4 1.3-7q2.3-3.5 5.8-4.2q3.5-0.7 7.3 1.7q1.5 0.9 2.6 2.1q1.2 1.1 2.1 2.4l-1.9 3.1q-0.8-1.5-1.8-2.6q-1-1.2-2.3-1.9q-2.3-1.5-4.3-1q-2 0.5-3.5 2.9q-1.5 2.4-1.1 4.4q0.4 2 2.6 3.4q0.6 0.4 1.1 0.6q0.6 0.3 1.1 0.4l1.8-2.9l-2.3-1.5l1.6-2.5zm2.6 12.1l7.6-15.7l4.1 2l-7.7 15.7zm12.6 6l6-16.5l4.7 1.7l1.9 13.5l4.1-11.3l4 1.5l-5.9 16.4l-4.8-1.7l-1.9-13.5l-4.1 11.3zm24.4 8l3.8-17.1l11.9 2.7l-0.7 3.3l-7.5-1.7l-0.7 3.2l7 1.6l-0.7 3.3l-7-1.5l-0.9 3.9l7.7 1.7l-0.7 3.3zm20.8 4.1l1.7-17.4l12.1 1.2l-0.3 3.4l-7.6-0.8l-0.4 3.3l7.2 0.7l-0.3 3.4l-7.2-0.7l-0.4 4l7.9 0.7l-0.3 3.4zm28.1-5.2l-1.3 0.1l0.2 6.6l-4.5 0.1l-0.5-17.5l6.9-0.2q3.5-0.1 5.1 1.1q1.6 1.1 1.7 3.6q0 1.7-0.8 2.9q-0.8 1.1-2.4 1.7q0.9 0.2 1.6 0.9q0.8 0.7 1.6 2.2l2.6 4.9l-4.8 0.1l-2.3-4.3q-0.7-1.3-1.3-1.7q-0.7-0.5-1.8-0.5zm-2-3l1.9-0.1q1.4 0 2-0.6q0.6-0.5 0.6-1.7q-0.1-1.2-0.7-1.7q-0.6-0.5-2-0.5l-1.9 0.1zm19 8.5l-2.2-17.4l4.5-0.5l2.2 17.3zm13.6-1.9l-4-17l4.9-1.2l9 10.2l-2.8-11.7l4.2-1l4 17.1l-4.9 1.1l-8.9-10.2l2.7 11.7zm36.2-21.5l3.1 7.8q-1.3 1.4-2.8 2.4q-1.5 1.1-3.3 1.8q-4.1 1.6-7.4 0.2q-3.3-1.3-4.8-5.2q-1.5-3.9 0-7.1q1.5-3.2 5.7-4.9q1.7-0.6 3.3-0.9q1.6-0.3 3.1-0.2l1.4 3.4q-1.7-0.3-3.2-0.1q-1.5 0.1-2.8 0.6q-2.6 1-3.4 3q-0.8 1.9 0.3 4.5q1 2.6 2.8 3.5q1.9 0.9 4.3-0.1q0.7-0.2 1.2-0.5q0.5-0.3 0.9-0.7l-1.2-3.1l-2.6 1l-1.1-2.9zm32.6-12.4l2 3q-0.7 1.3-1.6 2.3q-1 1-2.2 1.8q-3.7 2.3-7.2 1.7q-3.4-0.7-5.7-4.2q-2.3-3.5-1.5-7q0.8-3.4 4.5-5.8q1.2-0.8 2.6-1.2q1.3-0.5 2.7-0.6l1.9 3q-1.5 0-2.7 0.3q-1.3 0.3-2.4 1.1q-2 1.3-2.4 3.3q-0.3 2.1 1.2 4.4q1.5 2.2 3.5 2.8q2 0.5 4-0.8q1.1-0.7 1.9-1.7q0.8-1 1.4-2.4zm4.7-20.6q3.2-2.7 6.6-2.5q3.4 0.3 6.1 3.5q2.8 3.2 2.6 6.6q-0.3 3.4-3.5 6.2q-3.2 2.7-6.6 2.4q-3.4-0.2-6.1-3.4q-2.8-3.3-2.6-6.7q0.3-3.4 3.5-6.1zm2.1 2.5q-1.5 1.3-1.4 3.2q0.1 1.9 1.9 4q1.8 2.1 3.7 2.5q1.8 0.4 3.4-0.9q1.6-1.4 1.4-3.3q-0.1-1.9-1.9-3.9q-1.8-2.1-3.7-2.6q-1.8-0.4-3.4 1zm22.6-1.4l-13-11.7l3-3.3l10.5 9.4l5.3-5.9l2.5 2.3zm13.2-15.3l-14.2-10.3l2.6-3.6l11.4 8.2l4.7-6.4l2.7 2zm11.5-16.9l-15.3-8.5l5.9-10.7l3 1.7l-3.7 6.7l2.8 1.6l3.5-6.3l3 1.6l-3.5 6.3l3.5 2l3.9-6.9l2.9 1.6zm7.1-37.8l7.8 3.1q0.2 1.9-0.1 3.7q-0.3 1.9-1 3.7q-1.6 4-4.9 5.5q-3.2 1.5-7.1-0.1q-3.9-1.5-5.2-4.8q-1.3-3.4 0.4-7.6q0.6-1.6 1.5-2.9q0.9-1.4 2-2.5l3.4 1.3q-1.3 1.1-2.2 2.3q-0.9 1.2-1.5 2.5q-1 2.5-0.1 4.5q0.9 1.9 3.5 2.9q2.5 1 4.5 0.3q1.9-0.8 2.8-3.2q0.3-0.6 0.4-1.2q0.2-0.6 0.2-1.1l-3.2-1.3l-1 2.6l-2.8-1.2zm11.9-5.7l-17-4.2l3-11.8l3.3 0.8l-1.9 7.4l3.2 0.8l1.7-7l3.3 0.9l-1.7 7l3.9 0.9l1.9-7.6l3.3 0.8z" />
	</g>
</svg>