<svg version="1.2" baseProfile="tiny-ps" xmlns="http://www.w3.org/2000/svg" viewBox="0 0 2214 2000" width="2214" height="2000">
	<title>Parents preparing cute daughter to school-ai</title>
	<style>
		tspan { white-space:pre }
		.s0 { fill: #ffffff } 
		.s1 { fill: #ebf3fa } 
		.s2 { fill: #ffb27d } 
		.s3 { fill: #2c3a64 } 
		.s4 { fill: #2b478b } 
		.s5 { fill: #233862 } 
		.s6 { fill: #ed7d2b } 
		.s7 { fill: #ffb93e } 
		.s8 { fill: #ed985f } 
		.s9 { fill: #f99746 } 
		.s10 { fill: #f0995e } 
		.s11 { fill: #35488b } 
		.s12 { fill: #232e4f } 
		.s13 { fill: #e3a330 } 
		.s14 { fill: #2e3552 } 
		.s15 { fill: #d2e3fc } 
		.s16 { fill: #b7d3f3 } 
	</style>
	<g id="Layer 1">
		<g id="&lt;Group&gt;">
			<g id="&lt;Group&gt;">
				<path id="&lt;Path&gt;" class="s0" d="m2213.6 1999.77h-2213.55v-2000h2213.55v2000z" />
				<path id="&lt;Path&gt;" class="s1" d="m375.44 1862.47c-180.68-366.33-222.66-692.54-125.96-978.63c438.51-1297.34 1790.07-626.08 1663.74 82.61c-69.47 389.75 188.6 506.52 54.29 896.85l-1592.07-0.83z" />
			</g>
			<g id="&lt;Group&gt;">
				<path id="&lt;Path&gt;" class="s2" d="m1048.51 1068.82l19.7 6.4c20.87-6.91 40.42 1.87 58.67 26.34c5.71 9.11 5.05 17.13-1.98 24.07c-9.71 9.58-11.61-13-30.31-8.49c-18.7 4.5-31.37-2.53-39.71-13.95l-13.77-8.23l7.4-26.14z" />
				<g id="&lt;Group&gt;">
					<path id="&lt;Path&gt;" class="s3" d="m1452.89 447.62c0.13-3.45 2.8-40.67 59.49-42.62c-18.58 2.22-29.48 7.41-32.69 15.58c12.65-10.1 24.13-13.52 34.44-10.27c15.46 4.87 24.54 31.95 24.63 40.86c0.09 8.91-8.5 37.62-18.31 40.06c-3.72 0.92-8 0.68-11.88 0.01c2.61 4.08 5.17 8.57 7.61 13.59c22.62 46.43-0.71 91.81-19.86 86.8c-8.19-2.14-13.44 3.77-15.76 17.74l-119.32-96.6c29.22-60.46 59.77-82.18 91.65-65.16z" />
					<path id="&lt;Path&gt;" class="s2" d="m1163.56 1002.89c-10.2 3.98-17.13 6.47-20.77 7.45c-5.47 1.47-31.8 17.11-37.29 8.56c-5.49-8.55 20.15-34.61 25.56-39.22c3.6-3.07 13.29-3.07 29.05 0l3.45 23.21z" />
					<path id="&lt;Path&gt;" class="s4" d="m1457.2 1535.1c1.22-24.02 0.79-44.94-2.11-60.3c-3.95-20.94-7.14-41.32-9.66-61.06c-9.83-77.12-9.52-144.57-5.23-198.95c1.39-17.82 3.23-34.24 5.26-49.14c7.33-75.72 15.08-121.59 23.28-137.62l55.02 14.48l15.27 48.5l73.89 23.84l6.83 2.19c-13.03 69.09-29.82 163.07-42.77 236.59c-5.63 31.95-10.55 60.01-14.13 80.51c-1.22 7-2.3 13.1-3.17 18.17c-1.26 7.24-2.24 12.91-2.96 17.01c5.23 21.46 6.04 44.69 3.62 68.68c-9.04 89.55-50.25 185.23-123.64 287.01l-25.34-9.44c26.87-113.77 42.16-207.26 45.85-280.47z" />
					<path id="&lt;Path&gt;" class="s5" d="m1445.44 1165.64c7.33-75.72 15.08-121.59 23.28-137.62l55.02 14.48l15.27 48.5l73.89 23.84l6.83 2.19c-13.03 69.09-29.82 163.07-42.77 236.59c-5.63 31.95-10.55 60.01-14.13 80.51c-1.22 7-2.3 13.1-3.17 18.17l-119.47-237.52c1.39-17.82 3.23-34.24 5.26-49.14z" />
					<path id="&lt;Path&gt;" class="s4" d="m1492.75 1058.5l2.77-23.72c30.89 8.21 87.61-3.26 170.14-34.39c29.93 26.31 42.92 70.99 39 134.04c-2.88 46.17-8.13 242.34-13.62 300.39c-1.98 21.04-3.72 36.01-4.43 41.99c-0.01 0.03-0.01 0.04-0.01 0.06c-0.22 1.82 0.42 3.55 1.35 5.14c8.08 13.71 14.77 27.99 20.26 42.6c35.91 95.7 33.15 202.47-8.3 320.32l-16.13-6.5c-23.58-131.15-44.96-225.7-64.12-283.64c-4.88-14.74-9.56-26.33-13.84-33.25c-12.5-20.17-24.09-53.13-34.62-92.33c-19.9-74.11-35.91-170.52-46.57-244.93c-0.98 0.05-11.6-41.89-31.86-125.79z" />
					<path id="&lt;Path&gt;" class="s2" d="m1202.88 961.65c32.8-14.58 78.96-36.47 87.97-46.45c20.91-23.21 41.11-98.75 64.7-150.15c2.11-4.8 4.22-9.4 6.33-13.81c0.19-0.38 0.38-0.96 0.77-1.34c1.15-2.11 2.11-4.03 3.07-5.75c0-0.19 0.19-0.38 0.38-0.58c4.41-8.44 9.01-15.15 13.23-19.56v-0.19c5.18-5.56 10.16-7.86 14.77-5.94c6.01 3.07 12.08 8.25 18.22 15.53c1.15 0.96 1.92 2.11 2.69 3.26c5.56 7.1 10.93 16.49 14.19 28.39c2.49 9.01 3.84 19.37 3.26 31.46c-0.77 19.75-10.55 44.5-24.55 69.43c-0.58 1.15-1.15 2.3-1.92 3.45c-26.85 46.99-68.09 93.99-93.22 109.33c-16.5 10.16-57.92 16.3-92.83 19.75c-23.21 2.5-43.73 3.65-52.17 4.22c-1.79 0.13-3.2 0.19-4.22 0.19l-3.45-23.21c12.79-5.11 27.04-11.12 42.77-18.03z" />
					<path id="&lt;Path&gt;" class="s6" d="m1201.92 929.54c27.51-12.5 59.1-2.04 71.6 50.5c8.34 35.07 89.5 74 52.96 127.55c-34.96 42.05-119.05 14.53-111.96-38.76c7.09-53.29 24.98-97.84 5.47-106.34c-16.24-7.07-22.27-18.06-18.07-32.95z" />
					<path id="&lt;Path&gt;" class="s7" d="m1154.41 1083.59c57.7-8.25 113.03-6.26 116.12 57.24c3.08 63.5 18.08 182.95 0.08 206.47c-12 15.68-49.45 22.4-112.36 20.17c-42.09-71.76-43.37-166.39-3.84-283.88z" />
					<path id="&lt;Path&gt;" class="s2" d="m1423.88 697.96c0.01-0.03 0.02-0.05 0.02-0.06c1.81-0.77 4.22-1.77 7.24-3c2.11-3.79-0.41-17.32-3.93-31.33c-3.01-11.93-6.55-24.13-10.62-36.6l57.48-27.02l3.44-1.59c10.12 41.36 27.62 66.09 37.37 71.18c4.86-0.6 10.76-1.18 16.41-1.49c5.79-0.31 15.85-0.7 27.33 3.46c-3.29 46.35-21.37 116.19-101.04 111.82c-21.25-1.16-38.82-5.75-53.36-12.5c6.58-39.54 19.08-71.39 19.66-72.86z" />
					<path id="&lt;Path&gt;" class="s8" d="m1474.09 599.96c-3.07 18.93-13.27 54.25-46.87 63.63c-3-11.94-6.54-24.15-10.61-36.6l57.49-27.02z" />
					<path id="&lt;Path&gt;" class="s2" d="m1358.41 551.09c-0.07-17.65 5.14-39.15 56.99-48.92c51.85-9.77 49.79 26.23 62.15 76.11c8.24 33.25-14.44 56.08-68.03 68.49c-21.23 3.55-51.04-78.02-51.11-95.68z" />
					<path id="&lt;Path&gt;" class="s3" d="m1353.89 522.77c8.64-18.08 18.81-17.11 25.17-13.91c25.18-23.3 50.12-25.43 74.82-6.4c9.51 22.97 24.56 39.14 45.16 48.52c-8.23 8.43-24.28 12.55-48.14 12.37c-10.93-0.09-21.92-5.11-31.93-12.02c12.86 12.95 26.83 23.37 41.91 31.26c-44.8-8.57-74.85-60.44-77.93-65.95c-3.8 5.61-11.06 17.54-11.67 27.61c-0.83 13.69 3.88 40.28-3.96 41.29c-17.61-23.77-22.09-44.69-13.45-62.77z" />
					<path id="&lt;Path&gt;" class="s9" d="m1355.36 764.97c1.93-5.79 9.35-19.94 22.25-42.45c0.01 0 0.01 0 0.01 0c0.08-0.08 12.3-11.28 46.28-24.62c0 0.01-0.01 0.03-0.02 0.06c-0.54 1.99-15.04 54.52-9.75 65.74c5.38 11.4 107.2-25.41 112.77-33.81c4.45-6.75 4.57-42.4 4.45-56.28c-0.01-2.3-0.03-4.16-0.06-5.57c25.34-3.43 45.14-2.27 59.39 3.5c-5.63 12.22-9.48 25.07-11.55 38.55c-0.29 1.92-0.54 3.85-0.72 5.77c-0.41 4.08-0.54 8.15-0.31 12.13c0.31 5.26 3.02 9.91 7.34 14.46c3.93 4.18 9.27 8.3 15.31 12.7c3.95 2.86 8.19 5.86 12.58 9.1c0 0 0 0 0 0c0.37 23.8-1.31 62.95 3.1 104.72c1.12 10.59 4.63 20.73 10.18 29.71c2.19 3.58 4.72 6.97 7.53 10.14c22.45 25.18 62.26 75.38 53.51 106.63c-0.64 29.47-249.17 68.18-243.86 35.82c-24.9-120-44.07-194.48-57.52-223.45c-0.72-1.59-1.39-3.15-1.99-4.74c-6.47-17.15-5.38-34.78-3.19-50.57c-7.59-5.4-16.17-7.91-25.75-7.55z" />
					<path id="&lt;Path&gt;" class="s6" d="m1585.45 742.45c3.93 4.18 9.27 8.3 15.31 12.7c3.95 2.86 8.19 5.86 12.58 9.11c0 0 0 0 0 0c0.37 23.8-1.31 62.95 3.1 104.72c1.12 10.59 4.63 20.73 10.18 29.71c-25.37 40.68-66.88 91.58-115.9 92.1c-66.46 0.7 34.58-180.5 74.72-248.34z" />
					<path id="&lt;Path&gt;" class="s2" d="m1348.08 1005.19c8.44-4.6 18.6-10.17 29.34-16.3c25.89-14.58 55.62-32.41 75.95-47.18c11.7-8.44 20.52-15.92 23.59-21.29c4.8-8.25 10.17-21.29 16.11-37.4c3.07-8.44 6.33-17.65 9.59-27.43c5.75-16.11 11.51-33.57 17.45-51.02c10.74-31.84 22.25-63.87 33.18-88.61c7.1-15.53 14-28.39 20.52-36.25c5.18-6.33 10.17-9.59 14.96-8.82c0.77 0.19 1.34 0.38 1.92 0.57c18.41 5.11 27.75 26.21 28 63.29c0.19 3.07 0 6.33-0.19 9.78c-0.38 9.78-2.3 21.68-5.18 34.72c-4.6 21.87-12.27 47.18-21.86 72.89c-2.69 6.9-5.37 14-8.25 21.1c-20.71 51.4-47.37 99.35-69.81 115.65c-0.96 0.77-1.73 1.34-2.69 1.92c-9.4 5.95-23.21 11.89-39.13 17.45c-22.63 7.67-49.49 14.58-73.46 20.33h-0.19c-14 3.07-26.85 5.95-37.59 8.06c-1.53 0.38-3.64 0.83-6.33 1.34c-8.95 1.66-16.24 3-21.87 4.03l-6.71-24.55c6.01-3.2 13.55-7.29 22.63-12.28z" />
					<path id="&lt;Path&gt;" class="s9" d="m1590.67 671.55c18.43 5.07 27.8 26.11 28.11 63.13c-18.99-19.22-40.79-25.44-65.41-18.65c13.29-29.83 26.18-49.09 37.3-44.48z" />
					<path id="&lt;Path&gt;" class="s5" d="m1654.22 1830.1c7.55-5.43 19.89-25.04 22.15-28.71c18.45 2.48 31.67-6.87 39.79-15.22c-2.4 17.14 7.61 23.57 14 37.74c4.45 9.84 5.65 21.24 3.61 34.21h-127.65c2.57-24.16 39.77-22.02 48.11-28.02z" />
					<path id="&lt;Path&gt;" class="s5" d="m1380.13 1830.1c7.35-5.28 30.88-31.94 36.37-38.21c5.9 3.42 12.62 6.31 18.98 6.68c8.24 0.47 15.72-1.68 21.5-4.05c-5.49 10.14-8.34 17.12-0.92 29.38c5.59 9.24 6.79 20.64 3.61 34.21h-127.65c2.57-24.16 39.77-22.02 48.11-28.02z" />
				</g>
				<g id="&lt;Group&gt;">
					<path id="&lt;Path&gt;" class="s10" d="m1158.25 1367.47c41.64 16.14-3.49 199.82 1.39 244.39c3.26 29.71-8.66 97.65-35.74 203.83l-32.46 3.94c3.96-30.03-11.21-166.66-45.5-409.89c47.11-38.95 84.55-53.04 112.31-42.27z" />
					<path id="&lt;Path&gt;" class="s2" d="m1202.21 1361.07c42.56 13.55 8.82 199.66 16.44 243.84c5.08 29.45-2.79 98.9-23.6 208.35l-32.11 7.42c2.1-30.22-21.31-167.05-70.23-410.51c44.63-41.77 81.13-58.14 109.5-49.11z" />
					<path id="&lt;Path&gt;" class="s3" d="m1111.69 1815.02c2.64-0.46 7.37-2.65 14.21-6.58c7.79 6.46 11.89 13.28 12.3 20.47c0.28 4.94 0.9 11.38 1.49 16.91c0.67 6.32-4.26 11.84-10.62 11.88l-74.68 0.43c-7.08 0.04-11.16-7.97-7.02-13.72c4.9-6.79 12.81-11.66 22.06-13.73c9.8-2.19 17.27-8.01 22.41-17.45c7.5 2.2 14.12 2.8 19.86 1.8z" />
					<path id="&lt;Path&gt;" class="s11" d="m1181.91 1815.02c2.64-0.46 7.37-2.65 14.21-6.58c7.79 6.46 11.89 13.28 12.3 20.47c0.28 4.94 0.9 11.38 1.49 16.91c0.67 6.32-4.26 11.84-10.62 11.88l-74.68 0.43c-7.08 0.04-11.16-7.97-7.02-13.72c4.9-6.79 12.81-11.66 22.06-13.73c9.8-2.19 17.27-8.01 22.41-17.45c7.5 2.2 14.12 2.8 19.86 1.8z" />
					<path id="&lt;Path&gt;" class="s2" d="m1052.34 1252.58c-6.44 14.99-17.57 11.81-33.39-9.54c6.56-44.72 26.11-94.51 58.65-149.37c53.69 16.03-15.6 136.42-25.26 158.91z" />
					<path id="&lt;Path&gt;" class="s6" d="m1086.89 947.61c0.52-0.87 22.36-35.4 63.18-42.29c33.07-5.58 64.02 17.78 69.11 50.93c5.11 33.31-0.1 76.48-54.45 92.03l-77.84-100.67z" />
					<path id="&lt;Path&gt;" class="s2" d="m1110.89 1074.76c2.79-9.64 3.05-19.96 2.66-27.66c-0.25-4.75-0.69-8.74-1.31-11.99l53.48-23.23c-1.84 13.49-1.86 25.77-0.99 36.38c1.38 16.82 4.68 30.51 9.89 41.06l-16.24 43.24l-61.5-36.53c7.33-5.23 11.6-13 14.01-21.28z" />
					<path id="&lt;Path&gt;" class="s3" d="m1244.07 1564.7c-16.7 15.95-139.99 48.92-209.47 25.22c-10.73-3.66 2.57-289.29 14.06-415.79c-7.66-4.28-12.24-11.05-13.75-20.33l23.38-39.98c0.92-1.85 1.96-3.62 3.11-5.31l0.26-0.44c0.01 0.03 0.01 0.04 0.01 0.05c7.29-10.57 18.78-17.97 32.12-19.78c3.45-0.48 7.14-0.22 11.18-0.62c-0.86 9.13 2.3 16.99 18.2 20.11c21.16 4.13 41.17-9.21 51.45-18.49c16.57 3.45 26.2 4.72 39.35 10.21c14.42 6.04 23.02 21.02 20.93 36.52l-3.98 29.29l-12.66 93.33c-1.61 11.72-1.51 23.61 0.27 35.32c5.39 35.47 13.96 121.89 19.7 187.62c4.04 46.24 6.68 82.25 5.84 83.06z" />
					<path id="&lt;Path&gt;" class="s7" d="m1086.37 1096.03c-36.01 28.84-48.1 101.51-43.38 150.97c9.02-22.46 8.45-55.77 17.19-91.13c5.67-22.92 16.41-43.32 32.23-61.18c-0.6 0-2.61 0.45-6.05 1.34z" />
					<path id="&lt;Path&gt;" class="s8" d="m1113.55 1047.11l51.18 1.17c-16.22 18.38-34.17 27.21-53.84 26.49c2.79-9.64 3.05-19.96 2.66-27.66z" />
					<path id="&lt;Path&gt;" class="s2" d="m1090.72 962.06c8.01-15.59 32.08-29.29 71.55-21.82c19.79 3.75 41.45 42 16.37 91.03c-15.49 30.28-42.49 39.01-81 26.18c-31.89-10.33-14.94-79.8-6.93-95.39z" />
					<path id="&lt;Path&gt;" class="s0" d="m1122.61 1032.63c-1.9 3.94-7.94 4.44-18.12 1.51c-8.55-2.45-12.19-5.93-10.92-10.44c9.13-1.39 18.81 1.59 29.04 8.92z" />
					<path id="&lt;Path&gt;" class="s12" d="m1238.24 1481.64c-1.83-2.12-118.74-138.52-122.96-211.09c-2.82-48.76 16.73-90.96 58.66-126.58c25.06-1.65 43.57 6.55 56.99 21.4l-12.66 93.33c-1.61 11.72-1.51 23.61 0.27 35.32c5.39 35.47 13.96 121.89 19.7 187.62z" />
					<path id="&lt;Path&gt;" class="s7" d="m1227.89 1106.53c-29.37-10.5-33.37 4.01-53.27 43.1c-19.9 39.1-34.36 116.58 51.65 171.4c3.28 10.74 2.79 18.49-1.45 23.27c-39.1-16.63-64.99-42.41-77.67-77.33c-25.63-70.57-10.63-162.77 45.16-175.63c21.27-0.82 33.13 4.24 35.58 15.18z" />
					<path id="&lt;Path&gt;" class="s6" d="m1081.35 994.27c-2.56-4.02-2.16-15.65 1.2-34.91c5.03-28.89 47.15-48.52 89.87-31.99c42.71 16.52 32.07 99.29 11.63 91.65c-34.27-12.8-49.58-37.26-45.93-73.39c-24.52-4.21-43.44 12-56.77 48.64z" />
					<path id="&lt;Path&gt;" class="s2" d="m1225.29 1114.99c17.76 28.24-26.62 122.83-39.13 151.92c-8.34 19.39-34.15 52.16-77.42 98.31c-14.48-5.86-20.7-10.93-18.68-15.21c2.02-4.28 20.28-36.55 54.78-96.79c0.61-24.73 8.77-68.17 24.49-130.33c25.47-24.09 44.12-26.73 55.96-7.9z" />
					<path id="&lt;Path&gt;" class="s2" d="m1038.13 1251.66c12.92 10.07 30.61 80.86 32.17 85.47c1.04 3.07-2.56 9.56-10.78 19.46c-30.14-33.36-43.66-71.21-40.57-113.56c4.17-0.97 10.57 1.9 19.18 8.62z" />
					<path id="&lt;Path&gt;" class="s2" d="m1108.74 1365.22c0.35 3.09-6.52 7.11-20.63 12.05c-21.16 7.42-30.21-13.87-28.6-20.67c1.08-4.53 11.26-6.73 30.55-6.59l18.68 15.21z" />
					<path id="&lt;Path&gt;" class="s2" d="m1070.3 1337.14c15.5 7.16 20.61 14.56 15.35 22.19c-7.9 11.45-23.69 4.6-26.13-2.72c-1.63-4.88 1.97-11.37 10.78-19.46z" />
					<path id="&lt;Path&gt;" class="s3" d="m1215.52 1104.21c24.65 6.69 29.29 37.26 13.92 91.73c-31.19 2.91-56.89-5.04-77.12-23.85c-4.31-29.49 26.24-77.91 63.2-67.88z" />
				</g>
				<g id="&lt;Group&gt;">
					<path id="&lt;Path&gt;" class="s5" d="m873.36 733.76c12.79 46.83 42.44 187.52 53.39 200.73c8.23 9.92 52.84 55.3 133.82 136.13c4.69 15.37 1.56 27.33-9.39 35.91c-145.9-66.04-216.54-119.87-211.93-161.49c14.76-133.31-1.19-236.44-47.85-309.4c39.99 11.72 67.31 44.42 81.97 98.11z" />
					<g id="&lt;Group&gt;">
						<path id="&lt;Path&gt;" class="s5" d="m478.44 1736.13l39.74 9.21c1.95 18.41 2.53 34.53 1.75 48.34c-1.17 20.71 5.88 43.03 24.59 47.06c12.47 2.69 16.12 8.48 10.96 17.39c-26.42 0-43.14 0-50.15 0c-10.52 0-22.21-10.36-25.13-29.35c-2.92-18.99-24.55-29.35-29.22-44.88c-3.12-10.36 3.31-22.83 19.29-37.4l8.18-10.36z" />
						<path id="&lt;Path&gt;" class="s5" d="m817.4 1794.41c6.43 28.19 44.42 40.86 66.04 44.31c14.42 2.3 21.62 8.63 21.62 18.99l-134.63 0.28c-7.01-3.45-9.09-21.77-6.22-54.94c31.17-24.55 48.9-27.43 53.18-8.63z" />
						<path id="&lt;Path&gt;" class="s7" d="m877.88 1100.06c-4.73 58.16-9.88 122.19-15.44 192.09c-11.35 142.44-24.99 317.41-26.34 350.55c-1.56 38.37-5.45 88.25-11.69 149.62c-14.8 14.58-37.01 18.8-66.63 12.65c-26.39-87.62-43.36-177.78-50.9-270.49c-0.18-2.28-0.35-4.57-0.53-6.87c-7.01-94.37-15.97-240.92-26.88-439.65l198.4 12.08z" />
						<path id="&lt;Path&gt;" class="s13" d="m877.88 1100.06c-4.73 58.16-9.88 122.19-15.44 192.09l-155.55 242.34c-0.18-2.28-0.35-4.57-0.53-6.87c-7.01-94.37-15.97-240.92-26.88-439.65l198.4 12.08z" />
						<path id="&lt;Path&gt;" class="s7" d="m845.45 1110.42c-85.32 210.61-156.04 365.41-212.14 464.39c-56.11 98.98-92.92 162.28-110.46 189.9c-32.14-12.66-49.67-23.31-52.6-31.94c21.45-191.08 50.97-309.91 88.54-356.49c31.84-39.48 69.25-157.96 71.01-199.4c1.17-27.62 4.97-68.77 11.39-123.44l204.26 56.97z" />
					</g>
					<path id="&lt;Path&gt;" class="s2" d="m720.64 518.63l31.68 25.15l33.41 26.28c0 6.43-0.7 15.32-2.11 26.66c-0.77 7.37-2.11 16.07-3.84 26.09c14.34 7.69 25.6 16.7 33.79 27.04c-33.28 10.33-78.79 1.57-136.52-26.28c30.72-22.82 45.25-57.79 43.59-104.93z" />
					<path id="&lt;Path&gt;" class="s4" d="m883.35 1107.27c-1.53 1.33-3.26 2.07-5.2 2.07c-18.81-0.38-73.53 10.01-119.8 5.29c-39.17-3.78-73.74-15.12-110.8-31.37c-5-2.27-16.33-8.32-16.13-13.61c0.2-6.05 0.76-14.56 1.53-25.54c1.55-21.6 3.74-52.27 4.43-88.63c0.52-26.96 0.23-57.04-1.73-88.9c-0.11-2.14-0.23-4.3-0.32-6.46c-0.56-11.68-0.83-23.45-0.83-34.95c-0.2-37.06 2.48-72.41 7.85-103.98c9.43-54.84 26.91-98.06 53.01-117.16c3.46-2.66 25.16 8.05 45.12 17.7c18.25 8.89 36.48 9.84 53.76 6.44l17.28 15.12c20.95 19.08 43.99 45.36 54.16 85.08c8.44 33.66 13.43 94.53 16.13 157.69c1.33 28.73 2.3 57.47 2.68 84.88v0.95c0.2 2.83 0.2 5.69 0.2 8.53c0.94 70.14 0 125.92-1.35 126.86z" />
					<path id="&lt;Path&gt;" class="s8" d="m752.33 543.78l33.41 26.28c0 6.43-0.7 15.32-2.11 26.66c-27.78-7.44-48.96-24.45-63.56-51.05l32.26-1.89z" />
					<path id="&lt;Path&gt;" class="s2" d="m800.97 568.9c-55.07 9.01-85.2-3.41-90.37-37.27c-7.76-50.79-23.64-83.25 28.78-94.02c52.42-10.77 65.65 7.08 72.43 23.41c6.77 16.33 10.45 103.05-10.84 107.88z" />
					<path id="&lt;Path&gt;" class="s6" d="m680.58 431.53c-0.75-0.86-2.48-1.55-6.33-1.76c2.05-1.28 4.45-1.96 7.19-2.03c0.8-5.35 3.65-14.83 12.86-17.13c-3.3 1.76-5.17 4.54-5.6 8.33c10.67-10.96 33.54-18.94 96.85-13.94c83.44 6.59 55.94 60.01 45.14 66.38c-10.8 6.37-37.99-11.09-58.12-9.49c-20.13 1.6-23.96 30.68-30.78 34.67c-6.83 3.99-4.14-3.07-13.38-7.24c-9.24-4.18-10.12 11.13-7.45 21.09c1.78 6.64-1.56 14.33-10.03 23.08c0 0-4.28-4.61-12.83-13.82c-12.83-13.81-24.92-72.33-19.09-84.8c0.52-1.1 1.03-2.22 1.55-3.34z" />
					<path id="&lt;Path&gt;" class="s2" d="m1077.07 1079.14c7.04-3.16 12.67-2.47 16.88 2.07c6.31 6.8 21.07 11.49 19.8 15.05c-2.62 7.36-16.23-0.94-30.61 3.54c-5.03 1.56-20.64-8.07-6.07-20.65z" />
					<path id="&lt;Path&gt;" class="s5" d="m637.39 955.47c0.52-26.96 0.23-57.04-1.73-88.9c-0.11-2.14-0.23-4.3-0.32-6.46c7.85-38.91 19.73-73.42 37.22-74.55c34.73 54.57 23 111.21-35.17 169.91z" />
					<path id="&lt;Path&gt;" class="s2" d="m596.54 1093.92c6.58 14.81 25.25 31.98 25.11 38.93c-0.14 6.95 0.84 26.06-2.97 25.56c-3.81-0.5-9.16-21.73-10.92-14.22c-1.76 7.52 12.16 46.14 3.52 41.14c-8.64-5.01-28.93-30.52-33.69-38.51c-3.18-5.32-6.21-22.05-9.11-50.2c14.31-11.68 23.67-12.59 28.05-2.71z" />
					<path id="&lt;Path&gt;" class="s4" d="m733.94 714.83c15.55 39.38-122.71 223.91-127.04 233.2c-2.89 6.19-2.05 57.45 2.5 153.78c-5.88 11.51-20.22 18.01-43.02 19.52c-22.48-93.75-33.44-147.27-32.89-160.55c0.83-19.92 45.89-235.03 84.77-294.06c16.71-25.37 42.48-46.3 77.33-62.8c15.2 47.68 27.98 84.65 38.34 110.91z" />
				</g>
				<path id="&lt;Path&gt;" class="s2" d="m1237.21 1028.97c21.23-15.22 38.17-21.35 50.83-18.41c16.88 3.84 52.94-3.84 60.03-5.37c0.64-0.13 1.09-0.26 1.34-0.38l10.93 31.84c-1.53 0.38-3.64 0.83-6.33 1.34c-10.17 2.49-31.07 7.86-50.83 15.54c-27.62 10.93-44.88-7.1-57.16-12.28c-8.18-3.32-11.13-7.42-8.82-12.28z" />
			</g>
			<path id="&lt;Path&gt;" class="s14" d="m2050.91 1867.04h-1913c-1.68 0-3.05-1.37-3.05-3.05v-3.9c0-1.68 1.37-3.05 3.05-3.05h1913c1.68 0 3.05 1.37 3.05 3.05v3.9c0 1.68-1.37 3.05-3.05 3.05z" />
			<g id="&lt;Group&gt;">
				<path id="&lt;Path&gt;" class="s15" d="m1208.52 382.58v63.74c0 22.13-18.11 40.24-40.24 40.24h-151l-57.72 31.98l10.01-45.75c-6.22-7.09-10.01-16.36-10.01-26.47v-63.74c0-22.13 18.11-40.24 40.24-40.24h168.47c22.13 0 40.24 18.11 40.24 40.24z" />
				<path id="&lt;Path&gt;" class="s16" d="m1171.44 390.9h-174.66c-3.6 0-6.54-2.94-6.54-6.54c0-3.6 2.94-6.54 6.54-6.54h174.66c3.6 0 6.54 2.94 6.54 6.54c0 3.59-2.94 6.54-6.54 6.54z" />
				<path id="&lt;Path&gt;" class="s16" d="m1171.44 419.51h-174.66c-3.6 0-6.54-2.94-6.54-6.54c0-3.6 2.94-6.54 6.54-6.54h174.66c3.6 0 6.54 2.94 6.54 6.54c0 3.6-2.94 6.54-6.54 6.54z" />
				<path id="&lt;Path&gt;" class="s16" d="m1171.44 447.04h-174.66c-3.6 0-6.54-2.94-6.54-6.54c0-3.59 2.94-6.54 6.54-6.54h174.66c3.6 0 6.54 2.94 6.54 6.54c0 3.6-2.94 6.54-6.54 6.54z" />
			</g>
		</g>
	</g>
</svg>